<svg width="131" height="56" viewBox="0 0 131 56" fill="none" xmlns="http://www.w3.org/2000/svg">
<g clip-path="url(#clip0_222_10606)">
<path d="M72.5619 37.3752C71.7615 37.1147 71.6281 36.5938 71.8949 35.8125L78.565 19.6642C78.8318 19.0131 79.232 18.7527 79.899 18.7527C80.566 18.7527 80.9662 19.1433 81.0996 19.6642L87.903 35.8125C88.1698 36.5938 87.903 36.9845 87.236 37.3752C86.4356 37.6357 86.0354 37.3752 85.6352 36.7241L84.1678 33.0777H75.3633L73.8959 36.7241C73.6291 37.5054 73.0955 37.6357 72.4285 37.3752H72.5619ZM76.4305 30.8638H83.3674L79.899 22.5293L76.5639 30.8638H76.4305Z" fill="#646567"/>
<path d="M93.5058 37.5054C93.1056 37.5054 92.8388 37.5054 92.572 37.245C92.3052 36.9845 92.3052 36.7241 92.3052 36.3334V19.9247C92.3052 19.534 92.3052 19.2736 92.572 19.0131C92.8388 18.7527 93.1056 18.7527 93.5058 18.7527C93.906 18.7527 94.1728 18.7527 94.4396 19.0131C94.573 19.1433 94.7064 19.534 94.7064 19.9247V36.3334C94.7064 36.7241 94.7064 36.9845 94.4396 37.245C94.3062 37.3752 93.906 37.5054 93.5058 37.5054Z" fill="#646567"/>
<path d="M104.178 32.687C102.31 32.687 100.976 32.2963 100.043 31.3847C99.1087 30.4731 98.7085 29.1709 98.7085 27.3477V24.092C98.7085 22.2688 99.1087 20.8363 100.043 20.0549C100.976 19.1433 102.31 18.7527 104.178 18.7527H106.446C108.313 18.7527 109.781 19.1433 110.581 20.0549C111.515 20.9665 111.915 22.2688 111.915 24.092V27.2174C111.915 29.0406 111.515 30.3429 110.581 31.2545C109.647 32.1661 108.313 32.5568 106.446 32.5568H104.178V32.687ZM100.976 27.3477C100.976 28.5197 101.243 29.3011 101.643 29.822C102.044 30.2127 102.977 30.4731 104.178 30.4731H106.446C107.646 30.4731 108.58 30.2127 108.98 29.822C109.381 29.4313 109.647 28.5197 109.647 27.3477V24.2222C109.647 23.0502 109.381 22.1386 108.98 21.7479C108.58 21.3572 107.646 21.0968 106.446 21.0968H104.178C103.378 21.0968 102.711 21.0968 102.31 21.3572C101.91 21.4874 101.51 21.8781 101.377 22.2688C101.243 22.6595 101.11 23.3106 101.11 24.092V27.3477H100.976Z" fill="#646567"/>
<path d="M117.118 37.5054C116.317 37.5054 115.917 37.1147 115.917 36.3334V19.9247C115.917 19.1433 116.317 18.7527 117.118 18.7527H123.921C126.323 18.7527 128.19 19.2736 129.391 20.4456C130.591 21.6177 131.125 23.3106 131.125 25.7849V30.4731C131.125 32.8172 130.591 34.6404 129.391 35.8125C128.19 36.9845 126.456 37.5054 123.921 37.5054H117.118ZM118.318 35.1613H123.921C125.122 35.1613 126.056 35.0311 126.723 34.7707C127.39 34.5102 127.923 33.9893 128.19 33.3381C128.457 32.687 128.59 31.7754 128.59 30.6034V25.9152C128.59 24.7431 128.457 23.8315 128.19 23.1804C127.923 22.5293 127.39 22.0083 126.723 21.7479C126.056 21.4874 125.122 21.3572 123.921 21.3572H118.318V35.4218V35.1613Z" fill="#646567"/>
<path d="M108.447 35.1613H102.177C101.51 35.1613 100.976 35.6823 100.976 36.3334C100.976 36.9845 101.51 37.5054 102.177 37.5054H108.447C109.114 37.5054 109.647 36.9845 109.647 36.3334C109.647 35.6823 109.114 35.1613 108.447 35.1613Z" fill="#0047BB"/>
<path d="M28.4143 15.2366C28.2809 15.2366 28.1475 15.2366 28.1475 14.9762V0.260455C28.1475 0.130228 28.1475 0 28.4143 0C28.6811 0 28.6811 0 28.6811 0.260455V14.9762C28.6811 15.1064 28.6811 15.2366 28.4143 15.2366Z" fill="#C5C6C8"/>
<path d="M31.7494 15.627C31.7494 15.627 31.4826 15.4968 31.616 15.3665L35.3512 1.17173C35.3512 1.17173 35.4846 0.911272 35.618 1.0415C35.618 1.0415 35.8848 1.17173 35.7514 1.30195L31.8828 15.4968C31.8828 15.4968 31.8828 15.627 31.616 15.627H31.7494Z" fill="#C5C6C8"/>
<path d="M34.8176 16.9292C34.8176 16.9292 34.6842 16.6687 34.8176 16.5385L42.1547 3.7762C42.1547 3.7762 42.4215 3.64597 42.5549 3.7762C42.5549 3.7762 42.6883 4.03666 42.5549 4.16688L35.0844 16.9292C35.0844 16.9292 35.0844 16.9292 34.8176 16.9292Z" fill="#C5C6C8"/>
<path d="M37.4855 18.883C37.4855 18.883 37.4855 18.883 37.3521 18.883C37.3521 18.883 37.3521 18.6225 37.3521 18.4923L48.0241 8.07407C48.0241 8.07407 48.291 8.07407 48.4244 8.07407C48.4244 8.07407 48.4244 8.33452 48.4244 8.46475L37.7523 18.883C37.7523 18.883 37.7523 18.883 37.6189 18.883H37.4855Z" fill="#C5C6C8"/>
<path d="M39.4865 21.4874C39.4865 21.4874 39.3531 21.4874 39.2197 21.4874C39.2197 21.4874 39.2197 21.2269 39.2197 21.0967L52.293 13.804C52.293 13.804 52.5599 13.804 52.6933 13.804C52.6933 13.804 52.6933 14.0644 52.6933 14.1946L39.6199 21.4874H39.4865Z" fill="#C5C6C8"/>
<path d="M40.8208 24.4826C40.8208 24.4826 40.554 24.4826 40.554 24.3524C40.554 24.3524 40.554 24.0919 40.6874 24.0919L55.2281 20.3153C55.2281 20.3153 55.4949 20.3153 55.4949 20.4456C55.4949 20.4456 55.4949 20.706 55.3615 20.706L40.8208 24.4826Z" fill="#C5C6C8"/>
<path d="M56.2952 27.7381H41.2209C41.0875 27.7381 40.9541 27.7381 40.9541 27.4776C40.9541 27.2172 40.9541 27.2172 41.2209 27.2172H56.2952C56.4286 27.2172 56.562 27.2172 56.562 27.4776C56.562 27.7381 56.562 27.7381 56.2952 27.7381Z" fill="#C5C6C8"/>
<path d="M55.3614 34.7707L40.8207 30.9941C40.8207 30.9941 40.5539 30.8639 40.6873 30.7336C40.6873 30.7336 40.8207 30.4732 40.9541 30.6034L55.4948 34.38C55.4948 34.38 55.7616 34.5102 55.6282 34.6405C55.6282 34.6405 55.6282 34.7707 55.3614 34.7707Z" fill="#C5C6C8"/>
<path d="M52.5599 41.412L39.4865 34.1192C39.4865 34.1192 39.3531 33.8588 39.4865 33.7286C39.4865 33.7286 39.7533 33.5983 39.8867 33.7286L52.9601 41.0213C52.9601 41.0213 53.0935 41.2818 52.9601 41.412C52.9601 41.412 52.9601 41.412 52.6933 41.412H52.5599Z" fill="#C5C6C8"/>
<path d="M48.1575 47.0116C48.1575 47.0116 48.1575 47.0116 48.0241 47.0116L37.3521 36.5934C37.3521 36.5934 37.3521 36.333 37.3521 36.2027C37.3521 36.2027 37.6189 36.2027 37.7523 36.2027L48.4244 46.6209C48.4244 46.6209 48.4244 46.8814 48.4244 47.0116C48.4244 47.0116 48.4244 47.0116 48.291 47.0116H48.1575Z" fill="#C5C6C8"/>
<path d="M42.2881 51.4395C42.2881 51.4395 42.1547 51.4395 42.0213 51.4395L34.5508 38.6772C34.5508 38.6772 34.5508 38.4167 34.5508 38.2865C34.5508 38.2865 34.8176 38.2865 34.951 38.2865L42.4215 51.0488C42.4215 51.0488 42.4215 51.3093 42.4215 51.4395H42.2881Z" fill="#C5C6C8"/>
<path d="M35.6179 54.1743C35.6179 54.1743 35.3511 54.1743 35.3511 54.044L31.4824 39.8492C31.4824 39.8492 31.4824 39.5888 31.6158 39.5888C31.7492 39.5888 31.8826 39.5888 31.8826 39.719L35.7513 53.9138C35.7513 53.9138 35.7513 54.1743 35.6179 54.1743Z" fill="#C5C6C8"/>
<path d="M28.4143 55.0861C28.2809 55.0861 28.1475 55.0861 28.1475 54.8257V40.1099C28.1475 39.9797 28.1475 39.8495 28.4143 39.8495C28.6811 39.8495 28.6811 39.8495 28.6811 40.1099V54.8257C28.6811 54.9559 28.6811 55.0861 28.4143 55.0861Z" fill="#C5C6C8"/>
<path d="M21.0772 54.1745C21.0772 54.1745 20.8104 54.0443 20.9438 53.9141L24.8125 39.7192C24.8125 39.7192 24.9459 39.4588 25.0793 39.589C25.0793 39.589 25.3461 39.7192 25.2127 39.8495L21.3441 54.0443C21.3441 54.0443 21.3441 54.1745 21.0772 54.1745Z" fill="#C5C6C8"/>
<path d="M14.4072 51.4395C14.4072 51.4395 14.2738 51.1791 14.4072 51.0488L21.8777 38.2865C21.8777 38.2865 22.1445 38.1563 22.2779 38.2865C22.2779 38.2865 22.4113 38.547 22.2779 38.6772L14.8074 51.4395C14.8074 51.4395 14.8074 51.4395 14.5406 51.4395H14.4072Z" fill="#C5C6C8"/>
<path d="M8.671 47.0116C8.671 47.0116 8.671 47.0116 8.5376 47.0116C8.5376 47.0116 8.5376 46.7512 8.5376 46.6209L19.2097 36.2027C19.2097 36.2027 19.4765 36.2027 19.6099 36.2027C19.6099 36.2027 19.6099 36.4632 19.6099 36.5934L8.9378 47.0116C8.9378 47.0116 8.9378 47.0116 8.8044 47.0116H8.671Z" fill="#C5C6C8"/>
<path d="M4.13521 41.412C4.13521 41.412 4.00181 41.412 3.86841 41.412C3.86841 41.412 3.86841 41.1515 3.86841 41.0213L16.9417 33.7285C16.9417 33.7285 17.2085 33.7285 17.3419 33.7285C17.3419 33.7285 17.3419 33.989 17.3419 34.1192L4.26861 41.412H4.13521Z" fill="#C5C6C8"/>
<path d="M1.33394 34.7708C1.33394 34.7708 1.06714 34.7708 1.06714 34.6405C1.06714 34.6405 1.06714 34.3801 1.20054 34.3801L15.7413 30.6035C15.7413 30.6035 16.0081 30.6035 16.0081 30.7337C16.0081 30.7337 16.0081 30.9942 15.8747 30.9942L1.46734 34.7708H1.33394Z" fill="#C5C6C8"/>
<path d="M15.4744 27.7381H0.400103C0.266702 27.7381 0.133301 27.7381 0.133301 27.4776C0.133301 27.2172 0.133301 27.2172 0.400103 27.2172H15.4744C15.6078 27.2172 15.7412 27.2172 15.7412 27.4776C15.7412 27.7381 15.7412 27.7381 15.4744 27.7381Z" fill="#C5C6C8"/>
<path d="M15.8746 24.4822L1.33384 20.7056C1.33384 20.7056 1.06704 20.5754 1.20044 20.4452C1.20044 20.4452 1.33384 20.1847 1.46724 20.3149L16.008 24.0915C16.008 24.0915 16.2748 24.2218 16.1414 24.352C16.1414 24.352 16.1414 24.4822 15.8746 24.4822Z" fill="#C5C6C8"/>
<path d="M17.2086 21.4876L4.00192 14.0646C4.00192 14.0646 3.86852 13.8041 4.00192 13.6739C4.00192 13.6739 4.26872 13.5437 4.40212 13.6739L17.4754 20.9667C17.4754 20.9667 17.6088 21.2271 17.4754 21.3573C17.4754 21.3573 17.4754 21.3573 17.2086 21.3573V21.4876Z" fill="#C5C6C8"/>
<path d="M19.2096 18.883C19.2096 18.883 19.2096 18.883 19.0762 18.883L8.40405 8.46475C8.40405 8.46475 8.40405 8.20429 8.40405 8.07407C8.40405 8.07407 8.67085 8.07407 8.80426 8.07407L19.4764 18.4923C19.4764 18.4923 19.4764 18.7527 19.4764 18.883C19.4764 18.883 19.4764 18.883 19.343 18.883H19.2096Z" fill="#C5C6C8"/>
<path d="M21.8777 16.9291C21.8777 16.9291 21.7443 16.9291 21.6109 16.9291L14.1404 4.03653C14.1404 4.03653 14.1404 3.77607 14.1404 3.64584C14.1404 3.64584 14.4072 3.64584 14.5406 3.64584L22.0111 16.4081C22.0111 16.4081 22.0111 16.6686 22.0111 16.7988L21.8777 16.9291Z" fill="#C5C6C8"/>
<path d="M25.0793 15.6273C25.0793 15.6273 24.8125 15.6273 24.8125 15.4971L20.9438 1.17202C20.9438 1.17202 20.9438 0.91156 21.0772 0.91156C21.2107 0.91156 21.3441 0.91156 21.3441 1.04179L25.2127 15.2366C25.2127 15.2366 25.2127 15.4971 25.0793 15.4971V15.6273Z" fill="#C5C6C8"/>
<path d="M28.4144 15.4969C28.1476 15.4969 27.8808 15.2365 27.8808 14.976V8.33441C27.8808 8.07395 28.1476 7.8135 28.4144 7.8135C28.6812 7.8135 28.948 8.07395 28.948 8.33441V14.976C28.948 15.2365 28.6812 15.4969 28.4144 15.4969ZM32.283 15.4969L34.5509 7.29259C34.5509 7.03213 34.5509 6.64145 34.1507 6.64145C33.8839 6.64145 33.4836 6.64145 33.4836 7.03213L31.2158 15.2365C31.2158 15.4969 31.2158 15.8876 31.616 15.8876C31.616 15.8876 31.616 15.8876 31.7494 15.8876C32.0162 15.8876 32.283 15.7574 32.283 15.4969ZM35.3513 16.9294L40.6873 7.94373C40.8207 7.68327 40.6873 7.29259 40.4205 7.03213C40.1537 6.9019 39.7535 7.03213 39.4867 7.29259L34.1507 16.2783C34.0173 16.5387 34.1507 16.9294 34.4175 17.1899H34.6843C34.9511 17.1899 35.0845 17.1899 35.2179 16.9294H35.3513ZM38.0193 19.1433L46.8238 10.5483C47.0906 10.2878 47.0906 9.89714 46.8238 9.63668C46.557 9.37623 46.1568 9.37623 45.89 9.63668L37.0855 18.2317C36.8187 18.4922 36.8187 18.8828 37.0855 19.1433C37.3523 19.4038 37.3523 19.4038 37.6191 19.4038C37.8859 19.4038 38.0193 19.4038 38.1527 19.1433H38.0193ZM39.8869 21.8781L52.0264 15.1062C52.4266 14.8458 52.56 14.4551 52.2932 14.0644C52.0264 13.6737 51.6262 13.5435 51.226 13.804L39.0865 20.5758C38.6863 20.8363 38.5529 21.2269 38.8197 21.6176C38.9531 21.8781 39.2199 22.0083 39.4867 22.0083C39.7535 22.0083 39.7535 22.0083 39.8869 22.0083V21.8781ZM40.9541 25.0035L55.4948 21.2269C55.8951 21.2269 56.1619 20.706 56.0285 20.3153C55.8951 19.9247 55.4948 19.6642 55.0946 19.7944L40.5539 23.571C40.1537 23.571 39.8869 24.0919 40.0203 24.4826C40.0203 24.8733 40.4205 25.0035 40.8207 25.0035C41.2209 25.0035 40.9541 25.0035 41.0875 25.0035H40.9541ZM57.0957 27.4779C57.0957 27.0872 56.6955 26.6965 56.2953 26.6965H41.2209C40.8207 26.6965 40.4205 27.0872 40.4205 27.4779C40.4205 27.8685 40.8207 28.2592 41.2209 28.2592H56.2953C56.6955 28.2592 57.0957 27.8685 57.0957 27.4779ZM56.1619 34.7706C56.1619 34.2497 56.0285 33.859 55.4948 33.7288L40.9541 29.9522C40.4205 29.9522 40.0203 30.0824 39.8869 30.6033C39.8869 31.1242 40.0203 31.5149 40.5539 31.6451L55.0946 35.4218C55.0946 35.4218 55.228 35.4218 55.3614 35.4218C55.7617 35.4218 56.1619 35.1613 56.1619 34.7706ZM53.3604 41.5424C53.6272 41.1518 53.3604 40.5006 52.9602 40.2402L39.8869 32.9474C39.4867 32.687 38.8197 32.9474 38.5529 33.3381C38.2861 33.7288 38.5529 34.3799 38.9531 34.6404L52.0264 41.9331C52.1598 41.9331 52.2932 41.9331 52.4266 41.9331C52.6934 41.9331 53.0936 41.8029 53.227 41.4122L53.3604 41.5424ZM48.8248 47.4027C49.225 47.012 49.225 46.3609 48.8248 46.1004L38.1527 35.6822C37.7525 35.2915 37.0855 35.2915 36.8187 35.6822C36.5519 36.0729 36.4185 36.724 36.8187 36.9845L47.4908 47.4027C47.6242 47.5329 47.891 47.6631 48.1578 47.6631C48.4246 47.6631 48.6914 47.6631 48.8248 47.4027ZM42.8217 51.9607C43.3553 51.7002 43.4887 51.0491 43.2219 50.5282L35.7515 37.7658C35.4847 37.2449 34.8177 37.1147 34.2841 37.3752C33.7505 37.6356 33.617 38.2868 33.8839 38.8077L41.3543 51.57C41.4877 51.8304 41.8879 52.0909 42.2881 52.0909C42.6883 52.0909 42.6883 52.0909 42.8217 51.9607ZM35.8849 54.8257C36.4185 54.6954 36.8187 54.0443 36.6853 53.5234L32.8166 39.3286C32.6832 38.8077 32.0162 38.417 31.4826 38.5472C30.949 38.6774 30.5488 39.3286 30.6822 39.8495L34.5509 54.0443C34.5509 54.5652 35.0845 54.8257 35.6181 54.8257C36.1517 54.8257 35.7515 54.8257 35.8849 54.8257ZM29.4816 54.8257V40.1099C29.4816 39.4588 28.948 39.0681 28.4144 39.0681C27.8808 39.0681 27.3472 39.589 27.3472 40.1099V54.8257C27.3472 55.4768 27.8808 55.8675 28.4144 55.8675C28.948 55.8675 29.4816 55.3466 29.4816 54.8257ZM22.2779 54.1745L26.1466 39.9797C26.28 39.3286 25.8798 38.6774 25.3462 38.5472C24.6792 38.417 24.0122 38.8077 23.8788 39.3286L20.0101 53.5234C19.8767 54.1745 20.2769 54.8257 20.8105 54.9559H21.0773C21.6109 54.9559 22.0111 54.5652 22.2779 54.0443V54.1745ZM15.4745 51.7002L22.945 38.9379C23.3452 38.417 23.0784 37.6356 22.5447 37.2449C22.0111 36.8543 21.2107 37.1147 20.8105 37.6356L13.3401 50.3979C12.9399 50.9188 13.2067 51.7002 13.7403 52.0909C13.8737 52.0909 14.1405 52.2211 14.4073 52.2211C14.8075 52.2211 15.2077 51.9607 15.4745 51.57V51.7002ZM9.47143 47.6631L20.1435 37.2449C20.6771 36.724 20.6771 35.9427 20.1435 35.4218C19.6099 34.9008 18.8095 34.9008 18.2759 35.4218L7.60381 45.84C7.0702 46.3609 7.0702 47.1422 7.60381 47.6631C8.13741 48.1841 8.13741 48.0538 8.53762 48.0538C8.93782 48.0538 9.20462 48.0538 9.47143 47.6631ZM4.80238 42.1936L17.8757 34.9008C18.5427 34.5102 18.6761 33.7288 18.4093 33.0777C18.0091 32.4265 17.2087 32.2963 16.5417 32.5567L3.46837 40.1099C2.80136 40.5006 2.66796 41.282 2.93477 41.9331C3.20157 42.3238 3.60177 42.5843 4.13538 42.5843C4.66898 42.5843 4.53558 42.5843 4.80238 42.454V42.1936ZM1.73415 35.8124L16.2749 32.0358C16.9419 31.9056 17.4755 31.1242 17.2087 30.3429C17.0753 29.5615 16.2749 29.1708 15.4745 29.4313L1.06715 33.3381C0.266741 33.4683 -0.133463 34.2497 0.13334 35.0311C0.266741 35.6822 0.800346 36.0729 1.46735 36.0729C2.13436 36.0729 1.73415 36.0729 1.86756 36.0729L1.73415 35.8124ZM15.7413 27.4779C15.7413 27.3476 15.7413 27.2174 15.4745 27.2174H14.6741C14.5407 27.2174 14.4073 27.2174 14.4073 27.4779C14.4073 27.7383 14.4073 27.7383 14.6741 27.7383H15.4745C15.6079 27.7383 15.7413 27.7383 15.7413 27.4779ZM16.2749 24.3524C16.2749 24.2222 16.2749 24.0919 16.0081 23.9617L15.0743 23.7013C14.9409 23.7013 14.8075 23.7013 14.6741 23.9617C14.6741 24.0919 14.6741 24.2222 14.9409 24.3524L15.8747 24.6129C15.8747 24.6129 16.1415 24.6129 16.1415 24.3524H16.2749ZM17.6089 21.3572C17.6089 21.2269 17.6089 20.9665 17.6089 20.8363L16.2749 20.0549C16.1415 20.0549 15.8747 20.0549 15.7413 20.0549C15.7413 20.1851 15.7413 20.4456 15.7413 20.5758L17.0753 21.3572C17.0753 21.3572 17.0753 21.3572 17.2087 21.3572C17.2087 21.3572 17.4755 21.3572 17.4755 21.2269L17.6089 21.3572ZM19.6099 18.8828C19.7433 18.7526 19.7433 18.4922 19.6099 18.3619L18.0091 16.7992C17.8757 16.669 17.6089 16.669 17.4755 16.7992C17.3421 16.9294 17.3421 17.1899 17.4755 17.3201L19.0763 18.8828C19.0763 18.8828 19.2097 18.8828 19.3431 18.8828C19.4765 18.8828 19.6099 18.8828 19.6099 18.8828ZM22.2779 16.9294C22.5447 16.9294 22.5447 16.5387 22.4113 16.2783L20.6771 13.4133C20.6771 13.1528 20.2769 13.1528 20.0101 13.2831C19.7433 13.2831 19.7433 13.6737 19.8767 13.9342L21.6109 16.7992C21.6109 16.9294 21.8777 17.0597 22.0111 17.0597C22.1445 17.0597 22.1445 17.0597 22.2779 17.0597V16.9294ZM25.3462 15.7574C25.613 15.7574 25.7464 15.3667 25.7464 15.1062L24.4124 10.418C24.4124 10.1576 24.0122 10.0274 23.7454 10.0274C23.4786 10.0274 23.3452 10.418 23.3452 10.6785L24.6792 15.3667C24.6792 15.6272 24.946 15.7574 25.2128 15.7574H25.3462Z" fill="url(#paint0_linear_222_10606)"/>
</g>
<defs>
<linearGradient id="paint0_linear_222_10606" x1="-6.13012e-05" y1="31.2545" x2="57.0957" y2="31.2545" gradientUnits="userSpaceOnUse">
<stop stop-color="#41B6E6"/>
<stop offset="0.5" stop-color="#0047BB"/>
<stop offset="1" stop-color="#003399"/>
</linearGradient>
<clipPath id="clip0_222_10606">
<rect width="131" height="55.8676" fill="white"/>
</clipPath>
</defs>
</svg>
