<svg width="225" height="46" viewBox="0 0 225 46" fill="none" xmlns="http://www.w3.org/2000/svg">
<g clip-path="url(#clip0_215_4772)">
<path d="M78.4668 17.106V5.85724H86.1572V7.7688H80.7373V10.4401H85.4248V12.3516H80.7373V17.1305H78.4668V17.106Z" fill="#1F3C88"/>
<path d="M93.335 17.106V15.8807C93.042 16.3218 92.6514 16.6649 92.1631 16.91C91.6748 17.155 91.1621 17.2776 90.625 17.2776C90.0879 17.2776 89.5996 17.155 89.1602 16.91C88.7207 16.6649 88.4033 16.3218 88.208 15.9052C88.0127 15.464 87.915 14.8759 87.915 14.0916V8.94513H90.0635V12.6947C90.0635 13.8466 90.1123 14.5328 90.1855 14.8023C90.2588 15.0719 90.4053 15.268 90.625 15.415C90.8447 15.5621 91.0889 15.6356 91.4307 15.6356C91.7725 15.6356 92.1143 15.5376 92.4072 15.3415C92.7002 15.1454 92.8955 14.9004 92.9932 14.5818C93.0908 14.2877 93.1641 13.5525 93.1641 12.3761V8.94513H95.3125V17.106H93.3105H93.335Z" fill="#1F3C88"/>
<path d="M104.932 17.106H102.783V12.9398C102.783 12.0576 102.734 11.4939 102.637 11.2243C102.539 10.9547 102.393 10.7587 102.197 10.6116C101.978 10.4646 101.733 10.3911 101.44 10.3911C101.147 10.3911 100.732 10.4891 100.439 10.7097C100.146 10.9302 99.9512 11.1753 99.8291 11.5184C99.707 11.8615 99.6582 12.4742 99.6582 13.3809V17.0815H97.5098V8.96965H99.5117V10.1705C100.22 9.23922 101.123 8.7981 102.197 8.7981C103.271 8.7981 103.101 8.89612 103.491 9.06767C103.882 9.23922 104.175 9.45979 104.37 9.72937C104.565 9.99895 104.712 10.293 104.785 10.6361C104.858 10.9792 104.907 11.4694 104.907 12.0821V17.155L104.932 17.106Z" fill="#1F3C88"/>
<path d="M114.575 17.106H112.573V15.9052C112.231 16.3708 111.841 16.7139 111.401 16.9345C110.962 17.1551 110.498 17.2776 110.034 17.2776C109.106 17.2776 108.301 16.91 107.642 16.1503C106.982 15.3905 106.641 14.3367 106.641 12.9888C106.641 11.6409 106.958 10.5626 107.617 9.8274C108.252 9.11669 109.082 8.74909 110.083 8.74909C111.084 8.74909 111.768 9.1167 112.427 9.87642V5.85724H114.575V17.106ZM108.838 12.8663C108.838 13.7486 108.96 14.3612 109.204 14.7534C109.546 15.317 110.034 15.5866 110.669 15.5866C111.304 15.5866 111.572 15.366 111.938 14.9494C112.28 14.5328 112.451 13.8956 112.451 13.0624C112.451 12.2291 112.28 11.4449 111.938 11.0528C111.597 10.6361 111.182 10.4401 110.645 10.4401C110.107 10.4401 109.717 10.6361 109.375 11.0528C109.033 11.4694 108.862 12.0576 108.862 12.8663H108.838Z" fill="#1F3C88"/>
<path d="M121.387 14.5328L123.535 14.9004C123.267 15.6846 122.827 16.2973 122.241 16.6894C121.655 17.1061 120.898 17.3021 120.02 17.3021C118.604 17.3021 117.554 16.8365 116.895 15.9052C116.357 15.17 116.089 14.2387 116.089 13.0869C116.089 11.935 116.431 10.6852 117.139 9.92546C117.847 9.16574 118.726 8.77362 119.8 8.77362C120.874 8.77362 121.973 9.16574 122.656 9.97447C123.364 10.7832 123.682 12.0086 123.657 13.6506H118.286C118.286 14.2877 118.481 14.7779 118.799 15.1455C119.141 15.5131 119.556 15.6846 120.044 15.6846C120.532 15.6846 120.654 15.5866 120.898 15.4151C121.143 15.2435 121.289 14.9249 121.411 14.5328H121.387ZM121.509 12.3517C121.509 11.739 121.338 11.2488 121.021 10.9303C120.703 10.6117 120.337 10.4401 119.897 10.4401C119.458 10.4401 119.043 10.6117 118.726 10.9548C118.408 11.2979 118.262 11.7635 118.286 12.3517H121.509Z" fill="#1F3C88"/>
<path d="M132.837 17.106H130.835V15.9052C130.493 16.3708 130.103 16.7139 129.663 16.9345C129.224 17.1551 128.76 17.2776 128.296 17.2776C127.368 17.2776 126.563 16.91 125.903 16.1503C125.244 15.3905 124.902 14.3367 124.902 12.9888C124.902 11.6409 125.22 10.5626 125.879 9.8274C126.514 9.11669 127.344 8.74909 128.345 8.74909C129.346 8.74909 130.029 9.1167 130.688 9.87642V5.85724H132.837V17.106ZM127.1 12.8663C127.1 13.7486 127.222 14.3612 127.466 14.7534C127.808 15.317 128.296 15.5866 128.931 15.5866C129.565 15.5866 129.834 15.366 130.2 14.9494C130.542 14.5328 130.713 13.8956 130.713 13.0624C130.713 12.2291 130.542 11.4449 130.2 11.0528C129.858 10.6361 129.443 10.4401 128.906 10.4401C128.369 10.4401 127.979 10.6361 127.637 11.0528C127.295 11.4694 127.124 12.0576 127.124 12.8663H127.1Z" fill="#1F3C88"/>
<path d="M139.209 17.106V5.85724H141.357V9.90093C142.017 9.1412 142.798 8.77359 143.701 8.77359C144.604 8.77359 145.508 9.1412 146.167 9.85191C146.802 10.5626 147.144 11.5919 147.144 12.9398C147.144 14.2877 146.802 15.415 146.143 16.1503C145.483 16.91 144.678 17.2776 143.75 17.2776C142.822 17.2776 142.822 17.1551 142.383 16.9345C141.943 16.7139 141.553 16.3708 141.211 15.9052V17.106H139.209ZM141.333 12.8663C141.333 13.6995 141.455 14.3367 141.724 14.7288C142.09 15.2925 142.603 15.5866 143.213 15.5866C143.823 15.5866 144.092 15.3905 144.434 14.9739C144.775 14.5573 144.946 13.9201 144.946 13.0624C144.946 12.2046 144.775 11.4694 144.434 11.0528C144.092 10.6361 143.677 10.4401 143.14 10.4401C142.603 10.4401 142.187 10.6361 141.846 11.0528C141.504 11.4449 141.333 12.0576 141.333 12.8908V12.8663Z" fill="#1F3C88"/>
<path d="M147.852 8.96964H150.146L152.1 14.7533L154.004 8.96964H156.226L153.369 16.8119L152.856 18.2334C152.661 18.699 152.49 19.0666 152.319 19.3117C152.148 19.5567 151.953 19.7773 151.733 19.9244C151.514 20.0714 151.245 20.1939 150.928 20.292C150.61 20.39 150.244 20.4145 149.829 20.4145C149.414 20.4145 148.999 20.3655 148.608 20.292L148.413 18.601C148.755 18.6745 149.048 18.699 149.316 18.699C149.805 18.699 150.195 18.5519 150.415 18.2579C150.659 17.9638 150.83 17.5962 150.977 17.1305L147.876 8.94513L147.852 8.96964Z" fill="#1F3C88"/>
<path d="M82.1533 27.8157V29.5312H80.6885V32.8151C80.6885 33.4768 80.6885 33.869 80.7373 33.967C80.7617 34.065 80.835 34.163 80.9326 34.2366C81.0303 34.3101 81.1523 34.3346 81.2988 34.3346C81.4453 34.3346 81.7871 34.2611 82.1533 34.1385L82.3486 35.805C81.8603 36.0256 81.2744 36.1236 80.6396 36.1236C80.0049 36.1236 79.9072 36.0501 79.5898 35.9276C79.2725 35.805 79.0527 35.6335 78.9063 35.4129C78.7598 35.2168 78.6621 34.9228 78.6133 34.5797C78.5645 34.3346 78.54 33.8199 78.54 33.0602V29.5067H77.5635V27.7912H78.54V26.1737L80.6885 24.9238V27.7912H82.1533V27.8157Z" fill="#1F3C88"/>
<path d="M85.791 24.7278V28.8695C86.4746 28.0608 87.3047 27.6441 88.2812 27.6441C89.2578 27.6441 89.2334 27.7422 89.624 27.9137C90.0146 28.0853 90.332 28.3303 90.5273 28.6244C90.7227 28.9185 90.8691 29.2371 90.9424 29.5802C91.0156 29.9233 91.0645 30.4625 91.0645 31.1977V35.9766H88.916V31.6633C88.916 30.8056 88.8672 30.2664 88.7939 30.0458C88.7207 29.8253 88.5742 29.6292 88.3545 29.5067C88.1348 29.3596 87.8906 29.3106 87.5732 29.3106C87.2559 29.3106 86.8896 29.4087 86.6211 29.5802C86.3525 29.7518 86.1328 30.0213 86.0107 30.3644C85.8887 30.7075 85.8154 31.2222 85.8154 31.9084V36.0011H83.667V24.7523H85.8154L85.791 24.7278Z" fill="#1F3C88"/>
<path d="M97.9004 33.3788L100.049 33.7464C99.7803 34.5307 99.3408 35.1433 98.7549 35.5355C98.1689 35.9521 97.4121 36.1481 96.5332 36.1481C95.1172 36.1481 94.0674 35.6825 93.4082 34.7512C92.8711 34.016 92.6025 33.0847 92.6025 31.9329C92.6025 30.7811 92.9443 29.5312 93.6523 28.7715C94.3604 28.0117 95.2393 27.6196 96.3135 27.6196C97.3877 27.6196 98.4863 28.0117 99.1699 28.8205C99.8779 29.6292 100.195 30.8546 100.171 32.4966H94.7998C94.7998 33.1337 94.9951 33.6239 95.3125 33.9915C95.6543 34.3591 96.0693 34.5307 96.5576 34.5307C97.0459 34.5307 97.168 34.4326 97.4121 34.2611C97.6563 34.0895 97.8027 33.7709 97.9248 33.3788H97.9004ZM98.0225 31.1977C98.0225 30.585 97.8516 30.0949 97.5342 29.7763C97.2168 29.4577 96.8506 29.2861 96.4111 29.2861C95.9717 29.2861 95.5566 29.4577 95.2393 29.8008C94.9219 30.1439 94.7754 30.6095 94.7998 31.1977H98.0225Z" fill="#1F3C88"/>
<path d="M106.274 35.9766V24.7278H114.575V26.6393H108.521V29.1391H114.136V31.0261H108.521V34.0895H114.771V35.9766H106.25H106.274Z" fill="#1F3C88"/>
<path d="M122.046 35.9766V34.7512C121.753 35.1923 121.362 35.5354 120.874 35.7805C120.386 36.0256 119.873 36.1481 119.336 36.1481C118.799 36.1481 118.311 36.0256 117.871 35.7805C117.432 35.5354 117.114 35.1923 116.919 34.7757C116.724 34.3346 116.626 33.7464 116.626 32.9622V27.8157H118.774V31.5653C118.774 32.7171 118.823 33.4033 118.896 33.6729C118.97 33.9425 119.116 34.1385 119.336 34.2856C119.556 34.4326 119.8 34.5061 120.142 34.5061C120.483 34.5061 120.825 34.4081 121.118 34.2121C121.411 34.016 121.606 33.7709 121.704 33.4523C121.802 33.1582 121.875 32.423 121.875 31.2467V27.8157H124.023V35.9766H122.021H122.046Z" fill="#1F3C88"/>
<path d="M128.32 35.9766H126.172V27.8157H128.174V28.9675C128.516 28.4284 128.833 28.0608 129.102 27.8892C129.37 27.7177 129.687 27.6196 130.029 27.6196C130.371 27.6196 130.981 27.7667 131.445 28.0363L130.786 29.9233C130.42 29.6782 130.078 29.5802 129.785 29.5802C129.492 29.5802 129.224 29.6537 129.028 29.8253C128.809 29.9968 128.662 30.2909 128.54 30.732C128.418 31.1732 128.369 32.0799 128.369 33.4523V35.9766H128.32Z" fill="#1F3C88"/>
<path d="M131.86 31.7859C131.86 31.0751 132.031 30.3889 132.397 29.7027C132.739 29.041 133.252 28.5264 133.887 28.1588C134.521 27.8157 135.254 27.6196 136.06 27.6196C137.28 27.6196 138.306 28.0117 139.087 28.8205C139.868 29.6292 140.259 30.634 140.259 31.8594C140.259 33.0847 139.868 34.114 139.062 34.9228C138.281 35.7315 137.28 36.1481 136.06 36.1481C134.839 36.1481 134.595 35.9766 133.936 35.6335C133.252 35.2904 132.739 34.8002 132.397 34.1385C132.056 33.4768 131.86 32.6926 131.86 31.7613V31.7859ZM134.058 31.9084C134.058 32.7171 134.253 33.3298 134.619 33.7709C134.985 34.2121 135.474 34.4081 136.035 34.4081C136.597 34.4081 137.061 34.1876 137.451 33.7709C137.842 33.3298 138.013 32.7171 138.013 31.9084C138.013 31.0997 137.817 30.487 137.451 30.0703C137.061 29.6292 136.597 29.4332 136.035 29.4332C135.474 29.4332 135.01 29.6537 134.619 30.0703C134.229 30.487 134.058 31.1242 134.058 31.9329V31.9084Z" fill="#1F3C88"/>
<path d="M141.87 27.8157H143.872V29.0165C144.141 28.5999 144.482 28.2813 144.922 28.0117C145.361 27.7667 145.85 27.6196 146.387 27.6196C147.339 27.6196 148.12 27.9872 148.779 28.7225C149.438 29.4577 149.756 30.487 149.756 31.8349C149.756 33.1828 149.414 34.2611 148.755 34.9963C148.096 35.756 147.29 36.1236 146.338 36.1236C145.386 36.1236 145.483 36.0256 145.117 35.854C144.751 35.6825 144.36 35.3639 143.97 34.9228V39.04H141.821V27.7912L141.87 27.8157ZM143.994 31.7613C143.994 32.6681 144.165 33.3543 144.531 33.7954C144.897 34.2366 145.337 34.4571 145.85 34.4571C146.362 34.4571 146.753 34.2611 147.095 33.8445C147.437 33.4523 147.583 32.7906 147.583 31.8594C147.583 30.9281 147.412 30.3644 147.07 29.9478C146.729 29.5312 146.313 29.3351 145.801 29.3351C145.288 29.3351 144.849 29.5312 144.482 29.9478C144.141 30.3644 143.97 30.9526 143.97 31.7613H143.994Z" fill="#1F3C88"/>
<path d="M156.201 33.3788L158.35 33.7464C158.081 34.5307 157.642 35.1433 157.056 35.5355C156.47 35.9521 155.713 36.1481 154.834 36.1481C153.418 36.1481 152.368 35.6825 151.709 34.7512C151.172 34.016 150.903 33.0847 150.903 31.9329C150.903 30.7811 151.245 29.5312 151.953 28.7715C152.661 28.0117 153.54 27.6196 154.614 27.6196C155.688 27.6196 156.787 28.0117 157.471 28.8205C158.179 29.6292 158.496 30.8546 158.472 32.4966H153.101C153.101 33.1337 153.296 33.6239 153.613 33.9915C153.955 34.3591 154.37 34.5307 154.858 34.5307C155.347 34.5307 155.469 34.4326 155.713 34.2611C155.957 34.0895 156.104 33.7709 156.226 33.3788H156.201ZM156.323 31.1977C156.323 30.585 156.152 30.0949 155.835 29.7763C155.518 29.4577 155.151 29.2861 154.712 29.2861C154.272 29.2861 153.857 29.4577 153.54 29.8008C153.223 30.1439 153.076 30.6095 153.101 31.1977H156.323Z" fill="#1F3C88"/>
<path d="M161.816 30.3154L159.863 29.9723C160.083 29.1881 160.449 28.5999 160.986 28.2323C161.523 27.8647 162.305 27.6686 163.379 27.6686C164.453 27.6686 165.039 27.7912 165.527 28.0117C165.991 28.2323 166.333 28.5264 166.528 28.8695C166.724 29.2126 166.821 29.8743 166.821 30.8056V33.3298C166.821 34.0405 166.821 34.5797 166.895 34.9228C166.968 35.2659 167.09 35.6335 167.285 36.0256H165.161C165.112 35.8785 165.039 35.658 164.966 35.3884C164.941 35.2659 164.893 35.1678 164.893 35.1433C164.526 35.5109 164.136 35.7805 163.721 35.9521C163.306 36.1236 162.866 36.2217 162.378 36.2217C161.548 36.2217 160.889 36.0011 160.4 35.5354C159.912 35.0698 159.668 34.5061 159.668 33.8199C159.668 33.1337 159.79 32.9377 159.985 32.5946C160.205 32.227 160.522 31.9574 160.913 31.7613C161.304 31.5653 161.89 31.3937 162.622 31.2467C163.623 31.0506 164.331 30.8791 164.697 30.7075V30.487C164.697 30.0703 164.6 29.7763 164.38 29.6047C164.185 29.4332 163.794 29.3351 163.232 29.3351C162.671 29.3351 162.549 29.4087 162.329 29.5557C162.109 29.7027 161.938 29.9723 161.816 30.3399V30.3154ZM164.697 32.0554C164.429 32.1535 163.989 32.2515 163.379 32.374C162.769 32.4966 162.402 32.6191 162.207 32.7416C161.938 32.9377 161.792 33.1828 161.792 33.5014C161.792 33.8199 161.914 34.065 162.134 34.2856C162.354 34.5061 162.646 34.6042 162.988 34.6042C163.33 34.6042 163.745 34.4816 164.087 34.2121C164.355 34.016 164.526 33.7709 164.6 33.5014C164.648 33.3053 164.673 32.9622 164.673 32.4475V32.0064L164.697 32.0554Z" fill="#1F3C88"/>
<path d="M176.294 35.9766H174.146V31.8104C174.146 30.9281 174.097 30.3644 173.999 30.0949C173.901 29.8253 173.755 29.6292 173.56 29.4822C173.34 29.3351 173.096 29.2616 172.803 29.2616C172.51 29.2616 172.095 29.3596 171.802 29.5802C171.509 29.8008 171.313 30.0458 171.191 30.3889C171.069 30.732 171.021 31.3447 171.021 32.2515V35.9521H168.872V27.7912H170.874V28.992C171.582 28.0608 172.485 27.6196 173.56 27.6196C174.634 27.6196 174.463 27.7177 174.854 27.8892C175.244 28.0608 175.537 28.2813 175.732 28.5509C175.928 28.8205 176.074 29.1146 176.147 29.4577C176.221 29.8008 176.27 30.2909 176.27 30.9036V35.9766H176.294Z" fill="#1F3C88"/>
<path d="M182.837 24.7278H185.107V30.8301C185.107 31.7859 185.132 32.423 185.181 32.7171C185.278 33.1828 185.498 33.5504 185.864 33.82C186.23 34.0895 186.719 34.2366 187.354 34.2366C187.988 34.2366 188.477 34.114 188.818 33.8445C189.136 33.5749 189.331 33.2563 189.404 32.8642C189.478 32.4721 189.502 31.8349 189.502 30.9526V24.7278H191.772V30.634C191.772 31.9819 191.699 32.9377 191.577 33.5014C191.455 34.065 191.235 34.5307 190.894 34.9228C190.552 35.3149 190.112 35.609 189.575 35.8295C189.014 36.0501 188.306 36.1726 187.427 36.1726C186.548 36.1726 185.547 36.0501 184.985 35.805C184.424 35.56 183.984 35.2414 183.667 34.8493C183.35 34.4571 183.13 34.0405 183.032 33.5994C182.886 32.9622 182.812 32.0064 182.812 30.7566V24.7523L182.837 24.7278Z" fill="#1F3C88"/>
<path d="M201.514 35.9766H199.365V31.8104C199.365 30.9281 199.316 30.3644 199.219 30.0949C199.121 29.8253 198.975 29.6292 198.779 29.4822C198.56 29.3351 198.315 29.2616 198.022 29.2616C197.729 29.2616 197.314 29.3596 197.021 29.5802C196.729 29.8008 196.533 30.0458 196.411 30.3889C196.289 30.732 196.24 31.3447 196.24 32.2515V35.9521H194.092V27.7912H196.094V28.992C196.802 28.0608 197.705 27.6196 198.779 27.6196C199.854 27.6196 199.683 27.7177 200.073 27.8892C200.464 28.0608 200.757 28.2813 200.952 28.5509C201.147 28.8205 201.294 29.1146 201.367 29.4577C201.44 29.8008 201.489 30.2909 201.489 30.9036V35.9766H201.514Z" fill="#1F3C88"/>
<path d="M203.711 26.7129V24.7278H205.859V26.7129H203.711ZM203.711 35.9766V27.8157H205.859V35.9766H203.711Z" fill="#1F3C88"/>
<path d="M207.544 31.7859C207.544 31.0751 207.715 30.3889 208.081 29.7027C208.423 29.041 208.936 28.5264 209.57 28.1588C210.205 27.8157 210.938 27.6196 211.743 27.6196C212.964 27.6196 213.989 28.0117 214.771 28.8205C215.552 29.6292 215.942 30.634 215.942 31.8594C215.942 33.0847 215.552 34.114 214.746 34.9228C213.965 35.7315 212.964 36.1481 211.743 36.1481C210.522 36.1481 210.278 35.9766 209.619 35.6335C208.936 35.2904 208.423 34.8002 208.081 34.1385C207.739 33.4768 207.544 32.6926 207.544 31.7613V31.7859ZM209.741 31.9084C209.741 32.7171 209.937 33.3298 210.303 33.7709C210.669 34.2121 211.157 34.4081 211.719 34.4081C212.28 34.4081 212.744 34.1876 213.135 33.7709C213.525 33.3298 213.696 32.7171 213.696 31.9084C213.696 31.0997 213.501 30.487 213.135 30.0703C212.744 29.6292 212.28 29.4332 211.719 29.4332C211.157 29.4332 210.693 29.6537 210.303 30.0703C209.912 30.487 209.741 31.1242 209.741 31.9329V31.9084Z" fill="#1F3C88"/>
<path d="M225 35.9766H222.852V31.8104C222.852 30.9281 222.803 30.3644 222.705 30.0949C222.607 29.8253 222.461 29.6292 222.266 29.4822C222.046 29.3351 221.802 29.2616 221.509 29.2616C221.216 29.2616 220.801 29.3596 220.508 29.5802C220.215 29.8008 220.02 30.0458 219.897 30.3889C219.775 30.732 219.727 31.3447 219.727 32.2515V35.9521H217.578V27.7912H219.58V28.992C220.288 28.0608 221.191 27.6196 222.266 27.6196C223.34 27.6196 223.169 27.7177 223.56 27.8892C223.95 28.0608 224.243 28.2813 224.438 28.5509C224.634 28.8205 224.78 29.1146 224.854 29.4577C224.927 29.8008 224.976 30.2909 224.976 30.9036V35.9766H225Z" fill="#1F3C88"/>
<path d="M68.75 0H0V46H68.75V0Z" fill="#164194"/>
<path d="M32.9102 10.0234L34.3506 8.96961L35.8154 10.0234L35.2539 8.30792L36.7187 7.25411H34.9121L34.3506 5.5141L33.8135 7.25411H31.9824L33.4473 8.30792L32.9102 10.0234Z" fill="#F9E925"/>
<path d="M25.3906 12.0575L26.8555 10.9792L28.2959 12.0575L27.7588 10.3175L29.2236 9.26369H27.417L26.8555 7.52368L26.2939 9.26369H24.4873L25.9521 10.3175L25.3906 12.0575Z" fill="#F9E925"/>
<path d="M21.3623 13.0623L20.8008 14.8023H18.9941L20.459 15.8561L19.8975 17.5716L21.3623 16.5178L22.8027 17.5716L22.2656 15.8561L23.7305 14.8023H21.9238L21.3623 13.0623Z" fill="#F9E925"/>
<path d="M19.3359 24.0416L20.8008 25.0954L20.2393 23.3799L21.7041 22.3261H19.8975L19.3359 20.5861L18.7988 22.3261H16.9678L18.457 23.3799L17.8955 25.0954L19.3359 24.0416Z" fill="#F9E925"/>
<path d="M21.9238 29.8743L21.3623 28.1343L20.8008 29.8743H18.9941L20.459 30.9281L19.8975 32.6436L21.3623 31.5898L22.8027 32.6436L22.2656 30.9281L23.7305 29.8743H21.9238Z" fill="#F9E925"/>
<path d="M27.417 35.3884L26.8555 33.6484L26.2939 35.3884H24.4873L25.9521 36.4422L25.415 38.1822L26.8555 37.1039L28.3203 38.1822L27.7588 36.4422L29.2236 35.3884H27.417Z" fill="#F9E925"/>
<path d="M34.9121 37.398L34.3506 35.658L33.8135 37.398H31.9824L33.4717 38.4518L32.9102 40.1673L34.3506 39.1135L35.8154 40.1673L35.2539 38.4518L36.7187 37.398H34.9121Z" fill="#F9E925"/>
<path d="M42.4072 35.3884L41.8457 33.6484L41.3086 35.3884H39.4775L40.9668 36.4422L40.4053 38.1822L41.8457 37.1039L43.3105 38.1822L42.749 36.4422L44.2383 35.3884H42.4072Z" fill="#F9E925"/>
<path d="M47.9248 29.8743L47.3633 28.1343L46.8018 29.8743H44.9951L46.46 30.9281L45.8984 32.6436L47.3633 31.5898L48.8037 32.6436L48.2666 30.9281L49.7314 29.8743H47.9248Z" fill="#F9E925"/>
<path d="M51.7334 22.3015H49.9023L49.3408 20.5615L48.8037 22.3015H46.9727L48.4619 23.3553L47.9004 25.0708L49.3408 24.017L50.8057 25.0708L50.2441 23.3553L51.7334 22.3015Z" fill="#F9E925"/>
<path d="M45.8984 17.5472L47.3633 16.4934L48.8037 17.5472L48.2666 15.8317L49.7314 14.7779H47.9248L47.3633 13.0378L46.8018 14.7779H44.9951L46.46 15.8317L45.8984 17.5472Z" fill="#F9E925"/>
<path d="M41.8701 7.52368L41.333 9.26369H39.502L40.9668 10.342L40.4297 12.0575L41.8701 10.9792L43.335 12.0575L42.7734 10.342L44.2383 9.26369H42.4316L41.8701 7.52368Z" fill="#F9E925"/>
</g>
<defs>
<clipPath id="clip0_215_4772">
<rect width="225" height="46" fill="white"/>
</clipPath>
</defs>
</svg>
