<svg width="278" height="278" viewBox="0 0 278 278" fill="none" xmlns="http://www.w3.org/2000/svg">
<g clip-path="url(#clip0_109_16338)">
<path d="M127.908 76.4618C127.436 76.4618 126.964 75.5178 126.964 75.0458L150.563 0.943973C150.563 0.471986 151.507 0 151.979 0C152.451 0 152.923 0.943973 152.923 1.41596L129.324 75.5178C129.324 75.9898 128.852 76.4618 128.38 76.4618H127.908Z" fill="#41B6E6"/>
<path d="M139.236 75.5179C139.236 75.5179 139.236 75.5179 138.764 75.5179C138.292 75.5179 137.82 74.5739 138.292 74.1019L175.107 5.1919C175.107 4.71992 176.051 4.24793 176.523 4.71992C176.995 4.71992 177.467 5.66389 176.995 6.13588L140.652 74.5739C140.652 74.5739 140.18 75.0459 139.708 75.0459L139.236 75.5179Z" fill="#41B6E6"/>
<path d="M151.035 76.4617C151.035 76.4617 150.563 76.4617 150.091 76.4617C149.619 76.4617 149.619 75.5177 150.091 74.5737L198.234 13.6875C198.234 13.2155 199.178 13.2155 200.122 13.6875C200.594 13.6875 200.594 14.6315 200.122 15.5754L151.979 76.4617C151.979 76.4617 151.507 76.4617 151.035 76.4617Z" fill="#41B6E6"/>
<path d="M161.891 79.7656C161.891 79.7656 161.419 79.7656 160.947 79.7656C160.947 79.2936 160.947 78.3497 160.947 77.8777L219.474 26.4312C219.946 26.4312 220.89 26.4312 221.362 26.4312C221.362 26.9031 221.362 27.8471 221.362 28.3191L162.835 79.7656C162.835 79.7656 162.363 79.7656 161.891 79.7656Z" fill="#41B6E6"/>
<path d="M172.275 84.9575C172.275 84.9575 171.331 84.9575 171.331 84.4855C171.331 84.0135 171.331 83.0695 171.331 83.0695L237.881 42.9507C238.353 42.9507 239.297 42.9507 239.297 42.9507C239.297 43.4227 239.297 44.3666 239.297 44.3666L172.747 84.4855C172.747 84.4855 172.747 84.4855 172.275 84.4855V84.9575Z" fill="#41B6E6"/>
<path d="M181.714 91.5653C181.242 91.5653 180.771 91.5653 180.771 90.6213C180.771 90.1493 180.771 89.2053 181.243 89.2053L253.928 61.3582C254.4 61.3582 255.344 61.3582 255.344 61.8301C255.344 62.3021 255.344 63.2461 254.872 63.2461L182.186 91.0933L181.714 91.5653Z" fill="#41B6E6"/>
<path d="M189.739 100.061C189.267 100.061 188.795 100.061 188.795 99.1171C188.795 98.6451 188.795 97.7011 189.739 97.7011L266.201 83.5415C266.673 83.5415 267.617 83.5415 267.617 84.4855C267.617 84.9575 267.617 85.9014 266.673 85.9014L190.211 100.061H189.739Z" fill="#41B6E6"/>
<path d="M195.875 109.501C195.403 109.501 194.931 109.029 194.931 108.557C194.931 108.085 195.403 107.141 195.875 107.141H273.752C274.224 107.141 274.696 107.613 274.696 108.085C274.696 108.557 274.224 109.501 273.752 109.501H195.875Z" fill="#41B6E6"/>
<path d="M277.056 134.044L200.594 120.357C200.122 120.357 199.65 119.413 199.65 118.941C199.65 118.469 200.594 117.997 201.066 117.997L277.528 131.684C278 131.684 278.472 132.628 278.472 133.1C278.472 133.572 278 134.044 277.528 134.044H277.056Z" fill="#41B6E6"/>
<path d="M275.641 158.587L202.955 131.684C202.483 131.684 202.011 130.74 202.483 130.268C202.955 129.796 203.427 129.324 203.899 129.796L276.584 156.7C277.056 156.7 277.528 157.644 277.056 158.116C277.056 158.588 276.584 159.059 276.112 159.059L275.641 158.587Z" fill="#41B6E6"/>
<path d="M269.977 182.659C269.977 182.659 269.977 182.659 269.505 182.659L202.483 143.012C202.011 143.012 201.539 142.068 202.483 141.596C202.483 141.124 203.426 140.652 203.898 141.596L270.921 181.243C271.393 181.243 271.865 182.187 270.921 182.659C270.921 182.659 270.449 183.131 269.977 183.131V182.659Z" fill="#41B6E6"/>
<path d="M260.536 205.314C260.536 205.314 260.064 205.314 259.592 205.314L201.066 154.34C200.594 154.34 200.594 153.396 201.066 152.452C201.066 151.98 202.01 151.98 202.954 152.452L261.48 203.426C261.952 203.426 261.952 204.37 261.48 205.314C261.48 205.314 261.008 205.314 260.536 205.314Z" fill="#41B6E6"/>
<path d="M246.849 226.082C246.849 226.082 246.377 226.082 245.905 226.082L197.29 165.667C197.29 165.195 197.29 164.251 197.29 163.779C197.29 163.307 198.706 163.779 199.178 163.779L247.793 224.194C247.793 224.666 247.793 225.61 247.793 226.082C247.793 226.082 247.321 226.082 246.849 226.082Z" fill="#41B6E6"/>
<path d="M229.385 244.017C229.385 244.017 228.441 244.017 228.441 243.545L191.154 175.107C191.154 174.635 191.154 173.691 191.626 173.691C192.098 173.691 193.042 173.691 193.042 174.163L230.329 242.601C230.329 243.073 230.329 244.017 229.857 244.017C229.857 244.017 229.857 244.017 229.385 244.017Z" fill="#41B6E6"/>
<path d="M209.561 258.177C209.09 258.177 208.618 258.177 208.618 257.233L184.074 183.603C184.074 183.131 184.074 182.187 185.018 182.187C185.49 182.187 186.434 182.187 186.434 183.131L210.977 256.761C210.977 257.233 210.977 258.177 210.033 258.177H209.561Z" fill="#41B6E6"/>
<path d="M187.379 269.032C186.907 269.032 186.435 269.032 186.435 268.088L175.579 191.154C175.579 190.682 175.579 189.739 176.523 189.739C176.995 189.739 177.939 189.739 177.939 190.683L188.795 267.616C188.795 268.088 188.795 269.032 187.851 269.032H187.379Z" fill="#41B6E6"/>
<path d="M163.307 275.64C162.835 275.64 162.363 275.168 162.363 274.224L165.667 196.346C165.667 195.874 166.139 195.402 167.083 195.402C167.555 195.402 168.027 195.874 168.027 196.818L164.723 274.696C164.723 275.168 164.251 275.64 163.779 275.64H163.307Z" fill="#41B6E6"/>
<path d="M138.764 278C138.292 278 137.82 277.056 137.82 276.584L154.812 200.594C154.812 200.122 155.756 199.65 156.228 199.65C156.7 199.65 157.172 200.594 157.172 201.066L140.18 277.056C140.18 277.528 139.708 278 139.236 278H138.764Z" fill="#41B6E6"/>
<path d="M114.22 275.64C113.748 275.64 113.276 274.696 113.748 274.224L143.955 202.482C143.955 202.01 144.899 201.538 145.371 202.01C145.843 202.01 146.315 202.954 145.843 203.426L115.636 275.168C115.636 275.168 115.164 276.112 114.692 276.112L114.22 275.64Z" fill="#41B6E6"/>
<path d="M90.1492 269.032C90.1492 269.032 90.1492 269.032 89.6772 269.032C89.2052 269.032 89.2052 268.088 89.6772 267.616L132.156 202.482C132.156 202.01 133.1 202.01 133.572 202.482C134.044 202.482 134.044 203.426 133.572 203.898L91.0932 269.032C91.0932 269.032 90.6212 269.504 90.1492 269.504V269.032Z" fill="#41B6E6"/>
<path d="M67.9659 258.177C67.9659 258.177 67.4939 258.177 67.022 258.177C66.55 258.177 66.55 256.761 67.022 256.289L120.356 199.65C120.356 199.65 121.772 199.178 122.244 199.65C122.716 199.65 122.716 201.066 122.244 201.538L68.9099 258.177C68.9099 258.177 68.4379 258.177 67.9659 258.177Z" fill="#41B6E6"/>
<path d="M48.1422 243.545C48.1422 243.545 47.1982 243.545 47.1982 243.073C47.1982 242.601 47.1982 241.657 47.1982 241.657L109.972 195.874C110.444 195.874 111.388 195.874 111.388 195.874C111.388 196.346 111.388 197.29 111.388 197.29L48.6142 243.073C48.6142 243.073 48.6142 243.073 48.1422 243.073V243.545Z" fill="#41B6E6"/>
<path d="M31.151 225.609C31.151 225.609 30.207 225.609 30.207 225.138C30.207 224.666 30.207 223.722 30.679 223.722L100.533 189.739C101.005 189.739 101.949 189.739 101.949 190.211C101.949 190.682 101.949 191.626 101.477 191.626L31.623 225.609C31.623 225.609 31.623 225.609 31.151 225.609Z" fill="#41B6E6"/>
<path d="M17.4635 204.842C16.9915 204.842 16.5195 204.842 16.5195 203.898C16.5195 203.426 16.5195 202.482 17.4635 202.482L92.5093 181.715C92.9813 181.715 93.9253 181.715 93.9253 182.659C93.9253 183.131 93.9253 184.075 92.9813 184.075L17.9355 204.842H17.4635Z" fill="#41B6E6"/>
<path d="M7.55139 182.187C7.07941 182.187 6.60742 182.187 6.60742 181.243C6.60742 180.771 6.60742 179.827 7.55139 179.827L84.9572 172.747C85.4292 172.747 86.3731 172.747 86.3731 173.691C86.3731 174.163 86.3731 175.107 85.4292 175.107L8.02338 182.187H7.55139Z" fill="#41B6E6"/>
<path d="M79.7658 164.723L2.35999 158.116C1.888 158.116 1.41602 157.644 1.41602 156.7C1.41602 156.228 1.888 155.756 2.83197 155.756L80.2377 162.363C80.7097 162.363 81.1817 162.835 81.1817 163.779C81.1817 164.251 80.7097 164.723 80.2377 164.723H79.7658Z" fill="#41B6E6"/>
<path d="M75.9898 153.868L0.943973 133.1C0.471986 133.1 0 132.156 0 131.684C0 131.212 0.943973 130.74 1.41596 130.74L76.4618 151.036C76.9338 151.036 77.4058 151.98 77.4058 152.452C77.4058 152.924 76.9338 153.396 76.4618 153.396L75.9898 153.868Z" fill="#41B6E6"/>
<path d="M74.5735 142.068C74.5735 142.068 74.5735 142.068 74.1016 142.068L4.24757 108.557C3.77558 108.557 3.30359 107.613 3.77558 107.141C3.77558 106.669 4.71955 106.197 5.19154 106.669L75.5175 140.18C75.9895 140.18 76.4615 141.124 75.9895 141.596C75.9895 141.596 75.5175 142.068 75.0455 142.068H74.5735Z" fill="#41B6E6"/>
<path d="M75.0458 130.74L11.3276 84.9574C10.8556 84.9574 10.8556 84.0135 11.3276 83.5415C11.3276 83.0695 12.2716 83.0695 12.7436 83.5415L75.9898 128.852C76.4617 128.852 76.4617 129.796 75.9898 130.268C75.9898 130.268 75.5178 130.74 75.0458 130.74Z" fill="#41B6E6"/>
<path d="M77.8774 119.412C77.8774 119.412 77.4054 119.412 76.9334 119.412L23.127 63.2461C23.127 63.2461 23.127 61.8301 23.127 61.3582C23.5989 61.3582 24.5429 61.3582 25.0149 61.3582L78.8214 117.525C78.8214 117.525 78.8214 118.94 78.8214 119.412C78.8214 119.412 78.3494 119.412 77.8774 119.412Z" fill="#41B6E6"/>
<path d="M82.5979 109.029C82.5979 109.029 81.6539 109.029 81.6539 108.557L38.7031 43.8947C38.7031 43.4227 38.7031 42.4788 38.7031 42.4788H40.1191L83.0699 107.141C83.0699 107.613 83.0699 108.557 83.0699 108.557C83.0699 108.557 83.0699 108.557 82.5979 108.557V109.029Z" fill="#41B6E6"/>
<path d="M89.2054 99.1171C89.2054 99.1171 88.2615 99.1171 88.2615 98.1731L57.1104 27.3752C57.1104 26.9032 57.1103 25.9592 57.5823 25.9592C58.0543 25.9592 58.9983 25.9592 58.9983 26.4312L89.6774 97.7012C89.6774 98.1731 89.6774 99.1171 89.2054 99.1171Z" fill="#41B6E6"/>
<path d="M97.2291 91.0933C96.7571 91.0933 96.2851 91.0933 96.2851 90.1494L78.3496 14.6315C78.3496 14.1595 78.3496 13.2156 79.2936 13.2156C79.7656 13.2156 80.7095 13.2156 80.7095 14.1595L98.173 89.6774C98.173 90.1494 98.173 91.0933 97.2291 91.0933Z" fill="#41B6E6"/>
<path d="M106.197 84.4857C105.725 84.4857 105.253 84.0137 105.253 83.5417L101.478 6.13593C101.478 5.66394 101.478 4.71997 102.422 4.71997C103.365 4.71997 103.837 4.71997 103.837 5.66394L107.613 83.0697C107.613 83.5417 107.613 84.4857 106.669 84.4857H106.197Z" fill="#41B6E6"/>
<path d="M117.052 79.2937C116.58 79.2937 116.108 78.8217 116.108 77.8778L125.548 0.943973C125.548 0.471986 126.02 0 126.964 0C127.436 0 127.908 0.471986 127.908 1.41596L117.996 78.3497C117.996 78.8217 117.524 79.2937 117.052 79.2937Z" fill="#41B6E6"/>
<path d="M127.908 76.4618C127.436 76.4618 126.964 75.5178 126.964 75.0458L150.563 0.943973C150.563 0.471986 151.507 0 151.979 0C152.451 0 152.923 0.943973 152.923 1.41596L129.324 75.5178C129.324 75.9898 128.852 76.4618 128.38 76.4618H127.908Z" fill="#41B6E6"/>
</g>
<defs>
<clipPath id="clip0_109_16338">
<rect width="278" height="278" fill="white"/>
</clipPath>
</defs>
</svg>
