<?xml version="1.0" encoding="UTF-8" standalone="no"?><!DOCTYPE svg PUBLIC "-//W3C//DTD SVG 1.1//EN" "http://www.w3.org/Graphics/SVG/1.1/DTD/svg11.dtd"><svg width="100%" height="100%" viewBox="0 0 32 32" version="1.1" xmlns="http://www.w3.org/2000/svg" xmlns:xlink="http://www.w3.org/1999/xlink" xml:space="preserve" xmlns:serif="http://www.serif.com/" style="fill-rule:evenodd;clip-rule:evenodd;stroke-linejoin:round;stroke-miterlimit:2;"><rect x="0" y="0" width="32" height="32" style="fill:#133293;"/><g><path d="M9.864,9.327c0.866,-0 1.568,-0.705 1.568,-1.575c-0,-0.87 -0.702,-1.575 -1.568,-1.575c-0.867,0 -1.569,0.705 -1.569,1.575c0,0.87 0.702,1.575 1.569,1.575Z" style="fill:#fff;fill-rule:nonzero;"/><path d="M22.151,9.8c0.059,0.059 0.141,0.083 0.212,0.083c0.071,0 0.165,-0.035 0.224,-0.095l1.816,-1.929c0.118,-0.131 0.118,-0.32 -0,-0.439c-0.13,-0.118 -0.319,-0.118 -0.436,0l-1.816,1.93c-0.118,0.131 -0.118,0.32 -0,0.438l-0,0.012Z" style="fill:#fff;fill-rule:nonzero;"/><path d="M23.2,10.996c0.059,0.083 0.153,0.13 0.248,0.13c0.094,0 0.129,-0.023 0.188,-0.059l2.135,-1.563c0.141,-0.106 0.165,-0.296 0.07,-0.438c-0.106,-0.142 -0.294,-0.166 -0.436,-0.071l-2.134,1.563c-0.142,0.107 -0.165,0.296 -0.071,0.438Z" style="fill:#fff;fill-rule:nonzero;"/><path d="M20.912,8.818c0.048,0.035 0.118,0.047 0.166,0.047c0.106,-0 0.2,-0.047 0.259,-0.142l1.45,-2.226c0.095,-0.142 0.059,-0.343 -0.094,-0.438c-0.141,-0.095 -0.342,-0.059 -0.436,0.095l-1.451,2.225c-0.094,0.143 -0.059,0.344 0.095,0.439l0.011,-0Z" style="fill:#fff;fill-rule:nonzero;"/><path d="M24.851,15.389c0.012,0.166 0.153,0.284 0.307,0.284c0.153,0 0.023,0 0.023,0l2.63,-0.249c0.177,-0.011 0.295,-0.165 0.283,-0.343c-0.012,-0.178 -0.165,-0.296 -0.342,-0.284l-2.63,0.249c-0.177,0.011 -0.295,0.165 -0.283,0.343l0.012,-0Z" style="fill:#fff;fill-rule:nonzero;"/><path d="M18.024,7.586l0.07,0c0.142,0 0.271,-0.095 0.307,-0.248l0.578,-2.593c0.035,-0.166 -0.071,-0.332 -0.236,-0.379c-0.165,-0.036 -0.33,0.071 -0.378,0.236l-0.577,2.593c-0.036,0.166 0.07,0.332 0.236,0.379l-0,0.012Z" style="fill:#fff;fill-rule:nonzero;"/><path d="M24.014,12.346c0.059,0.106 0.165,0.177 0.283,0.177c0.118,0 0.094,0 0.141,-0.035l2.382,-1.16c0.153,-0.071 0.224,-0.261 0.142,-0.415c-0.071,-0.154 -0.26,-0.225 -0.413,-0.142l-2.382,1.16c-0.153,0.072 -0.224,0.261 -0.142,0.415l-0.011,-0Z" style="fill:#fff;fill-rule:nonzero;"/><path d="M24.568,13.826c0.035,0.142 0.165,0.225 0.295,0.225c0.129,0 0.059,0 0.082,0l2.547,-0.71c0.165,-0.048 0.26,-0.225 0.212,-0.391c-0.047,-0.166 -0.224,-0.261 -0.389,-0.213l-2.547,0.71c-0.165,0.047 -0.259,0.225 -0.212,0.391l0.012,-0.012Z" style="fill:#fff;fill-rule:nonzero;"/><path d="M19.521,8.072c0.035,0.012 0.083,0.023 0.118,0.023c0.118,0 0.236,-0.071 0.283,-0.189l1.026,-2.439c0.071,-0.154 -0,-0.343 -0.165,-0.414c-0.154,-0.072 -0.342,-0 -0.413,0.165l-1.026,2.439c-0.071,0.154 0,0.344 0.165,0.415l0.012,-0Z" style="fill:#fff;fill-rule:nonzero;"/><path d="M27.516,19.012l-2.547,-0.699c-0.165,-0.047 -0.342,0.048 -0.389,0.225c-0.047,0.166 0.047,0.344 0.224,0.391l2.547,0.699l0.082,-0c0.142,-0 0.26,-0.095 0.307,-0.237c0.047,-0.166 -0.047,-0.344 -0.224,-0.391l-0,0.012Z" style="fill:#fff;fill-rule:nonzero;"/><path d="M16.443,7.385l0.024,-0c0.165,-0 0.307,-0.13 0.307,-0.296l0.106,-2.652c-0,-0.178 -0.13,-0.32 -0.295,-0.332c-0.177,0 -0.319,0.13 -0.33,0.296l-0.106,2.652c-0,0.178 0.129,0.32 0.294,0.332Z" style="fill:#fff;fill-rule:nonzero;"/><path d="M26.832,21.013l-2.382,-1.148c-0.153,-0.072 -0.342,-0 -0.413,0.153c-0.07,0.154 0,0.344 0.154,0.415l2.382,1.148c0.047,0.024 0.094,0.036 0.129,0.036c0.118,-0 0.224,-0.071 0.283,-0.178c0.071,-0.154 0,-0.343 -0.153,-0.414l-0,-0.012Z" style="fill:#fff;fill-rule:nonzero;"/><path d="M27.834,16.916l-2.629,-0.225c-0.177,-0.012 -0.319,0.119 -0.342,0.284c-0.012,0.178 0.118,0.32 0.283,0.344l2.629,0.225l0.024,-0c0.165,-0 0.295,-0.119 0.307,-0.284c0.011,-0.178 -0.118,-0.32 -0.284,-0.344l0.012,0Z" style="fill:#fff;fill-rule:nonzero;"/><path d="M22.292,22.375c-1.509,1.515 -3.514,2.427 -5.648,2.569c-2.347,0.154 -4.622,-0.616 -6.391,-2.179c-1.769,-1.563 -2.83,-3.718 -2.984,-6.074c-0.165,-2.569 0.767,-5.032 2.547,-6.82c-1.025,-0.023 -1.91,-0.805 -2.04,-1.859c-0.023,-0.177 -0.011,-0.367 0,-0.544c-2.535,2.451 -3.879,5.873 -3.643,9.436c0.212,3.197 1.651,6.122 4.044,8.229c2.194,1.93 4.965,2.972 7.854,2.972c2.889,0 0.53,0 0.802,-0.023c2.889,-0.19 5.612,-1.433 7.652,-3.481c0.614,-0.616 0.614,-1.611 0,-2.215c-0.613,-0.615 -1.603,-0.615 -2.205,0l0.012,-0.011Z" style="fill:#fff;fill-rule:nonzero;"/><path d="M14.84,7.468l0.047,-0c0.165,-0.024 0.295,-0.178 0.271,-0.355l-0.365,-2.629c-0.024,-0.178 -0.189,-0.296 -0.354,-0.272c-0.165,0.023 -0.295,0.177 -0.271,0.355l0.365,2.628c0.024,0.154 0.153,0.273 0.307,0.273Z" style="fill:#fff;fill-rule:nonzero;"/><path d="M12.953,7.622c0.047,0.13 0.165,0.213 0.295,0.213c0.13,-0 0.071,-0 0.094,-0.012c0.165,-0.059 0.248,-0.237 0.201,-0.391l-0.826,-2.522c-0.059,-0.165 -0.224,-0.26 -0.389,-0.201c-0.165,0.059 -0.248,0.237 -0.2,0.391l0.825,2.522Z" style="fill:#fff;fill-rule:nonzero;"/><path d="M15.995,22.481c0.619,0 1.121,-0.503 1.121,-1.125c-0,-0.621 -0.502,-1.124 -1.121,-1.124c-0.618,-0 -1.12,0.503 -1.12,1.124c0,0.622 0.502,1.125 1.12,1.125Z" style="fill:#fff;fill-rule:nonzero;"/><path d="M13.13,19.332c-0.035,-0 -0.094,0.023 -0.153,0.082l-0.814,0.948c-0.059,0.059 -0.059,0.118 -0.059,0.165c0,0.036 0.024,0.095 0.083,0.154c0.059,0.06 0.118,0.06 0.165,0.06c0.035,-0 0.094,-0.024 0.141,-0.083l0.814,-0.948c0.059,-0.059 0.059,-0.118 0.059,-0.165c-0,-0.036 -0.024,-0.095 -0.083,-0.154c-0.059,-0.059 -0.118,-0.059 -0.165,-0.059l0.012,-0Z" style="fill:#fff;fill-rule:nonzero;"/><path d="M11.809,17.189c-0.047,-0.131 -0.165,-0.19 -0.283,-0.143l-1.191,0.403c-0.082,0.024 -0.118,0.071 -0.129,0.107c-0.024,0.035 -0.036,0.094 -0,0.177c0.023,0.083 0.07,0.119 0.106,0.13c0.023,0.012 0.07,0.024 0.118,0.024c0.011,0 0.035,0 0.047,-0.012l1.191,-0.402c0.129,-0.048 0.177,-0.154 0.141,-0.284Z" style="fill:#fff;fill-rule:nonzero;"/><path d="M12.399,18.384c-0.047,-0.071 -0.106,-0.094 -0.142,-0.094c-0.035,-0 -0.106,-0 -0.165,0.035l-1.037,0.699c-0.107,0.071 -0.13,0.201 -0.059,0.308c0.047,0.071 0.129,0.106 0.2,0.094c0.035,0 0.071,-0.012 0.106,-0.035l1.038,-0.699c0.106,-0.071 0.13,-0.201 0.059,-0.308Z" style="fill:#fff;fill-rule:nonzero;"/><path d="M20.677,11.671c-1.179,-1.231 -2.76,-1.918 -4.458,-1.954c-3.231,-0.059 -5.99,2.321 -6.414,5.53c-0.083,0.615 0.353,1.184 0.967,1.267c0.613,0.083 1.179,-0.356 1.261,-0.971c0.272,-2.072 2.064,-3.611 4.151,-3.576c1.097,0.024 2.123,0.474 2.877,1.267c0.767,0.793 1.168,1.835 1.156,2.936c-0.036,1.895 -1.344,3.469 -3.101,3.919c0.035,0.024 0.07,0.048 0.094,0.083c0.307,0.32 0.483,0.758 0.472,1.208c-0,0.355 -0.13,0.687 -0.331,0.971c2.866,-0.568 5.059,-3.09 5.118,-6.133c0.035,-1.705 -0.601,-3.316 -1.781,-4.547l-0.011,0Z" style="fill:#fff;fill-rule:nonzero;"/><path d="M14.521,20.255c-0.011,-0.035 -0.047,-0.095 -0.118,-0.13c-0.118,-0.059 -0.235,-0.012 -0.294,0.106l-0.543,1.137c-0.035,0.071 -0.023,0.13 -0.012,0.178c0.012,0.035 0.048,0.094 0.118,0.13c0.047,0.024 0.095,0.024 0.13,0.024l0.047,-0c0.036,-0.012 0.095,-0.048 0.13,-0.119l0.542,-1.136c0.036,-0.071 0.024,-0.131 0.012,-0.178l-0.012,-0.012Z" style="fill:#fff;fill-rule:nonzero;"/></g></svg>