<svg width="28" height="28" viewBox="0 0 28 28" fill="none" xmlns="http://www.w3.org/2000/svg">
<path d="M19.7107 16.592C19.8057 16.6633 19.9086 16.7267 19.9957 16.8059C22.3943 19.2058 24.8008 21.6057 27.1994 24.0056C27.9831 24.7898 28.1968 25.7244 27.8168 26.6273C27.1835 28.1085 25.2995 28.4728 24.12 27.3164C23.0276 26.2392 21.951 25.1462 20.8665 24.0611C19.497 22.6908 18.1275 21.3206 16.7501 19.9424C16.6868 19.879 16.6234 19.8236 16.5443 19.7444C13.6153 21.5344 10.5043 21.9463 7.24286 20.8533C4.78095 20.0295 2.88108 18.4533 1.52743 16.2277C-1.12447 11.8793 -0.245782 6.07353 3.56187 2.73898C7.57533 -0.777741 13.3541 -0.92031 17.4546 2.38256C21.5473 5.6775 22.7822 11.713 19.7028 16.592H19.7107ZM20.0353 10.7704C20.0353 5.6379 15.8952 1.47169 10.7576 1.45585C5.62005 1.44001 1.44035 5.59829 1.42452 10.7466C1.40868 15.8712 5.57256 20.0533 10.7022 20.0691C15.8398 20.085 20.0274 15.9188 20.0353 10.7783V10.7704ZM17.7396 18.9206C17.795 18.984 17.8663 19.0553 17.9296 19.1266C20.067 21.2651 22.2043 23.4116 24.3496 25.5501C24.6266 25.8274 24.9037 26.1125 25.1966 26.3818C25.4737 26.6353 25.8457 26.6749 26.1544 26.5006C26.4632 26.3263 26.6611 25.9778 26.574 25.6293C26.5186 25.4155 26.3761 25.1937 26.2178 25.0353C23.8429 22.6512 21.4602 20.283 19.0854 17.9068C19.022 17.8435 18.9587 17.7959 18.9191 17.7563C18.5233 18.1523 18.1354 18.5325 17.7396 18.9206Z" fill="#FFED00"/>
</svg>
