<?xml version="1.0" encoding="UTF-8" standalone="no"?><!DOCTYPE svg PUBLIC "-//W3C//DTD SVG 1.1//EN" "http://www.w3.org/Graphics/SVG/1.1/DTD/svg11.dtd"><svg width="100%" height="100%" viewBox="0 0 25 25" version="1.1" xmlns="http://www.w3.org/2000/svg" xmlns:xlink="http://www.w3.org/1999/xlink" xml:space="preserve" xmlns:serif="http://www.serif.com/" style="fill-rule:evenodd;clip-rule:evenodd;stroke-linejoin:round;stroke-miterlimit:2;"><g><path d="M13.215,0.49l-1.787,3.736c-0.095,0.199 -0.011,0.438 0.189,0.533c0.199,0.095 0.438,0.011 0.533,-0.188l1.787,-3.736c0.095,-0.199 0.011,-0.438 -0.189,-0.533c-0.199,-0.096 -0.438,-0.011 -0.533,0.188Z" style="fill:#00c1de;"/><path d="M15.323,0.793l-2.436,3.371c-0.13,0.179 -0.089,0.429 0.09,0.559c0.178,0.129 0.429,0.089 0.558,-0.09l2.437,-3.371c0.129,-0.179 0.089,-0.429 -0.09,-0.558c-0.179,-0.13 -0.429,-0.089 -0.559,0.089Z" style="fill:#00c1de;"/><path d="M17.401,1.511l-3.005,2.883c-0.159,0.153 -0.165,0.406 -0.012,0.566c0.153,0.159 0.407,0.164 0.566,0.011l3.005,-2.883c0.159,-0.153 0.164,-0.406 0.012,-0.565c-0.153,-0.16 -0.407,-0.165 -0.566,-0.012Z" style="fill:#00c1de;"/><path d="M19.284,2.522l-3.492,2.315c-0.184,0.121 -0.235,0.37 -0.113,0.554c0.122,0.184 0.371,0.234 0.555,0.112l3.492,-2.314c0.184,-0.122 0.234,-0.371 0.113,-0.555c-0.122,-0.184 -0.371,-0.234 -0.555,-0.112Z" style="fill:#00c1de;"/><path d="M20.929,3.91l-3.817,1.665c-0.203,0.088 -0.295,0.324 -0.207,0.527c0.088,0.202 0.324,0.294 0.526,0.206l3.818,-1.665c0.202,-0.088 0.295,-0.324 0.206,-0.526c-0.088,-0.203 -0.324,-0.295 -0.526,-0.207Z" style="fill:#00c1de;"/><path d="M22.339,5.552l-4.06,0.934c-0.216,0.049 -0.35,0.264 -0.301,0.479c0.05,0.215 0.265,0.35 0.48,0.3l4.061,-0.934c0.215,-0.049 0.349,-0.264 0.3,-0.479c-0.05,-0.215 -0.264,-0.35 -0.48,-0.3Z" style="fill:#00c1de;"/><path d="M23.384,7.41l-4.142,0.203c-0.22,0.011 -0.391,0.199 -0.38,0.419c0.011,0.221 0.199,0.391 0.419,0.38l4.142,-0.203c0.221,-0.011 0.391,-0.199 0.38,-0.419c-0.01,-0.221 -0.198,-0.391 -0.419,-0.38Z" style="fill:#00c1de;"/><path d="M24.149,9.444l-4.143,-0.569c-0.218,-0.03 -0.42,0.123 -0.45,0.342c-0.03,0.219 0.123,0.421 0.342,0.451l4.142,0.568c0.219,0.03 0.421,-0.123 0.451,-0.342c0.03,-0.218 -0.124,-0.42 -0.342,-0.45Z" style="fill:#00c1de;"/><path d="M24.502,11.572l-3.979,-1.3c-0.21,-0.068 -0.436,0.046 -0.505,0.256c-0.068,0.21 0.046,0.436 0.256,0.505l3.98,1.299c0.21,0.069 0.436,-0.046 0.504,-0.256c0.069,-0.21 -0.046,-0.436 -0.256,-0.504Z" style="fill:#00c1de;"/><path d="M24.445,13.711l-3.655,-1.95c-0.195,-0.104 -0.437,-0.03 -0.541,0.165c-0.104,0.195 -0.03,0.437 0.164,0.541l3.655,1.949c0.195,0.104 0.437,0.031 0.541,-0.164c0.104,-0.195 0.03,-0.438 -0.164,-0.541Z" style="fill:#00c1de;"/><path d="M24.058,15.821l-3.29,-2.599c-0.173,-0.137 -0.424,-0.108 -0.561,0.066c-0.137,0.173 -0.108,0.425 0.066,0.561l3.289,2.599c0.173,0.137 0.425,0.108 0.562,-0.065c0.137,-0.174 0.107,-0.425 -0.066,-0.562Z" style="fill:#00c1de;"/><path d="M23.257,17.819l-2.762,-3.127c-0.146,-0.165 -0.399,-0.181 -0.564,-0.035c-0.166,0.146 -0.182,0.399 -0.036,0.565l2.762,3.126c0.146,0.166 0.399,0.182 0.564,0.036c0.166,-0.147 0.182,-0.4 0.036,-0.565Z" style="fill:#00c1de;"/><path d="M22.122,19.664l-2.152,-3.573c-0.114,-0.19 -0.36,-0.251 -0.549,-0.137c-0.189,0.114 -0.251,0.36 -0.137,0.549l2.153,3.574c0.113,0.189 0.359,0.25 0.549,0.136c0.189,-0.114 0.25,-0.36 0.136,-0.549Z" style="fill:#00c1de;"/><path d="M20.692,21.273l-1.462,-3.898c-0.077,-0.207 -0.308,-0.312 -0.515,-0.234c-0.207,0.077 -0.312,0.308 -0.234,0.515l1.462,3.898c0.077,0.207 0.308,0.312 0.515,0.234c0.207,-0.077 0.311,-0.308 0.234,-0.515Z" style="fill:#00c1de;"/><path d="M19.005,22.599l-0.772,-4.102c-0.041,-0.217 -0.25,-0.36 -0.467,-0.319c-0.217,0.041 -0.36,0.25 -0.319,0.467l0.771,4.102c0.041,0.217 0.25,0.36 0.467,0.319c0.217,-0.041 0.36,-0.25 0.32,-0.467Z" style="fill:#00c1de;"/><path d="M17.062,23.566l0,-4.142c0,-0.221 -0.179,-0.4 -0.4,-0.4c-0.221,-0 -0.4,0.179 -0.4,0.4l0,4.142c0,0.221 0.179,0.4 0.4,0.4c0.221,-0 0.4,-0.179 0.4,-0.4Z" style="fill:#00c1de;"/><path d="M15.026,24.205l0.731,-4.102c0.038,-0.217 -0.107,-0.425 -0.324,-0.464c-0.217,-0.039 -0.425,0.106 -0.464,0.324l-0.731,4.101c-0.039,0.218 0.106,0.426 0.324,0.464c0.217,0.039 0.425,-0.106 0.464,-0.323Z" style="fill:#00c1de;"/><path d="M12.895,24.478l1.462,-3.899c0.077,-0.206 -0.027,-0.437 -0.234,-0.515c-0.207,-0.077 -0.438,0.028 -0.515,0.235l-1.462,3.898c-0.078,0.207 0.027,0.437 0.234,0.515c0.207,0.077 0.438,-0.027 0.515,-0.234Z" style="fill:#00c1de;"/><path d="M10.753,24.338l2.111,-3.574c0.113,-0.19 0.049,-0.435 -0.141,-0.547c-0.19,-0.113 -0.435,-0.05 -0.547,0.141l-2.112,3.573c-0.112,0.19 -0.049,0.436 0.141,0.548c0.19,0.112 0.435,0.049 0.548,-0.141Z" style="fill:#00c1de;"/><path d="M8.64,23.828l2.72,-3.126c0.145,-0.167 0.128,-0.42 -0.039,-0.565c-0.166,-0.145 -0.419,-0.127 -0.564,0.039l-2.721,3.127c-0.145,0.167 -0.127,0.42 0.039,0.565c0.167,0.145 0.42,0.127 0.565,-0.04Z" style="fill:#00c1de;"/><path d="M6.681,22.983l3.249,-2.64c0.171,-0.139 0.197,-0.391 0.058,-0.562c-0.139,-0.172 -0.391,-0.198 -0.563,-0.058l-3.249,2.639c-0.171,0.139 -0.197,0.391 -0.058,0.563c0.139,0.171 0.392,0.197 0.563,0.058Z" style="fill:#00c1de;"/><path d="M4.872,21.766l3.696,-1.99c0.194,-0.105 0.267,-0.347 0.162,-0.542c-0.104,-0.194 -0.347,-0.267 -0.542,-0.162l-3.695,1.99c-0.194,0.104 -0.267,0.347 -0.163,0.541c0.105,0.195 0.348,0.268 0.542,0.163Z" style="fill:#00c1de;"/><path d="M3.345,20.251l3.98,-1.3c0.209,-0.068 0.324,-0.294 0.256,-0.504c-0.069,-0.21 -0.295,-0.325 -0.505,-0.256l-3.979,1.299c-0.21,0.069 -0.325,0.295 -0.257,0.505c0.069,0.21 0.295,0.324 0.505,0.256Z" style="fill:#00c1de;"/><path d="M2.097,18.48l4.142,-0.569c0.219,-0.03 0.372,-0.232 0.342,-0.45c-0.03,-0.219 -0.232,-0.372 -0.45,-0.342l-4.142,0.568c-0.219,0.03 -0.372,0.232 -0.342,0.451c0.03,0.219 0.232,0.372 0.45,0.342Z" style="fill:#00c1de;"/><path d="M1.216,16.534l4.142,0.163c0.22,0.008 0.407,-0.164 0.415,-0.384c0.009,-0.221 -0.163,-0.407 -0.384,-0.416l-4.142,-0.162c-0.22,-0.009 -0.407,0.163 -0.415,0.384c-0.009,0.22 0.163,0.407 0.384,0.415Z" style="fill:#00c1de;"/><path d="M0.654,14.453l4.061,0.934c0.216,0.05 0.43,-0.085 0.48,-0.3c0.049,-0.215 -0.085,-0.43 -0.3,-0.479l-4.061,-0.934c-0.215,-0.05 -0.43,0.085 -0.48,0.3c-0.049,0.215 0.085,0.43 0.3,0.479Z" style="fill:#00c1de;"/><path d="M0.505,12.32l3.818,1.624c0.203,0.087 0.438,-0.008 0.524,-0.211c0.087,-0.204 -0.008,-0.439 -0.211,-0.525l-3.817,-1.624c-0.203,-0.087 -0.439,0.008 -0.525,0.211c-0.086,0.203 0.008,0.438 0.211,0.525Z" style="fill:#00c1de;"/><path d="M0.728,10.175l3.492,2.274c0.185,0.121 0.433,0.068 0.554,-0.117c0.12,-0.185 0.068,-0.433 -0.117,-0.553l-3.492,-2.274c-0.185,-0.121 -0.433,-0.068 -0.554,0.117c-0.12,0.185 -0.068,0.433 0.117,0.553Z" style="fill:#00c1de;"/><path d="M1.32,8.098l3.005,2.883c0.159,0.153 0.413,0.148 0.565,-0.011c0.153,-0.16 0.148,-0.413 -0.011,-0.566l-3.005,-2.883c-0.16,-0.153 -0.413,-0.148 -0.566,0.012c-0.153,0.159 -0.148,0.412 0.012,0.565Z" style="fill:#00c1de;"/><path d="M2.287,6.176l2.437,3.371c0.129,0.178 0.379,0.219 0.558,0.089c0.179,-0.129 0.219,-0.379 0.09,-0.558l-2.437,-3.371c-0.129,-0.179 -0.379,-0.219 -0.558,-0.09c-0.179,0.13 -0.219,0.38 -0.09,0.559Z" style="fill:#00c1de;"/><path d="M3.552,4.452l1.827,3.736c0.097,0.199 0.337,0.281 0.535,0.184c0.199,-0.097 0.281,-0.337 0.184,-0.535l-1.828,-3.736c-0.097,-0.198 -0.336,-0.281 -0.535,-0.184c-0.198,0.097 -0.28,0.337 -0.183,0.535Z" style="fill:#00c1de;"/><path d="M5.15,2.964l1.137,4.02c0.06,0.213 0.282,0.337 0.494,0.276c0.213,-0.06 0.336,-0.281 0.276,-0.493l-1.137,-4.021c-0.06,-0.212 -0.281,-0.336 -0.494,-0.276c-0.212,0.06 -0.336,0.282 -0.276,0.494Z" style="fill:#00c1de;"/><path d="M6.965,1.835l0.365,4.142c0.02,0.22 0.214,0.383 0.434,0.363c0.22,-0.019 0.383,-0.214 0.363,-0.433l-0.365,-4.143c-0.02,-0.22 -0.214,-0.382 -0.434,-0.363c-0.22,0.02 -0.383,0.214 -0.363,0.434Z" style="fill:#00c1de;"/><path d="M8.954,0.993l-0.365,4.142c-0.02,0.22 0.143,0.414 0.363,0.433c0.22,0.02 0.414,-0.143 0.434,-0.363l0.365,-4.142c0.02,-0.22 -0.143,-0.414 -0.363,-0.434c-0.22,-0.019 -0.414,0.144 -0.434,0.364Z" style="fill:#00c1de;"/><path d="M11.079,0.557l-1.097,4.02c-0.058,0.213 0.068,0.433 0.281,0.492c0.213,0.058 0.433,-0.068 0.491,-0.281l1.097,-4.02c0.058,-0.213 -0.068,-0.433 -0.281,-0.492c-0.213,-0.058 -0.433,0.068 -0.491,0.281Z" style="fill:#00c1de;"/><path d="M13.215,0.49l-1.787,3.736c-0.095,0.199 -0.011,0.438 0.189,0.533c0.199,0.095 0.438,0.011 0.533,-0.188l1.787,-3.736c0.095,-0.199 0.011,-0.438 -0.189,-0.533c-0.199,-0.096 -0.438,-0.011 -0.533,0.188Z" style="fill:#00c1de;"/></g></svg>