<svg width="20" height="20" viewBox="0 0 20 20" fill="none" xmlns="http://www.w3.org/2000/svg">
<path d="M14.0791 11.8514C14.1469 11.9023 14.2205 11.9476 14.2827 12.0042C15.9959 13.7184 17.7148 15.4326 19.4281 17.1469C19.9879 17.707 20.1406 18.3746 19.8692 19.0195C19.4168 20.0775 18.0711 20.3377 17.2286 19.5117C16.4483 18.7423 15.6793 17.9616 14.9046 17.1865C13.9264 16.2077 12.9482 15.229 11.9644 14.2446C11.9191 14.1993 11.8739 14.1597 11.8173 14.1031C9.72523 15.3817 7.50307 15.6759 5.17347 14.8952C3.41496 14.3068 2.05791 13.1809 1.09102 11.5912C-0.803194 8.4852 -0.175559 4.33823 2.54419 1.95641C5.41095 -0.555529 9.53864 -0.657364 12.4676 1.70182C15.3909 4.05536 16.273 8.36639 14.0734 11.8514H14.0791ZM14.3109 7.69315C14.3109 4.02707 11.3537 1.05121 7.68401 1.03989C4.01432 1.02858 1.02882 3.99878 1.01751 7.67617C1.0062 11.3366 3.9804 14.3238 7.64443 14.3351C11.3141 14.3464 14.3053 11.3705 14.3109 7.69881V7.69315ZM12.6712 13.5147C12.7107 13.56 12.7616 13.6109 12.8069 13.6618C14.3335 15.1894 15.8602 16.7226 17.3926 18.2501C17.5905 18.4481 17.7884 18.6518 17.9976 18.8441C18.1955 19.0252 18.4612 19.0535 18.6817 18.929C18.9023 18.8045 19.0436 18.5556 18.9814 18.3067C18.9418 18.1539 18.8401 17.9955 18.727 17.8824C17.0307 16.1794 15.3287 14.4878 13.6324 12.7906C13.5872 12.7453 13.5419 12.7114 13.5137 12.6831C13.2309 12.966 12.9539 13.2375 12.6712 13.5147Z" fill="#7AD8FF"/>
</svg>
