<?xml version="1.0" encoding="UTF-8" standalone="no"?><!DOCTYPE svg PUBLIC "-//W3C//DTD SVG 1.1//EN" "http://www.w3.org/Graphics/SVG/1.1/DTD/svg11.dtd"><svg width="100%" height="100%" viewBox="0 0 690 690" version="1.1" xmlns="http://www.w3.org/2000/svg" xmlns:xlink="http://www.w3.org/1999/xlink" xml:space="preserve" xmlns:serif="http://www.serif.com/" style="fill-rule:evenodd;clip-rule:evenodd;stroke-linejoin:round;stroke-miterlimit:2;"><g><g><g><path d="M316.933,189.779c-1.169,0 -2.339,-2.342 -2.339,-3.514l58.475,-183.922c0,-1.172 2.339,-2.343 3.508,-2.343c1.17,0 2.34,2.343 2.34,3.514l-58.475,183.923c0,1.17 -1.17,2.342 -2.339,2.342l-1.17,0Z" style="fill:#f3f3f3;fill-rule:nonzero;"/><path d="M345.001,187.437l-1.17,-0c-1.169,-0 -2.339,-2.344 -1.169,-3.515l91.22,-171.036c0,-1.171 2.34,-2.343 3.508,-1.171c1.17,-0 2.34,2.343 1.17,3.514l-90.051,169.864c0,0 -1.17,1.172 -2.338,1.172l-1.17,1.172Z" style="fill:#f3f3f3;fill-rule:nonzero;"/><path d="M376.577,189.779l-4.678,0c-1.169,0 -1.169,-2.342 0,-4.686l119.288,-151.12c-0,-1.172 2.339,-1.172 4.678,-0c1.17,-0 1.17,2.343 -0,4.686l-119.288,151.12Z" style="fill:#f3f3f3;fill-rule:nonzero;"/><path d="M403.475,197.98l-4.678,-0l-0,-4.687l145.016,-127.69l4.678,-0l-0,4.686l-145.016,127.691Z" style="fill:#f3f3f3;fill-rule:nonzero;"/><path d="M426.863,210.866c-0,-0 -2.339,-0 -2.339,-1.171l0,-3.515l164.899,-99.576l3.508,0l-0,3.515l-164.898,99.576l-1.17,-0l-0,1.171Z" style="fill:#f3f3f3;fill-rule:nonzero;"/><path d="M450.256,227.266c-1.17,0 -2.339,0 -2.339,-2.342c-0,-1.172 -0,-3.515 1.169,-3.515l180.102,-69.117c1.17,-0 3.508,-0 3.508,1.171c0,1.172 0,3.515 -1.169,3.515l-180.101,69.117l-1.17,1.171Z" style="fill:#f3f3f3;fill-rule:nonzero;"/><path d="M470.134,248.353c-1.17,-0 -2.339,-0 -2.339,-2.342c-0,-1.172 -0,-3.516 2.339,-3.516l189.457,-35.143c1.17,-0 3.509,-0 3.509,2.343c-0,1.171 -0,3.514 -2.339,3.514l-189.458,35.144l-1.169,-0Z" style="fill:#f3f3f3;fill-rule:nonzero;"/><path d="M485.337,271.783c-1.169,-0 -2.339,-1.172 -2.339,-2.344c0,-1.171 1.17,-3.514 2.339,-3.514l192.966,0c1.17,0 2.339,1.172 2.339,2.343c0,1.171 -1.169,3.515 -2.339,3.515l-192.966,-0Z" style="fill:#f3f3f3;fill-rule:nonzero;"/><path d="M686.491,332.699l-189.457,-33.972c-1.17,-0 -2.34,-2.343 -2.34,-3.515c0,-1.171 2.34,-2.343 3.509,-2.343l189.458,33.973c1.169,-0 2.339,2.343 2.339,3.515c-0,1.171 -1.17,2.342 -2.339,2.342l-1.17,0Z" style="fill:#f3f3f3;fill-rule:nonzero;"/><path d="M682.984,393.616l-180.102,-66.774c-1.17,-0 -2.339,-2.343 -1.17,-3.514c1.17,-1.172 2.34,-2.343 3.509,-1.172l180.101,66.775c1.17,-0 2.34,2.342 1.17,3.514c-0,1.171 -1.17,2.343 -2.339,2.343l-1.169,-1.172Z" style="fill:#f3f3f3;fill-rule:nonzero;"/><path d="M668.949,453.362l-1.17,0l-166.068,-98.405c-1.169,0 -2.338,-2.342 0,-3.514c0,-1.171 2.34,-2.343 3.509,0l166.068,98.404c1.169,-0 2.339,2.343 -0,3.515c-0,0 -1.17,1.171 -2.339,1.171l0,-1.171Z" style="fill:#f3f3f3;fill-rule:nonzero;"/><path d="M647.898,509.593l-4.677,-0l-145.017,-126.52c-1.169,0 -1.169,-2.343 0,-4.686c0,-1.171 2.339,-1.171 4.678,0l145.016,126.52c1.17,-0 1.17,2.342 0,4.686Z" style="fill:#f3f3f3;fill-rule:nonzero;"/><path d="M613.984,561.137l-4.678,0l-120.457,-149.948l-0,-4.687c-0,-1.171 3.508,0 4.677,0l120.458,149.949l-0,4.686Z" style="fill:#f3f3f3;fill-rule:nonzero;"/><path d="M568.374,605.654c-0,-0 -2.339,-0 -2.339,-1.172l-92.39,-169.864c0,-1.172 0,-3.514 1.169,-3.514c1.17,-0 3.509,-0 3.509,1.171l92.389,169.865c0,1.17 0,3.514 -1.168,3.514l-1.17,-0Z" style="fill:#f3f3f3;fill-rule:nonzero;"/><path d="M519.255,640.798c-1.17,-0 -2.339,-0 -2.339,-2.343l-60.813,-182.751c-0,-1.171 -0,-3.514 2.338,-3.514c1.17,0 3.509,0 3.509,2.343l60.813,182.751c0,1.171 0,3.514 -2.338,3.514l-1.17,-0Z" style="fill:#f3f3f3;fill-rule:nonzero;"/><path d="M464.287,667.742c-1.17,-0 -2.34,-0 -2.34,-2.343l-26.898,-190.95c-0,-1.172 -0,-3.515 2.339,-3.515c1.17,-0 3.508,-0 3.508,2.343l26.899,190.951c-0,1.171 -0,3.514 -2.34,3.514l-1.168,-0Z" style="fill:#f3f3f3;fill-rule:nonzero;"/><path d="M404.642,684.143c-1.169,-0 -2.339,-1.172 -2.339,-3.515l8.187,-193.294c-0,-1.171 1.17,-2.342 3.508,-2.342c1.17,-0 2.339,1.171 2.339,3.514l-8.187,193.293c0,1.172 -1.169,2.344 -2.338,2.344l-1.17,-0Z" style="fill:#f3f3f3;fill-rule:nonzero;"/><path d="M343.829,690c-1.169,0 -2.339,-2.343 -2.339,-3.514l42.101,-188.608c0,-1.172 2.34,-2.343 3.51,-2.343c1.168,0 2.338,2.343 2.338,3.514l-42.102,188.608c0,1.171 -1.169,2.343 -2.338,2.343l-1.17,0Z" style="fill:#f3f3f3;fill-rule:nonzero;"/><path d="M283.018,684.143c-1.169,-0 -2.339,-2.344 -1.169,-3.515l74.847,-178.065c0,-1.171 2.34,-2.342 3.508,-1.171c1.17,-0 2.34,2.343 1.17,3.515l-74.848,178.064c0,-0 -1.169,2.343 -2.338,2.343l-1.17,-1.171Z" style="fill:#f3f3f3;fill-rule:nonzero;"/><path d="M223.371,667.742l-1.17,-0c-1.169,-0 -1.169,-2.343 0,-3.514l105.254,-161.665c0,-1.17 2.34,-1.17 3.509,0c1.169,0 1.169,2.344 0,3.515l-105.254,161.664c0,-0 -1.169,1.171 -2.339,1.171l-0,-1.171Z" style="fill:#f3f3f3;fill-rule:nonzero;"/><path d="M170.745,640.798l-4.678,-0c-1.17,-0 -1.17,-3.514 0,-4.686l132.153,-140.577c-0,0 3.508,-1.172 4.677,0c1.17,0 1.17,3.514 0,4.686l-132.152,140.577Z" style="fill:#f3f3f3;fill-rule:nonzero;"/><path d="M119.287,604.482c-0,0 -2.339,0 -2.339,-1.172l0,-3.514l155.542,-113.633l3.509,-0l0,3.515l-155.543,113.632l-1.169,0l-0,1.172Z" style="fill:#f3f3f3;fill-rule:nonzero;"/><path d="M77.188,559.966c-0,-0 -2.339,-0 -2.339,-1.171c-0,-1.172 -0,-3.515 1.169,-3.515l173.085,-84.346c1.169,-0 3.509,-0 3.509,1.171c-0,1.172 -0,3.514 -1.17,3.514l-173.085,84.347l-1.169,-0Z" style="fill:#f3f3f3;fill-rule:nonzero;"/><path d="M43.27,508.421c-1.169,-0 -2.339,-0 -2.339,-2.343c0,-1.171 0,-3.515 2.339,-3.515l185.95,-51.544c1.169,-0 3.508,-0 3.508,2.343c-0,1.171 -0,3.514 -2.339,3.514l-185.949,51.545l-1.17,-0Z" style="fill:#f3f3f3;fill-rule:nonzero;"/><path d="M18.71,452.19c-1.17,0 -2.339,0 -2.339,-2.343c-0,-1.172 -0,-3.514 2.339,-3.514l191.796,-17.573c1.17,0 3.509,0 3.509,2.344c0,1.171 0,3.514 -2.339,3.514l-191.797,17.572l-1.169,0Z" style="fill:#f3f3f3;fill-rule:nonzero;"/><path d="M197.642,408.846l-191.796,-16.401c-1.17,-0 -2.339,-1.172 -2.339,-3.514c-0,-1.172 1.169,-2.344 3.508,-2.344l191.797,16.401c1.17,0 2.339,1.172 2.339,3.514c0,1.172 -1.169,2.344 -2.339,2.344l-1.17,-0Z" style="fill:#f3f3f3;fill-rule:nonzero;"/><path d="M188.288,381.901l-185.949,-51.544c-1.17,-0 -2.339,-2.344 -2.339,-3.515c0,-1.171 2.339,-2.343 3.508,-2.343l185.949,50.373c1.17,0 2.34,2.344 2.34,3.515c-0,1.171 -1.17,2.343 -2.34,2.343l-1.169,1.171Z" style="fill:#f3f3f3;fill-rule:nonzero;"/><path d="M185.95,352.614l-2.338,0l-173.085,-83.175c-1.17,0 -2.339,-2.342 -1.17,-3.514c0,-1.171 2.339,-2.343 3.509,-1.171l174.254,83.174c1.17,0 2.339,2.344 1.17,3.515c-0,0 -1.17,1.171 -2.34,1.171Z" style="fill:#f3f3f3;fill-rule:nonzero;"/><path d="M185.951,324.499l-157.881,-113.633c-1.17,-0 -1.17,-2.343 -0,-3.514c-0,-1.172 2.339,-1.172 3.508,-0l156.712,112.461c1.169,0 1.169,2.343 -0,3.515c-0,-0 -1.169,1.171 -2.339,1.171Z" style="fill:#f3f3f3;fill-rule:nonzero;"/><path d="M195.306,296.384l-4.678,-0l-133.322,-139.406l0,-4.686l4.678,-0l133.322,139.406l-0,4.686Z" style="fill:#f3f3f3;fill-rule:nonzero;"/><path d="M204.661,270.611c-0,0 -2.339,0 -2.339,-1.172l-106.424,-160.492l0,-3.514l3.509,-0l106.423,160.492l0,3.514l-1.169,0l-0,1.172Z" style="fill:#f3f3f3;fill-rule:nonzero;"/><path d="M221.034,246.011c-0,-0 -2.34,-0 -2.34,-2.344l-77.186,-175.721c0,-1.172 0,-3.515 1.17,-3.515c1.17,0 3.508,0 3.508,1.172l76.017,176.892c0,1.172 0,3.516 -1.169,3.516Z" style="fill:#f3f3f3;fill-rule:nonzero;"/><path d="M240.916,226.095c-1.17,-0 -2.34,0.001 -2.34,-2.343l-44.44,-187.436c0,-1.172 0,-3.515 2.339,-3.515c1.169,0 3.508,0 3.508,2.343l43.271,187.437c0,1.171 0,3.514 -2.338,3.514Z" style="fill:#f3f3f3;fill-rule:nonzero;"/><path d="M263.137,209.694c-1.17,-0 -2.339,-1.171 -2.339,-2.342l-9.356,-192.123c0,-1.171 0,-3.514 2.338,-3.514c2.34,-0 3.51,-0 3.51,2.343l9.355,192.122c0,1.172 0,3.514 -2.339,3.514l-1.169,-0Z" style="fill:#f3f3f3;fill-rule:nonzero;"/><path d="M290.034,196.808c-1.17,0 -2.339,-1.171 -2.339,-3.514l23.389,-190.951c0,-1.172 1.17,-2.343 3.509,-2.343c1.169,0 2.339,1.171 2.339,3.514l-24.559,190.951c-0,1.172 -1.17,2.343 -2.339,2.343Z" style="fill:#f3f3f3;fill-rule:nonzero;"/><path d="M316.933,189.779c-1.169,0 -2.339,-2.342 -2.339,-3.514l58.475,-183.922c0,-1.172 2.339,-2.343 3.508,-2.343c1.17,0 2.34,2.343 2.34,3.514l-58.475,183.923c0,1.17 -1.17,2.342 -2.339,2.342l-1.17,0Z" style="fill:#f3f3f3;fill-rule:nonzero;"/></g></g></g></svg>