<svg xmlns="http://www.w3.org/2000/svg" width="65" height="19" viewBox="0 0 65 19">
    <g fill="none" fill-rule="evenodd">
        <g fill="#A7A7A7" fill-rule="nonzero">
            <g>
                <g>
                    <path d="M63.593 4.577h-.431c-.077.004-.15-.04-.186-.114l-.397-.645c-.023-.065-.023-.137 0-.202V3.3c0-.076 0-.114.105-.114h.082c.178.007.331-.136.35-.329-.004-.093-.041-.18-.105-.242s-.148-.094-.234-.087h-.489v1.935c0 .088 0 .114-.105.114h-.361c-.07 0-.105 0-.105-.114V2.086c0-.076 0-.114.105-.114h.92c.265-.043.532.05.723.253.15.164.23.389.221.62-.003.354-.206.67-.512.796l.512.81s-.023.126-.093.126zM11.818 14.243v2.04c0 .444-.149.717-.72.717H.72C.149 17 0 16.727 0 16.282V1.417C0 .802.275.654.72.654h2.472c.446 0 .72.148.72.729v12.143h7.185c.572 0 .721.273.721.717zM26.92 11.413c0 3.91-3.868 5.587-6.942 5.587-3.075 0-6.847-1.677-6.847-5.587V5.587c0-3.91 3.784-5.587 6.847-5.587 3.063 0 6.941 1.677 6.941 5.587v5.826zm-4.045-5.486c.023-.721-.284-1.417-.841-1.903-.557-.486-1.309-.714-2.056-.624-.736-.082-1.474.145-2.022.623-.549.478-.855 1.16-.84 1.87v5.18c-.025.716.276 1.407.826 1.893.55.485 1.293.717 2.036.634.741.089 1.486-.135 2.042-.613.556-.479.868-1.165.855-1.88v-5.18zM43.333 12.222c0 3.155-2.428 4.778-5.85 4.778h-7.226c-.565 0-.712-.274-.712-.72V1.374c0-.446.147-.72.712-.72h6.888c4.009 0 5.725 2.16 5.725 4.504.16 1.409-.554 2.772-1.795 3.429 1.393.656 2.277 2.079 2.258 3.635zm-7.227-2.686V7.65l3.072-2.15c-.415-.77-1.172-1.29-2.033-1.394h-3.738v9.362h4.133c1.197 0 1.886-1.623 1.886-1.623l-3.32-2.31zM59.272 17.346h-2.531c-.53 0-.719-.148-.918-.751l-.674-1.958h-5.904l-.674 1.935c-.188.603-.387.751-.918.751h-2.531c-.531 0-.531-.398-.41-.694l5.351-14.854c.107-.472.525-.797.995-.774h2.31c.532 0 .775.25.985.774L59.68 16.64c.122.308.122.706-.409.706zm-5.25-6.18l-1.814-5.487-1.802 5.487h3.615z" transform="translate(-953.000000, -5401.000000) translate(0.000000, 5078.000000) translate(953.000000, 323.823232)"/>
                    <path d="M62.691.654c-1.267.006-2.29 1.033-2.287 2.295.004 1.263 1.034 2.284 2.302 2.282C63.973 5.229 65 4.205 65 2.942c0-.608-.244-1.192-.677-1.622-.433-.429-1.02-.669-1.632-.666zm0 4c-.948 0-1.718-.767-1.718-1.712s.77-1.71 1.718-1.71c.95 0 1.719.765 1.719 1.71 0 .454-.181.89-.504 1.21-.322.321-.759.501-1.215.501z" transform="translate(-953.000000, -5401.000000) translate(0.000000, 5078.000000) translate(953.000000, 323.823232)"/>
                </g>
            </g>
        </g>
    </g>
</svg>
