<svg xmlns="http://www.w3.org/2000/svg" width="69" height="18" viewBox="0 0 69 18">
    <g fill="none" fill-rule="evenodd">
        <g fill="#606060" fill-rule="nonzero">
            <g>
                <g>
                    <path d="M67.506 4.846h-.457c-.082.005-.16-.042-.198-.12l-.42-.683c-.025-.07-.025-.146 0-.215v-.334c0-.08 0-.12.11-.12h.087c.19.007.352-.145.371-.349-.003-.098-.043-.191-.11-.257-.068-.065-.158-.098-.248-.091h-.52v2.048c0 .094 0 .12-.111.12h-.384c-.074 0-.11 0-.11-.12V2.208c0-.08 0-.12.11-.12h.978c.28-.046.564.053.766.268.16.174.244.411.235.656-.003.375-.219.71-.544.843l.544.857s-.024.134-.099.134zM12.545 15.081v2.16c0 .47-.157.759-.765.759H.765C.158 18 0 17.71 0 17.24V1.5C0 .85.291.692.765.692h2.623c.474 0 .765.157.765.772v12.857h7.627c.608 0 .765.29.765.76zM28.576 12.084c0 4.14-4.105 5.916-7.369 5.916-3.263 0-7.268-1.776-7.268-5.916V5.916C13.94 1.776 17.956 0 21.207 0c3.251 0 7.369 1.776 7.369 5.916v6.168zm-4.293-5.808c.024-.764-.302-1.5-.893-2.015-.592-.515-1.39-.756-2.183-.661-.781-.087-1.564.154-2.146.66-.583.506-.908 1.228-.891 1.98v5.484c-.028.758.292 1.49.876 2.004.584.515 1.373.76 2.161.672.787.094 1.578-.143 2.168-.65.59-.506.921-1.232.908-1.99V6.276zM46 12.94c0 3.341-2.578 5.06-6.21 5.06H32.12c-.6 0-.755-.29-.755-.763V1.455c0-.472.155-.763.755-.763h7.312c4.255 0 6.077 2.288 6.077 4.769.17 1.492-.588 2.935-1.906 3.631 1.48.695 2.418 2.201 2.398 3.849zm-7.672-2.843V8.1l3.26-2.276c-.44-.816-1.244-1.366-2.157-1.477h-3.968v9.913h4.387c1.271 0 2.002-1.719 2.002-1.719l-3.524-2.444zM62.92 17.308h-2.688c-.563 0-.762-.157-.974-.796l-.715-2.073h-6.267l-.716 2.05c-.2.638-.411.795-.974.795h-2.688c-.563 0-.563-.422-.434-.736L53.144.821c.113-.5.558-.845 1.056-.82h2.453c.563 0 .822.265 1.045.82l5.656 15.74c.13.325.13.747-.434.747zm-5.575-6.544l-1.924-5.81-1.913 5.81h3.837z" transform="translate(-127.000000, -3278.000000) translate(0.000000, 2928.675729) translate(127.000000, 349.324271)"/>
                    <path d="M66.55.692c-1.346.006-2.433 1.094-2.429 2.43.004 1.338 1.098 2.418 2.443 2.416C67.91 5.536 69 4.452 69 3.115c0-.644-.259-1.262-.718-1.717-.46-.455-1.084-.709-1.733-.706zm0 4.235c-1.008 0-1.825-.811-1.825-1.812 0-1 .817-1.811 1.824-1.811 1.008 0 1.824.81 1.824 1.811 0 .48-.192.942-.534 1.282-.342.34-.806.53-1.29.53z" transform="translate(-127.000000, -3278.000000) translate(0.000000, 2928.675729) translate(127.000000, 349.324271)"/>
                </g>
            </g>
        </g>
    </g>
</svg>
