<svg width="230" height="78" viewBox="0 0 230 78" fill="none" xmlns="http://www.w3.org/2000/svg">
<path d="M77.1111 40.4899C76.302 40.1891 76.0623 39.6176 76.3919 38.8354L83.5539 21.0872C83.8536 20.4254 84.333 20.0945 84.9623 20.0945H85.0223C85.6815 20.1246 86.131 20.4555 86.3408 21.0872L93.6526 38.8354C93.9822 39.6176 93.7425 40.1891 92.9634 40.4899C92.1543 40.7908 91.6149 40.5802 91.3152 39.7981L89.697 35.8273H80.3175L78.7593 39.7981C78.4596 40.5802 77.8902 40.8208 77.1411 40.4899H77.1111ZM81.2764 33.3004H88.6482L84.9024 24.1254L81.3064 33.3004H81.2764Z" fill="white"/>
<path d="M98.2376 40.6102C97.8181 40.6102 97.4884 40.5199 97.2787 40.3093C97.0689 40.0988 96.979 39.7679 96.979 39.3467V21.3879C96.979 20.9367 97.0689 20.6358 97.2787 20.4253C97.4884 20.2147 97.8181 20.1245 98.2376 20.1245C98.6571 20.1245 98.9868 20.2147 99.1965 20.4253C99.4063 20.6358 99.4962 20.9367 99.4962 21.3879V39.3467C99.4962 39.7679 99.4063 40.0988 99.1965 40.3093C98.9868 40.5199 98.6871 40.6102 98.2376 40.6102Z" fill="white"/>
<path d="M118.555 34.1127C118.345 33.872 118.015 33.7517 117.626 33.7517H115.888V21.3279C115.888 20.4856 115.438 20.0645 114.509 20.0645C113.58 20.0645 113.82 20.0945 113.55 20.1848C113.281 20.275 113.011 20.4856 112.741 20.8466L103.272 33.6915C102.942 34.1728 102.762 34.624 102.762 35.0151C102.762 35.8574 103.182 36.2785 104.021 36.2785H113.341V39.3168C113.341 40.1591 113.76 40.5802 114.599 40.5802C115.438 40.5802 115.858 40.1591 115.858 39.3168V36.2785H117.596C118.435 36.2785 118.854 35.8574 118.854 35.0151C118.854 34.1728 118.735 34.3533 118.525 34.1127H118.555ZM105.909 33.8118L113.371 23.6743V33.7818L105.909 33.8118Z" fill="white"/>
<path d="M123.409 40.6103C122.57 40.6103 122.151 40.1891 122.151 39.3468V21.3579C122.151 20.5156 122.57 20.0945 123.409 20.0945H134.227C135.066 20.0945 135.486 20.5156 135.486 21.3579C135.486 22.2002 135.066 22.6214 134.227 22.6214H124.668V38.0533H134.227C135.066 38.0533 135.486 38.4745 135.486 39.3168C135.486 40.159 135.066 40.5802 134.227 40.5802H123.409V40.6103Z" fill="white"/>
<path d="M145.734 40.6103C143.427 40.6103 141.719 40.0689 140.64 38.9558C139.561 37.8428 138.992 36.1281 138.992 33.8419V21.358C138.992 20.9368 139.112 20.6059 139.322 20.3954C139.531 20.1848 139.861 20.0645 140.281 20.0645C140.7 20.0645 141.03 20.1848 141.239 20.3954C141.449 20.6059 141.569 20.9368 141.569 21.358V33.8419C141.569 34.9249 141.689 35.7672 141.959 36.3989C142.228 37.0005 142.648 37.4517 143.247 37.7225C143.847 37.9932 144.716 38.1135 145.794 38.1135H149.42C150.499 38.1135 151.338 37.9932 151.967 37.7225C152.567 37.4517 153.016 37.0306 153.286 36.3989C153.556 35.7972 153.676 34.9249 153.676 33.8419V21.358C153.676 20.9368 153.795 20.6059 154.005 20.3954C154.215 20.1848 154.545 20.0645 154.964 20.0645C155.384 20.0645 155.713 20.1848 155.923 20.3954C156.133 20.6059 156.253 20.9368 156.253 21.358V33.8419C156.253 36.1582 155.713 37.8729 154.604 38.9558C153.496 40.0689 151.818 40.6103 149.48 40.6103H145.854H145.734Z" fill="white"/>
<path d="M174.143 40.6705C173.813 40.8811 173.483 40.9412 173.184 40.8811C172.884 40.7908 172.614 40.5802 172.405 40.2493L167.73 32.4281H163.504V39.3168C163.504 40.1591 163.085 40.5802 162.246 40.5802C161.407 40.5802 160.987 40.1591 160.987 39.3168V21.3279C160.987 20.4856 161.407 20.0645 162.246 20.0645H169.288C171.116 20.0645 172.524 20.5458 173.513 21.5385C174.502 22.5312 174.982 23.945 174.982 25.78V26.6825C174.982 28.2768 174.622 29.5703 173.873 30.5329C173.124 31.4955 172.045 32.0671 170.637 32.3077L174.592 38.9257C174.982 39.6176 174.802 40.2193 174.113 40.6404L174.143 40.6705ZM163.534 29.9012H169.318C170.457 29.9012 171.266 29.6606 171.775 29.1792C172.255 28.6979 172.494 27.8857 172.494 26.7125V25.8101C172.494 24.667 172.255 23.8548 171.775 23.3735C171.296 22.8921 170.487 22.6515 169.318 22.6515H163.534V29.9012Z" fill="white"/>
<path d="M184.691 40.6103C182.384 40.6103 180.675 40.0688 179.597 38.9558C178.518 37.8427 177.948 36.1281 177.948 33.8419V26.8629C177.948 24.5466 178.488 22.8319 179.597 21.7189C180.705 20.636 182.413 20.0945 184.691 20.0945H188.317C190.624 20.0945 192.332 20.636 193.441 21.749C194.55 22.862 195.089 24.5466 195.089 26.893V33.8419C195.089 36.1582 194.55 37.8728 193.441 38.9558C192.332 40.0688 190.654 40.6103 188.317 40.6103H184.691ZM184.691 38.0533H188.317C189.396 38.0533 190.235 37.933 190.864 37.6623C191.463 37.3915 191.913 36.9704 192.183 36.3387C192.452 35.737 192.572 34.8646 192.572 33.7817V26.8328C192.572 25.7499 192.452 24.9076 192.183 24.3059C191.913 23.7043 191.493 23.2531 190.864 22.9823C190.265 22.7116 189.396 22.5913 188.317 22.5913H184.691C183.612 22.5913 182.773 22.7116 182.174 22.9523C181.574 23.1929 181.125 23.6441 180.855 24.2458C180.586 24.8474 180.466 25.7198 180.466 26.8027V33.7817C180.466 34.8646 180.586 35.7069 180.855 36.3387C181.125 36.9403 181.544 37.3915 182.174 37.6623C182.773 37.933 183.642 38.0533 184.721 38.0533H184.691Z" fill="white"/>
<path d="M200.663 40.6103C199.824 40.6103 199.405 40.1891 199.405 39.3468V21.3579C199.405 20.5156 199.824 20.0945 200.663 20.0945H207.705C209.533 20.0945 210.942 20.5758 211.931 21.5685C212.919 22.5612 213.399 23.975 213.399 25.81V26.7125C213.399 28.5475 212.919 29.9613 211.931 30.954C210.942 31.9467 209.533 32.428 207.705 32.428H201.922V39.3168C201.922 40.159 201.502 40.5802 200.663 40.5802V40.6103ZM201.922 29.9012H207.705C208.844 29.9012 209.653 29.6605 210.162 29.1792C210.642 28.6979 210.882 27.8857 210.882 26.7125V25.81C210.882 24.6669 210.642 23.8547 210.162 23.3734C209.683 22.8921 208.874 22.6514 207.705 22.6514H201.922V29.9012Z" fill="white"/>
<path d="M128.444 32.3079C129.519 32.3079 130.391 31.4325 130.391 30.3526C130.391 29.2727 129.519 28.3973 128.444 28.3973C127.368 28.3973 126.496 29.2727 126.496 30.3526C126.496 31.4325 127.368 32.3079 128.444 32.3079Z" fill="white"/>
<path d="M217.923 40.6103C217.084 40.6103 216.665 40.1891 216.665 39.3468V21.3579C216.665 20.5156 217.084 20.0945 217.923 20.0945H228.741C229.58 20.0945 230 20.5156 230 21.3579C230 22.2002 229.58 22.6214 228.741 22.6214H219.182V38.0533H228.741C229.58 38.0533 230 38.4745 230 39.3168C230 40.159 229.58 40.5802 228.741 40.5802H217.923V40.6103Z" fill="white"/>
<path d="M222.988 32.3079C224.064 32.3079 224.936 31.4325 224.936 30.3526C224.936 29.2727 224.064 28.3973 222.988 28.3973C221.912 28.3973 221.04 29.2727 221.04 30.3526C221.04 31.4325 221.912 32.3079 222.988 32.3079Z" fill="white"/>
<path d="M14.6313 13.2662C16.8324 13.2662 18.6168 11.475 18.6168 9.26535C18.6168 7.05572 16.8324 5.26447 14.6313 5.26447C12.4301 5.26447 10.6458 7.05572 10.6458 9.26535C10.6458 11.475 12.4301 13.2662 14.6313 13.2662Z" fill="white"/>
<path d="M45.8563 14.4693C46.0062 14.6197 46.2159 14.6799 46.3957 14.6799C46.5755 14.6799 46.8153 14.5897 46.9651 14.4392L51.5799 9.53591C51.8796 9.20501 51.8796 8.7237 51.5799 8.42288C51.2503 8.12206 50.7708 8.12206 50.4712 8.42288L45.8563 13.3262C45.5567 13.6571 45.5567 14.1384 45.8563 14.4392V14.4693Z" fill="white"/>
<path d="M48.5232 17.5075C48.6731 17.7181 48.9128 17.8384 49.1525 17.8384C49.3923 17.8384 49.4822 17.7783 49.632 17.688L55.0559 13.7172C55.4155 13.4465 55.4755 12.9652 55.2357 12.6042C54.966 12.2432 54.4866 12.183 54.127 12.4237L48.703 16.3945C48.3434 16.6652 48.2835 17.1465 48.5232 17.5075Z" fill="white"/>
<path d="M42.7098 11.9725C42.8297 12.0627 43.0095 12.0928 43.1293 12.0928C43.399 12.0928 43.6388 11.9725 43.7886 11.7318L47.4745 6.07647C47.7142 5.71548 47.6243 5.20409 47.2347 4.96344C46.8751 4.72278 46.3657 4.81303 46.126 5.20409L42.4401 10.8595C42.2004 11.2205 42.2903 11.7318 42.6798 11.9725H42.7098Z" fill="white"/>
<path d="M52.7188 28.6681C52.7488 29.0892 53.1084 29.39 53.4979 29.39C53.8875 29.39 53.5579 29.39 53.5579 29.39L60.2404 28.7583C60.6899 28.7282 60.9895 28.3372 60.9596 27.886C60.9296 27.4347 60.54 27.1339 60.0905 27.164L53.408 27.7957C52.9585 27.8258 52.6589 28.2169 52.6888 28.6681H52.7188Z" fill="white"/>
<path d="M35.3681 8.84408C35.428 8.84408 35.4879 8.84408 35.5479 8.84408C35.9075 8.84408 36.2371 8.60342 36.327 8.21236L37.7954 1.62444C37.8853 1.2033 37.6156 0.782154 37.196 0.661827C36.7765 0.571581 36.357 0.842318 36.2371 1.26346L34.7688 7.85138C34.6789 8.27252 34.9486 8.69367 35.3681 8.814V8.84408Z" fill="white"/>
<path d="M50.5909 20.9368C50.7407 21.2075 51.0104 21.388 51.3101 21.388C51.6097 21.388 51.5498 21.388 51.6696 21.2978L57.7229 18.3498C58.1124 18.1693 58.2922 17.688 58.0825 17.2969C57.9027 16.9058 57.4232 16.7253 57.0336 16.9359L50.9804 19.8839C50.5909 20.0644 50.4111 20.5457 50.6208 20.9368H50.5909Z" fill="white"/>
<path d="M51.9991 24.6973C52.089 25.0583 52.4186 25.2689 52.7482 25.2689C53.0778 25.2689 52.898 25.2689 52.958 25.2689L59.4307 23.4639C59.8503 23.3436 60.09 22.8924 59.9701 22.4712C59.8503 22.0501 59.4008 21.8095 58.9812 21.9298L52.5085 23.7347C52.089 23.855 51.8492 24.3062 51.9691 24.7274L51.9991 24.6973Z" fill="white"/>
<path d="M39.1737 10.0777C39.2636 10.1077 39.3835 10.1378 39.4734 10.1378C39.773 10.1378 40.0727 9.95732 40.1926 9.6565L42.7997 3.45965C42.9795 3.06859 42.7996 2.58728 42.3801 2.40679C41.9906 2.2263 41.5111 2.40679 41.3313 2.82793L38.7242 9.02479C38.5444 9.41585 38.7242 9.89716 39.1437 10.0777H39.1737Z" fill="white"/>
<path d="M59.4911 37.8729L53.0184 36.0981C52.5988 35.9778 52.1493 36.2184 52.0295 36.6696C51.9096 37.0908 52.1493 37.542 52.5988 37.6623L59.0716 39.4372C59.1315 39.4372 59.2214 39.4372 59.2814 39.4372C59.641 39.4372 59.9406 39.1965 60.0605 38.8355C60.1804 38.4144 59.9406 37.9632 59.4911 37.8428V37.8729Z" fill="white"/>
<path d="M31.3824 8.33266C31.3824 8.33266 31.3824 8.33266 31.4124 8.33266C31.8319 8.33266 32.1915 8.00176 32.1915 7.58061L32.4612 0.84229C32.4612 0.391063 32.1316 0.0300818 31.712 0C31.2625 0 30.9029 0.3309 30.873 0.752045L30.6033 7.49037C30.6033 7.9416 30.9329 8.30258 31.3524 8.33266H31.3824Z" fill="white"/>
<path d="M57.7531 42.957L51.6999 40.0391C51.3103 39.8586 50.8308 40.0391 50.651 40.4302C50.4712 40.8212 50.651 41.3025 51.0406 41.483L57.0938 44.401C57.2137 44.4611 57.3335 44.4912 57.4234 44.4912C57.7231 44.4912 57.9928 44.3107 58.1426 44.04C58.3224 43.6489 58.1426 43.1676 57.7531 42.9871V42.957Z" fill="white"/>
<path d="M60.3003 32.5484L53.6177 31.9768C53.1682 31.9467 52.8087 32.2776 52.7487 32.6988C52.7188 33.15 53.0484 33.511 53.4679 33.5711L60.1504 34.1427H60.2104C60.6299 34.1427 60.9595 33.8419 60.9895 33.4207C61.0195 32.9695 60.6898 32.6085 60.2703 32.5484H60.3003Z" fill="white"/>
<path d="M46.2159 46.4162C42.3802 50.2667 37.2859 52.583 31.8619 52.944C25.8986 53.335 20.1151 51.3797 15.6201 47.4089C11.1251 43.4381 8.42815 37.9632 8.03858 31.9769C7.61905 25.4492 9.98641 19.1922 14.5113 14.6498C11.9043 14.5897 9.65677 12.6043 9.32714 9.92698C9.26721 9.47575 9.29718 8.99444 9.32714 8.54321C2.88435 14.7701 -0.531823 23.4638 0.0675059 32.5184C0.606902 40.6405 4.26281 48.0707 10.346 53.4253C15.9198 58.3286 22.9619 60.9758 30.3037 60.9758C37.6455 60.9758 31.6522 60.9758 32.3414 60.9156C39.6832 60.4343 46.6054 57.2757 51.7896 52.0716C53.3479 50.5073 53.3479 47.9805 51.7896 46.4463C50.2314 44.882 47.7142 44.882 46.1859 46.4463L46.2159 46.4162Z" fill="white"/>
<path d="M27.2772 8.54314C27.3071 8.54314 27.3371 8.54314 27.397 8.54314C27.8166 8.48298 28.1462 8.09192 28.0863 7.64069L27.1573 0.962529C27.0974 0.511302 26.6778 0.210484 26.2583 0.270647C25.8388 0.330811 25.5091 0.721875 25.5691 1.1731L26.498 7.85126C26.558 8.24233 26.8876 8.54314 27.2772 8.54314Z" fill="white"/>
<path d="M22.4824 8.93415C22.6023 9.26505 22.902 9.47563 23.2316 9.47563C23.5612 9.47563 23.4114 9.47563 23.4713 9.44554C23.8908 9.29513 24.1006 8.84391 23.9807 8.45284L21.8831 2.04542C21.7333 1.62427 21.3137 1.38362 20.8942 1.53403C20.4747 1.68444 20.2649 2.13566 20.3848 2.52673L22.4824 8.93415Z" fill="white"/>
<path d="M30.2138 46.6871C31.786 46.6871 33.0606 45.4076 33.0606 43.8293C33.0606 42.251 31.786 40.9716 30.2138 40.9716C28.6415 40.9716 27.3669 42.251 27.3669 43.8293C27.3669 45.4076 28.6415 46.6871 30.2138 46.6871Z" fill="white"/>
<path d="M22.932 38.6851C22.8421 38.6851 22.6923 38.7453 22.5425 38.8957L20.4748 41.3022C20.325 41.4526 20.325 41.6031 20.325 41.7234C20.325 41.8136 20.3849 41.964 20.5347 42.1144C20.6845 42.2649 20.8344 42.2649 20.9542 42.2649C21.0441 42.2649 21.194 42.2047 21.3138 42.0543L23.3815 39.6477C23.5314 39.4973 23.5314 39.3469 23.5314 39.2266C23.5314 39.1363 23.4714 38.9859 23.3216 38.8355C23.1718 38.6851 23.0219 38.6851 22.9021 38.6851H22.932Z" fill="white"/>
<path d="M19.5758 33.2403C19.4559 32.9094 19.1563 32.759 18.8566 32.8794L15.83 33.9021C15.6202 33.9623 15.5303 34.0826 15.5003 34.1729C15.4404 34.2631 15.4104 34.4135 15.5003 34.6241C15.5603 34.8347 15.6801 34.9249 15.77 34.955C15.83 34.9851 15.9498 35.0152 16.0697 35.0152C16.0997 35.0152 16.1596 35.0152 16.1896 34.9851L19.2162 33.9623C19.5458 33.842 19.6657 33.5712 19.5758 33.2403Z" fill="white"/>
<path d="M21.0741 36.2786C20.9542 36.0981 20.8044 36.0379 20.7145 36.0379C20.6246 36.0379 20.4448 36.0379 20.2949 36.1281L17.6579 37.903C17.3882 38.0835 17.3283 38.4144 17.508 38.6851C17.6279 38.8656 17.8377 38.9558 18.0175 38.9258C18.1074 38.9258 18.1973 38.8957 18.2872 38.8355L20.9242 37.0607C21.1939 36.8802 21.2539 36.5493 21.0741 36.2786Z" fill="white"/>
<path d="M42.1106 19.2222C39.114 16.0937 35.0985 14.3489 30.7833 14.2587C22.5725 14.1083 15.5603 20.1547 14.4815 28.3069C14.2718 29.8711 15.3805 31.3151 16.9388 31.5256C18.497 31.7362 19.9354 30.6232 20.1452 29.0589C20.8344 23.7946 25.3893 19.884 30.6934 19.9742C33.4803 20.0344 36.0874 21.1775 38.0052 23.193C39.953 25.2084 40.9719 27.8556 40.9419 30.6532C40.852 35.4663 37.5258 39.4672 33.0607 40.6103C33.1506 40.6705 33.2405 40.7307 33.3005 40.8209C34.0796 41.6331 34.5291 42.7461 34.4991 43.8892C34.4991 44.7917 34.1695 45.634 33.6601 46.356C40.9419 44.912 46.5157 38.5046 46.6655 30.7736C46.7554 26.4418 45.1372 22.3507 42.1406 19.2222H42.1106Z" fill="white"/>
<path d="M26.4679 41.0316C26.438 40.9413 26.3481 40.7909 26.1683 40.7007C25.8686 40.5503 25.5689 40.6706 25.4191 40.9714L24.0406 43.8593C23.9507 44.0398 23.9807 44.1902 24.0107 44.3105C24.0406 44.4007 24.1305 44.5511 24.3103 44.6414C24.4302 44.7016 24.5501 44.7016 24.64 44.7016C24.6699 44.7016 24.7299 44.7016 24.7598 44.7016C24.8497 44.6715 24.9996 44.5812 25.0895 44.4007L26.4679 41.5129C26.5578 41.3324 26.5279 41.182 26.4979 41.0617L26.4679 41.0316Z" fill="white"/>
<path d="M77.0479 62.857C76.5305 62.4806 76.2091 61.9082 76.0837 61.1319C76.0602 60.9045 76.1072 60.732 76.2327 60.6065C76.3502 60.4811 76.5227 60.4183 76.75 60.4183C76.9773 60.4183 77.1263 60.4732 77.236 60.5752C77.3458 60.6771 77.4163 60.8496 77.4634 61.0849C77.5417 61.4534 77.7064 61.7043 77.9729 61.8455C78.2394 61.9866 78.6548 62.0572 79.2114 62.0572H81.5474C82.0255 62.0572 82.3861 62.0023 82.6448 61.8925C82.8956 61.7827 83.0838 61.6024 83.1857 61.3515C83.2954 61.1005 83.3503 60.7398 83.3503 60.2693C83.3503 59.5793 83.217 59.101 82.9583 58.8422C82.6997 58.5834 82.2293 58.4501 81.5474 58.4501H79.5328C78.5137 58.4501 77.7612 58.1992 77.2595 57.7052C76.7657 57.2112 76.5149 56.4427 76.5149 55.4155C76.5149 54.3883 76.7579 53.6433 77.2517 53.1493C77.7455 52.6553 78.4981 52.4122 79.5171 52.4122H81.4455C83.1543 52.4122 84.142 53.1258 84.4007 54.5529C84.432 54.7803 84.3928 54.9529 84.2674 55.0783C84.1498 55.2038 83.9695 55.2665 83.7344 55.2665C83.4992 55.2665 83.3581 55.2116 83.2484 55.1018C83.1386 54.9921 83.0681 54.8274 83.0367 54.6C82.9505 54.2863 82.7859 54.0668 82.5507 53.9492C82.3156 53.8315 81.9471 53.7688 81.4455 53.7688H79.5171C79.0703 53.7688 78.7332 53.8158 78.5059 53.9178C78.2707 54.0119 78.114 54.1766 78.0199 54.4118C77.9258 54.647 77.8788 54.9764 77.8788 55.4077C77.8788 55.8389 77.9258 56.1918 78.0277 56.4192C78.1218 56.6544 78.2864 56.8191 78.5216 56.9211C78.7568 57.023 79.0938 57.0779 79.5328 57.0779H81.5474C82.6213 57.0779 83.413 57.3367 83.9304 57.8542C84.4477 58.3717 84.7064 59.1716 84.7064 60.2537C84.7064 61.3358 84.4477 62.1199 83.9304 62.6296C83.413 63.1472 82.6134 63.3981 81.5474 63.3981H79.2114C78.2786 63.3981 77.5574 63.2099 77.0479 62.8413V62.857Z" fill="white"/>
<path d="M94.3952 55.3684C94.5128 55.486 94.5755 55.6585 94.5755 55.8703V62.7315C94.5755 63.1863 94.3482 63.4137 93.8936 63.4137C93.4389 63.4137 93.2116 63.1863 93.2116 62.7315V62.4571C92.6393 63.0922 91.7928 63.4137 90.6797 63.4137H90.225C89.1433 63.4137 88.3437 63.1549 87.8263 62.6374C87.309 62.1199 87.0503 61.3201 87.0503 60.2379V55.8703C87.0503 55.6507 87.113 55.486 87.2306 55.3684C87.3482 55.2508 87.5206 55.188 87.7323 55.188C87.9439 55.188 88.1164 55.2508 88.2339 55.3684C88.3515 55.486 88.4142 55.6585 88.4142 55.8703V60.2379C88.4142 60.7163 88.4691 61.0848 88.5789 61.3436C88.6886 61.6023 88.8689 61.7905 89.1276 61.8925C89.3863 62.0023 89.7547 62.0572 90.2328 62.0572H90.6875C91.3695 62.0572 91.9417 61.9787 92.412 61.8219C92.8824 61.6651 93.1489 61.4377 93.2116 61.1319V55.8781C93.2116 55.6585 93.2743 55.4939 93.3919 55.3762C93.5095 55.2586 93.6819 55.1959 93.8936 55.1959C94.1052 55.1959 94.2777 55.2586 94.3952 55.3762V55.3684Z" fill="white"/>
<path d="M104.374 55.9722C104.891 56.4897 105.15 57.2896 105.15 58.3717V60.2379C105.15 61.3201 104.891 62.1199 104.374 62.6374C103.857 63.1549 103.057 63.4137 101.975 63.4137H98.832V65.9779C98.832 66.1974 98.7693 66.3621 98.6517 66.4797C98.5341 66.5973 98.3616 66.6601 98.15 66.6601C97.9383 66.6601 97.7659 66.5973 97.6483 66.4797C97.5307 66.3621 97.468 66.1896 97.468 65.9779V55.8703C97.468 55.6507 97.5307 55.486 97.6483 55.3684C97.7659 55.2508 97.9383 55.188 98.15 55.188C98.3616 55.188 98.5341 55.2508 98.6517 55.3684C98.7693 55.486 98.832 55.6585 98.832 55.8703V56.082C99.4277 55.486 100.266 55.188 101.364 55.188H101.983C103.065 55.188 103.864 55.4468 104.382 55.9644L104.374 55.9722ZM103.786 58.3717C103.786 57.8933 103.731 57.5248 103.621 57.266C103.512 57.0073 103.331 56.8191 103.073 56.7171C102.814 56.6073 102.446 56.5525 101.967 56.5525H101.348C100.635 56.5525 100.039 56.6387 99.5688 56.8112C99.0985 56.9837 98.8476 57.2425 98.8163 57.5718V62.0493H101.96C102.438 62.0493 102.806 61.9944 103.065 61.8846C103.324 61.7749 103.512 61.5945 103.614 61.3357C103.723 61.077 103.778 60.7084 103.778 60.2301V58.3638L103.786 58.3717Z" fill="white"/>
<path d="M114.557 55.9722C115.074 56.4897 115.333 57.2896 115.333 58.3717V60.2379C115.333 61.3201 115.074 62.1199 114.557 62.6374C114.039 63.1549 113.24 63.4137 112.158 63.4137H109.015V65.9779C109.015 66.1974 108.952 66.3621 108.834 66.4797C108.717 66.5973 108.544 66.6601 108.333 66.6601C108.121 66.6601 107.949 66.5973 107.831 66.4797C107.713 66.3621 107.651 66.1896 107.651 65.9779V55.8703C107.651 55.6507 107.713 55.486 107.831 55.3684C107.949 55.2508 108.121 55.188 108.333 55.188C108.544 55.188 108.717 55.2508 108.834 55.3684C108.952 55.486 109.015 55.6585 109.015 55.8703V56.082C109.61 55.486 110.449 55.188 111.547 55.188H112.166C113.248 55.188 114.047 55.4468 114.564 55.9644L114.557 55.9722ZM113.969 58.3717C113.969 57.8933 113.914 57.5248 113.804 57.266C113.694 57.0073 113.514 56.8191 113.255 56.7171C112.997 56.6073 112.628 56.5525 112.15 56.5525H111.531C110.818 56.5525 110.222 56.6387 109.751 56.8112C109.281 56.9837 109.03 57.2425 108.999 57.5718V62.0493H112.142C112.62 62.0493 112.989 61.9944 113.248 61.8846C113.506 61.7749 113.694 61.5945 113.796 61.3357C113.906 61.077 113.961 60.7084 113.961 60.2301V58.3638L113.969 58.3717Z" fill="white"/>
<path d="M118.225 62.6374C117.708 62.1199 117.449 61.3201 117.449 60.2537V58.3717C117.449 57.2896 117.708 56.4898 118.225 55.9722C118.742 55.4547 119.542 55.1959 120.624 55.1959H121.956C123.038 55.1959 123.838 55.4547 124.355 55.9722C124.872 56.4898 125.131 57.2896 125.131 58.3717V60.238C125.131 61.3201 124.872 62.1199 124.355 62.6374C123.838 63.155 123.038 63.4137 121.956 63.4137H120.624C119.542 63.4137 118.742 63.155 118.225 62.6374ZM121.956 62.0572C122.434 62.0572 122.803 62.0023 123.062 61.8925C123.32 61.7827 123.508 61.6024 123.61 61.3436C123.72 61.0848 123.775 60.7163 123.775 60.238V58.3717C123.775 57.8934 123.72 57.5248 123.61 57.2661C123.501 57.0073 123.32 56.8191 123.062 56.7172C122.803 56.6074 122.434 56.5525 121.956 56.5525H120.624C120.138 56.5525 119.769 56.6074 119.511 56.7172C119.26 56.8269 119.072 57.0073 118.97 57.2582C118.86 57.5091 118.805 57.8855 118.805 58.3717V60.2537C118.805 60.732 118.86 61.0927 118.97 61.3515C119.079 61.6024 119.26 61.7906 119.518 61.8925C119.777 62.0023 120.146 62.0572 120.624 62.0572H121.956Z" fill="white"/>
<path d="M132.421 55.3684C132.539 55.486 132.601 55.6585 132.601 55.8703C132.601 56.082 132.539 56.2545 132.421 56.3721C132.303 56.4897 132.131 56.5525 131.919 56.5525C131.002 56.5525 130.289 56.725 129.787 57.0622C129.286 57.3993 129.019 57.862 129.003 58.4501V62.7315C129.003 62.9511 128.941 63.1157 128.823 63.2334C128.705 63.351 128.533 63.4137 128.321 63.4137C128.11 63.4137 127.937 63.351 127.82 63.2334C127.702 63.1157 127.639 62.9432 127.639 62.7315V55.8703C127.639 55.4155 127.867 55.188 128.321 55.188C128.776 55.188 129.003 55.4155 129.003 55.8703V56.5054C129.662 55.6272 130.634 55.188 131.919 55.188C133.205 55.188 132.303 55.2508 132.421 55.3684Z" fill="white"/>
<path d="M138.222 62.7316C138.222 62.9511 138.159 63.1158 138.042 63.2334C137.924 63.351 137.751 63.4138 137.54 63.4138C136.466 63.4138 135.682 63.1628 135.173 62.6531C134.663 62.1435 134.412 61.3593 134.412 60.3007V56.5525H133.62C133.401 56.5525 133.236 56.4898 133.119 56.3722C133.001 56.2545 132.938 56.082 132.938 55.8703C132.938 55.4155 133.166 55.1881 133.62 55.1881H134.412V54.004C134.412 53.7845 134.475 53.6198 134.592 53.5022C134.71 53.3846 134.882 53.3218 135.094 53.3218C135.306 53.3218 135.478 53.3846 135.596 53.5022C135.713 53.6198 135.776 53.7923 135.776 54.004V55.1881H137.642C138.096 55.1881 138.324 55.4155 138.324 55.8703C138.324 56.3251 138.261 56.2545 138.143 56.3722C138.026 56.4898 137.853 56.5525 137.642 56.5525H135.776V60.3007C135.776 60.7634 135.831 61.1241 135.941 61.375C136.05 61.6259 136.231 61.7984 136.474 61.9004C136.725 62.0023 137.077 62.0572 137.548 62.0572C138.018 62.0572 138.23 62.2846 138.23 62.7394L138.222 62.7316Z" fill="white"/>
<path d="M140.26 53.6512C140.127 53.51 140.056 53.3218 140.056 53.0866V52.6004C140.056 52.3495 140.127 52.1613 140.26 52.0437C140.393 51.9182 140.589 51.8555 140.832 51.8555H141.303C141.789 51.8555 142.032 52.1064 142.032 52.6004V53.0866C142.032 53.3375 141.969 53.5257 141.843 53.659C141.718 53.7923 141.538 53.8629 141.303 53.8629H140.832C140.581 53.8629 140.393 53.7923 140.26 53.6512ZM140.558 63.2412C140.44 63.1236 140.378 62.9511 140.378 62.7394V55.8781C140.378 55.6586 140.44 55.4939 140.558 55.3763C140.675 55.2587 140.848 55.1959 141.06 55.1959C141.271 55.1959 141.444 55.2587 141.561 55.3763C141.679 55.4939 141.741 55.6664 141.741 55.8781V62.7394C141.741 62.9589 141.679 63.1236 141.561 63.2412C141.444 63.3589 141.271 63.4216 141.06 63.4216C140.848 63.4216 140.675 63.3589 140.558 63.2412Z" fill="white"/>
<path d="M151.383 55.9722C151.901 56.4897 152.159 57.2896 152.159 58.3717V62.7394C152.159 62.9589 152.097 63.1236 151.979 63.2412C151.861 63.3588 151.689 63.4216 151.477 63.4216C151.266 63.4216 151.093 63.3588 150.976 63.2412C150.858 63.1236 150.795 62.9511 150.795 62.7394V58.3717C150.795 57.8933 150.74 57.5248 150.631 57.266C150.521 57.0073 150.341 56.8191 150.082 56.7171C149.823 56.6073 149.455 56.5525 148.977 56.5525H148.522C147.84 56.5525 147.268 56.6309 146.798 56.7877C146.327 56.9445 146.061 57.1719 145.998 57.4778V62.7315C145.998 62.9511 145.935 63.1157 145.818 63.2334C145.7 63.351 145.528 63.4137 145.316 63.4137C145.104 63.4137 144.932 63.351 144.814 63.2334C144.697 63.1157 144.634 62.9432 144.634 62.7315V55.8703C144.634 55.4155 144.861 55.188 145.316 55.188C145.771 55.188 145.998 55.4155 145.998 55.8703V56.1447C146.57 55.5095 147.417 55.188 148.53 55.188H148.985C150.066 55.188 150.866 55.4468 151.383 55.9644V55.9722Z" fill="white"/>
<path d="M162.185 55.8703V64.3233C162.185 65.1232 161.997 65.7113 161.621 66.0955C161.244 66.4719 160.656 66.6601 159.849 66.6601H156.831C155.522 66.6601 154.762 66.1269 154.558 65.0526C154.55 65.0212 154.542 64.9663 154.542 64.8879C154.542 64.7154 154.605 64.5743 154.722 64.4723C154.84 64.3704 155.012 64.3155 155.224 64.3155C155.436 64.3155 155.561 64.3704 155.663 64.4723C155.757 64.5743 155.843 64.7468 155.922 64.982C155.984 65.0996 156.086 65.1859 156.22 65.2251C156.353 65.2643 156.557 65.2878 156.831 65.2878H159.849C160.249 65.2878 160.507 65.2251 160.633 65.0996C160.758 64.9742 160.821 64.7154 160.821 64.3155V62.4335C160.531 62.7472 160.17 62.9903 159.731 63.155C159.3 63.3196 158.814 63.4059 158.289 63.4059H157.67C156.588 63.4059 155.789 63.1471 155.271 62.6296C154.754 62.112 154.495 61.3122 154.495 60.2458V58.3638C154.495 57.2739 154.754 56.4662 155.271 55.9487C155.789 55.4311 156.588 55.1724 157.67 55.1881H159.002C159.778 55.1881 160.39 55.4155 160.821 55.8703C160.821 55.4155 161.048 55.1881 161.503 55.1881C161.958 55.1881 162.185 55.4155 162.185 55.8703ZM160.123 61.767C160.586 61.5788 160.821 61.2965 160.821 60.928V57.6816C160.821 57.2582 160.672 56.9681 160.366 56.7955C160.061 56.6309 159.606 56.5446 159.002 56.5446H157.67C157.192 56.5368 156.823 56.5838 156.565 56.6936C156.306 56.8034 156.118 56.9837 156.016 57.2425C155.906 57.5013 155.851 57.8777 155.851 58.3638V60.2458C155.851 60.7241 155.906 61.0848 156.016 61.3436C156.126 61.5945 156.306 61.7827 156.565 61.8846C156.823 61.9944 157.192 62.0493 157.67 62.0493H158.289C159.049 62.0493 159.661 61.9552 160.123 61.767Z" fill="white"/>
<path d="M75.8172 77.1519C75.684 77.1519 75.5899 77.1206 75.5193 77.0578C75.4488 76.9951 75.4174 76.8932 75.4174 76.7677C75.4174 76.1953 75.5272 75.7169 75.7467 75.3327C75.9661 74.9485 76.2327 74.6427 76.5462 74.4153C76.8598 74.1879 77.2831 73.9213 77.8318 73.6154C78.3256 73.3331 78.6784 73.1214 78.89 72.9803C79.1017 72.8391 79.2741 72.6823 79.3995 72.5098C79.525 72.3373 79.5877 72.1256 79.5877 71.8825C79.5877 71.4355 79.5093 71.1297 79.3447 70.965C79.1801 70.8004 78.8743 70.7219 78.4275 70.7219H77.2674C76.899 70.7219 76.6246 70.7768 76.4522 70.8945C76.2797 71.0121 76.17 71.2081 76.1229 71.4904C76.0837 71.7413 75.9505 71.8746 75.7231 71.8746C75.4958 71.8746 75.4958 71.8433 75.4331 71.7727C75.3704 71.7021 75.339 71.6002 75.3469 71.4747C75.4096 70.9493 75.6056 70.5651 75.9191 70.3142C76.2327 70.0633 76.6873 69.9378 77.2752 69.9378H78.4354C79.1017 69.9378 79.5955 70.0946 79.9091 70.4083C80.2226 70.7219 80.3794 71.216 80.3794 71.8825C80.3794 72.549 80.2853 72.5961 80.105 72.8783C79.9169 73.1606 79.6974 73.388 79.4231 73.5762C79.1565 73.7644 78.7568 73.9997 78.2237 74.2976C77.7534 74.5643 77.4007 74.7838 77.1655 74.9406C76.9303 75.0975 76.7344 75.3013 76.5619 75.5366C76.3894 75.7718 76.2875 76.0541 76.2405 76.3913H79.9483C80.2069 76.3913 80.3402 76.5246 80.3402 76.7834C80.3402 77.0421 80.2069 77.1755 79.9483 77.1755H75.8251L75.8172 77.1519Z" fill="white"/>
<path d="M82.2292 76.5717C81.8451 76.1875 81.6492 75.5915 81.6492 74.776V72.2746C81.6492 71.4591 81.8373 70.8553 82.2292 70.4711C82.6133 70.0868 83.2091 69.9065 84.0243 69.9143H84.6749C85.4902 69.9143 86.0938 70.1025 86.4779 70.4867C86.862 70.871 87.0501 71.4669 87.0501 72.2903V74.7838C87.0501 75.5994 86.862 76.1953 86.4779 76.5795C86.0938 76.9638 85.498 77.1598 84.6749 77.1598H84.0243C83.2091 77.1598 82.6133 76.9716 82.2292 76.5795V76.5717ZM84.6749 76.3678C85.0826 76.3678 85.3961 76.3208 85.6234 76.2188C85.8508 76.1247 86.0154 75.9601 86.1094 75.7327C86.2035 75.5053 86.2584 75.1838 86.2584 74.7838V72.2903C86.2584 71.8825 86.2113 71.5689 86.1094 71.3414C86.0075 71.114 85.8508 70.9494 85.6234 70.8553C85.3961 70.7612 85.0747 70.7063 84.6749 70.7063H84.0243C83.6167 70.7063 83.3032 70.7455 83.0758 70.8396C82.8485 70.9337 82.6839 71.0984 82.5898 71.3258C82.4958 71.5532 82.4409 71.8747 82.4409 72.2746V74.776C82.4409 75.1838 82.4879 75.4974 82.5898 75.7248C82.6917 75.9522 82.8485 76.1169 83.0758 76.211C83.3032 76.3051 83.6245 76.36 84.0243 76.36H84.6749V76.3678ZM83.9616 73.9291C83.8911 73.8586 83.8597 73.7645 83.8597 73.639V73.3881C83.8597 73.1371 83.993 73.0038 84.2517 73.0038H84.4947C84.7377 73.0038 84.8631 73.1293 84.8631 73.3881V73.639C84.8631 73.7645 84.8317 73.8586 84.769 73.9291C84.7063 73.9997 84.6122 74.0311 84.4947 74.0311H84.2517C84.1262 74.0311 84.0322 73.9997 83.9616 73.9291Z" fill="white"/>
<path d="M88.7354 77.1519C88.6022 77.1519 88.5081 77.1206 88.4375 77.0578C88.367 76.9951 88.3357 76.8932 88.3357 76.7677C88.3357 76.1953 88.4454 75.7169 88.6649 75.3327C88.8844 74.9485 89.1509 74.6427 89.4644 74.4153C89.778 74.1879 90.2013 73.9213 90.75 73.6154C91.2438 73.3331 91.5966 73.1214 91.8082 72.9803C92.0199 72.8391 92.1923 72.6823 92.3178 72.5098C92.4432 72.3373 92.5059 72.1256 92.5059 71.8825C92.5059 71.4355 92.4275 71.1297 92.2629 70.965C92.0983 70.8004 91.7926 70.7219 91.3457 70.7219H90.1856C89.8172 70.7219 89.5428 70.7768 89.3704 70.8945C89.1979 71.0121 89.0882 71.2081 89.0411 71.4904C89.0019 71.7413 88.8687 71.8746 88.6414 71.8746C88.414 71.8746 88.414 71.8433 88.3513 71.7727C88.2886 71.7021 88.2573 71.6002 88.2651 71.4747C88.3278 70.9493 88.5238 70.5651 88.8373 70.3142C89.1509 70.0633 89.6055 69.9378 90.1934 69.9378H91.3536C92.0199 69.9378 92.5137 70.0946 92.8273 70.4083C93.1408 70.7219 93.2976 71.216 93.2976 71.8825C93.2976 72.549 93.2035 72.5961 93.0232 72.8783C92.8351 73.1606 92.6156 73.388 92.3413 73.5762C92.0748 73.7644 91.675 73.9997 91.1419 74.2976C90.6716 74.5643 90.3189 74.7838 90.0837 74.9406C89.8485 75.0975 89.6526 75.3013 89.4801 75.5366C89.3077 75.7718 89.2058 76.0541 89.1587 76.3913H92.8665C93.1251 76.3913 93.2584 76.5246 93.2584 76.7834C93.2584 77.0421 93.1251 77.1755 92.8665 77.1755H88.7433L88.7354 77.1519Z" fill="white"/>
<path d="M94.7401 77.1519C94.6068 77.1519 94.5127 77.1206 94.4422 77.0578C94.3716 76.9951 94.3403 76.8932 94.3403 76.7677C94.3403 76.1953 94.45 75.7169 94.6695 75.3327C94.889 74.9485 95.1555 74.6427 95.4691 74.4153C95.7826 74.1879 96.2059 73.9213 96.7546 73.6154C97.2485 73.3331 97.6012 73.1214 97.8129 72.9803C98.0245 72.8391 98.197 72.6823 98.3224 72.5098C98.4478 72.3373 98.5105 72.1256 98.5105 71.8825C98.5105 71.4355 98.4321 71.1297 98.2675 70.965C98.1029 70.8004 97.7972 70.7219 97.3504 70.7219H96.1902C95.8218 70.7219 95.5475 70.7768 95.375 70.8945C95.2026 71.0121 95.0928 71.2081 95.0458 71.4904C95.0066 71.7413 94.8733 71.8746 94.646 71.8746C94.4187 71.8746 94.4187 71.8433 94.356 71.7727C94.2933 71.7021 94.2619 71.6002 94.2697 71.4747C94.3324 70.9493 94.5284 70.5651 94.842 70.3142C95.1555 70.0633 95.6102 69.9378 96.1981 69.9378H97.3582C98.0245 69.9378 98.5184 70.0946 98.8319 70.4083C99.1455 70.7219 99.3022 71.216 99.3022 71.8825C99.3022 72.549 99.2082 72.5961 99.0279 72.8783C98.8398 73.1606 98.6203 73.388 98.3459 73.5762C98.0794 73.7644 97.6796 73.9997 97.1466 74.2976C96.6763 74.5643 96.3235 74.7838 96.0883 74.9406C95.8532 75.0975 95.6572 75.3013 95.4848 75.5366C95.3123 75.7718 95.2104 76.0541 95.1634 76.3913H98.8711C99.1298 76.3913 99.2631 76.5246 99.2631 76.7834C99.2631 77.0421 99.1298 77.1755 98.8711 77.1755H94.7479L94.7401 77.1519Z" fill="white"/>
<path d="M100.674 74.4545C100.611 74.3917 100.58 74.3133 100.58 74.2114C100.58 74.1095 100.611 74.0389 100.674 73.9683C100.737 73.9056 100.815 73.8742 100.917 73.8742H103.919C104.013 73.8742 104.092 73.9056 104.162 73.9683C104.225 74.031 104.256 74.1173 104.256 74.2114C104.256 74.3055 104.225 74.3839 104.162 74.4545C104.099 74.5172 104.013 74.5486 103.919 74.5486H100.917C100.823 74.5486 100.744 74.5172 100.674 74.4545Z" fill="white"/>
<path d="M105.934 77.1519C105.801 77.1519 105.707 77.1206 105.636 77.0578C105.565 76.9951 105.534 76.8932 105.534 76.7677C105.534 76.1953 105.644 75.7169 105.863 75.3327C106.083 74.9485 106.349 74.6427 106.663 74.4153C106.976 74.1879 107.4 73.9213 107.948 73.6154C108.442 73.3331 108.795 73.1214 109.007 72.9803C109.218 72.8391 109.391 72.6823 109.516 72.5098C109.642 72.3373 109.704 72.1256 109.704 71.8825C109.704 71.4355 109.626 71.1297 109.461 70.965C109.297 70.8004 108.991 70.7219 108.544 70.7219H107.384C107.016 70.7219 106.741 70.7768 106.569 70.8945C106.396 71.0121 106.287 71.2081 106.24 71.4904C106.2 71.7413 106.067 71.8746 105.84 71.8746C105.613 71.8746 105.613 71.8433 105.55 71.7727C105.487 71.7021 105.456 71.6002 105.464 71.4747C105.526 70.9493 105.722 70.5651 106.036 70.3142C106.349 70.0633 106.804 69.9378 107.392 69.9378H108.552C109.218 69.9378 109.712 70.0946 110.026 70.4083C110.339 70.7219 110.496 71.216 110.496 71.8825C110.496 72.549 110.402 72.5961 110.222 72.8783C110.034 73.1606 109.814 73.388 109.54 73.5762C109.273 73.7644 108.873 73.9997 108.34 74.2976C107.87 74.5643 107.517 74.7838 107.282 74.9406C107.047 75.0975 106.851 75.3013 106.679 75.5366C106.506 75.7718 106.404 76.0541 106.357 76.3913H110.065C110.324 76.3913 110.457 76.5246 110.457 76.7834C110.457 77.0421 110.324 77.1755 110.065 77.1755H105.942L105.934 77.1519Z" fill="white"/>
<path d="M112.354 76.5717C111.97 76.1875 111.774 75.5915 111.774 74.776V72.2746C111.774 71.4591 111.962 70.8553 112.354 70.4711C112.738 70.0868 113.334 69.9065 114.149 69.9143H114.799C115.615 69.9143 116.218 70.1025 116.602 70.4867C116.986 70.871 117.175 71.4669 117.175 72.2903V74.7838C117.175 75.5994 116.986 76.1953 116.602 76.5795C116.218 76.9638 115.623 77.1598 114.799 77.1598H114.149C113.334 77.1598 112.738 76.9716 112.354 76.5795V76.5717ZM114.799 76.3678C115.207 76.3678 115.521 76.3208 115.748 76.2188C115.975 76.1247 116.14 75.9601 116.234 75.7327C116.328 75.5053 116.383 75.1838 116.383 74.7838V72.2903C116.383 71.8825 116.336 71.5689 116.234 71.3414C116.132 71.114 115.975 70.9494 115.748 70.8553C115.521 70.7612 115.199 70.7063 114.799 70.7063H114.149C113.741 70.7063 113.428 70.7455 113.2 70.8396C112.973 70.9337 112.808 71.0984 112.714 71.3258C112.62 71.5532 112.565 71.8747 112.565 72.2746V74.776C112.565 75.1838 112.612 75.4974 112.714 75.7248C112.816 75.9522 112.973 76.1169 113.2 76.211C113.428 76.3051 113.749 76.36 114.149 76.36H114.799V76.3678ZM114.086 73.9291C114.016 73.8586 113.984 73.7645 113.984 73.639V73.3881C113.984 73.1371 114.117 73.0038 114.376 73.0038H114.619C114.862 73.0038 114.988 73.1293 114.988 73.3881V73.639C114.988 73.7645 114.956 73.8586 114.894 73.9291C114.831 73.9997 114.737 74.0311 114.619 74.0311H114.376C114.251 74.0311 114.157 73.9997 114.086 73.9291Z" fill="white"/>
<path d="M118.852 77.1519C118.719 77.1519 118.625 77.1206 118.554 77.0578C118.484 76.9951 118.452 76.8932 118.452 76.7677C118.452 76.1953 118.562 75.7169 118.782 75.3327C119.001 74.9485 119.268 74.6427 119.581 74.4153C119.895 74.1879 120.318 73.9213 120.867 73.6154C121.361 73.3331 121.713 73.1214 121.925 72.9803C122.137 72.8391 122.309 72.6823 122.434 72.5098C122.56 72.3373 122.623 72.1256 122.623 71.8825C122.623 71.4355 122.544 71.1297 122.38 70.965C122.215 70.8004 121.909 70.7219 121.462 70.7219H120.302C119.934 70.7219 119.66 70.7768 119.487 70.8945C119.315 71.0121 119.205 71.2081 119.158 71.4904C119.119 71.7413 118.985 71.8746 118.758 71.8746C118.531 71.8746 118.531 71.8433 118.468 71.7727C118.405 71.7021 118.374 71.6002 118.382 71.4747C118.445 70.9493 118.64 70.5651 118.954 70.3142C119.268 70.0633 119.722 69.9378 120.31 69.9378H121.47C122.137 69.9378 122.63 70.0946 122.944 70.4083C123.258 70.7219 123.414 71.216 123.414 71.8825C123.414 72.549 123.32 72.5961 123.14 72.8783C122.952 73.1606 122.732 73.388 122.458 73.5762C122.191 73.7644 121.792 73.9997 121.259 74.2976C120.788 74.5643 120.436 74.7838 120.2 74.9406C119.965 75.0975 119.769 75.3013 119.597 75.5366C119.424 75.7718 119.322 76.0541 119.275 76.3913H122.983C123.242 76.3913 123.375 76.5246 123.375 76.7834C123.375 77.0421 123.242 77.1755 122.983 77.1755H118.86L118.852 77.1519Z" fill="white"/>
<path d="M125.28 76.7442C124.943 76.4776 124.747 76.062 124.692 75.5053C124.692 75.372 124.716 75.2778 124.778 75.2073C124.841 75.1367 124.943 75.1053 125.068 75.1053C125.311 75.1053 125.445 75.2386 125.468 75.4974C125.515 75.8268 125.625 76.0542 125.813 76.1796C126.001 76.3051 126.299 76.3678 126.715 76.3678H127.843C128.18 76.3678 128.431 76.3286 128.612 76.2502C128.792 76.1718 128.925 76.0385 128.996 75.8581C129.074 75.6778 129.113 75.4268 129.113 75.0975V74.3447C129.113 74.0154 129.074 73.7645 128.996 73.5841C128.917 73.4037 128.784 73.2704 128.604 73.192C128.423 73.1136 128.173 73.0744 127.843 73.0744H127.036C126.456 73.0744 126.04 73.1607 125.782 73.3253C125.641 73.4273 125.523 73.4743 125.413 73.4743C125.304 73.4743 125.296 73.4743 125.264 73.4508L125.178 73.4273C124.951 73.3645 124.841 73.2156 124.841 72.996V70.3064C124.841 70.1809 124.872 70.0868 124.943 70.0162C125.014 69.9457 125.108 69.9143 125.233 69.9143H129.482C129.74 69.9143 129.874 70.0476 129.874 70.3064C129.874 70.5651 129.74 70.6985 129.482 70.6985H125.625V72.5177C125.993 72.3687 126.464 72.2903 127.036 72.2903H127.843C128.549 72.2903 129.066 72.4549 129.395 72.7921C129.732 73.1293 129.897 73.6468 129.897 74.3447V75.0975C129.897 75.8032 129.732 76.3208 129.395 76.6501C129.058 76.9873 128.541 77.152 127.843 77.152H126.715C126.087 77.152 125.601 77.0186 125.272 76.752L125.28 76.7442Z" fill="white"/>
<path d="M168.699 63.3824C168.276 63.2177 168.15 62.9276 168.315 62.5041L172.109 53.1572C172.266 52.8043 172.517 52.6318 172.862 52.6318H172.893C173.238 52.6475 173.473 52.82 173.598 53.1572L177.455 62.5041C177.628 62.9276 177.502 63.2177 177.087 63.3824C176.663 63.5471 176.373 63.4216 176.209 63.0138L175.346 60.928H170.377L169.554 63.0138C169.389 63.4294 169.099 63.5549 168.691 63.3824H168.699ZM170.91 59.5871H174.798L172.814 54.7568L170.91 59.5871Z" fill="white"/>
<path d="M180.496 63.4451C180.269 63.4451 180.097 63.3902 179.987 63.2804C179.877 63.1707 179.822 63.006 179.822 62.7708V53.314C179.822 53.0787 179.877 52.9141 179.987 52.8043C180.097 52.6945 180.261 52.6475 180.496 52.6475C180.732 52.6475 180.904 52.7024 181.006 52.8043C181.108 52.9141 181.163 53.0787 181.163 53.314V62.7708C181.163 62.9982 181.108 63.1707 181.006 63.2804C180.896 63.3902 180.732 63.4451 180.496 63.4451Z" fill="white"/>
<path d="M186.493 60.6928C185.435 60.6928 184.651 60.434 184.141 59.9243C183.624 59.4146 183.373 58.6305 183.373 57.5797V55.7291C183.373 54.6627 183.632 53.8707 184.141 53.361C184.651 52.8513 185.435 52.6004 186.493 52.6004H187.802C188.868 52.6004 189.652 52.8592 190.162 53.3689C190.671 53.8786 190.93 54.6627 190.93 55.7291V57.564C190.93 58.6226 190.679 59.4068 190.162 59.9165C189.652 60.4262 188.868 60.6849 187.802 60.6849H186.493V60.6928ZM184.706 57.5797C184.706 58.2619 184.831 58.7324 185.082 58.9755C185.333 59.2264 185.803 59.344 186.493 59.344H187.802C188.5 59.344 188.97 59.2186 189.213 58.9677C189.464 58.7167 189.582 58.2462 189.582 57.5562V55.7213C189.582 55.0234 189.456 54.5529 189.213 54.3098C188.97 54.0589 188.492 53.9413 187.802 53.9413H186.493C186.031 53.9413 185.67 53.9962 185.411 54.0981C185.153 54.2001 184.972 54.3804 184.863 54.6392C184.753 54.8979 184.706 55.2587 184.706 55.7291V57.5797Z" fill="white"/>
<path d="M193.814 63.4451C193.368 63.4451 193.148 63.2255 193.148 62.7786V53.3061C193.148 52.8591 193.368 52.6396 193.814 52.6396H197.655C199.043 52.6396 200.062 52.9689 200.72 53.6276C201.379 54.2863 201.7 55.3057 201.7 56.6936V59.4067C201.7 60.7947 201.371 61.8141 200.728 62.4728C200.078 63.1314 199.051 63.4608 197.655 63.4608H193.814V63.4451ZM194.481 62.1042H197.655C198.337 62.1042 198.871 62.0179 199.27 61.8533C199.662 61.6886 199.952 61.4063 200.117 61.0064C200.281 60.6143 200.368 60.0733 200.368 59.3911V56.6779C200.368 56.0036 200.281 55.4703 200.117 55.0704C199.952 54.6784 199.67 54.3882 199.27 54.2236C198.878 54.051 198.337 53.9648 197.655 53.9648H194.481V62.0964V62.1042Z" fill="white"/>
<path d="M188.931 62.0807H185.372C185.004 62.0807 184.698 62.3787 184.698 62.7551C184.698 63.1314 184.996 63.4294 185.372 63.4294H188.931C189.299 63.4294 189.605 63.1314 189.605 62.7551C189.605 62.3787 189.307 62.0807 188.931 62.0807Z" fill="white"/>
</svg>
