<svg width="1080" height="189" viewBox="0 0 1080 189" fill="none" xmlns="http://www.w3.org/2000/svg">
<path d="M246.929 164.884C239.93 164.884 234.807 163.279 231.559 160.07C228.35 156.861 226.745 151.776 226.745 144.816C226.745 144.12 226.977 143.54 227.441 143.076C227.905 142.612 228.485 142.38 229.181 142.38C229.877 142.38 230.457 142.612 230.921 143.076C231.385 143.54 231.617 144.12 231.617 144.816C231.617 150.423 232.738 154.367 234.981 156.648C237.262 158.891 241.245 160.012 246.929 160.012H263.633C269.317 160.012 273.28 158.891 275.523 156.648C277.804 154.367 278.945 150.423 278.945 144.816C278.945 139.171 277.804 135.227 275.523 132.984C273.28 130.741 269.317 129.62 263.633 129.62H247.277C240.626 129.62 235.774 128.112 232.719 125.096C229.664 122.041 228.137 117.208 228.137 110.596C228.137 103.984 229.645 99.17 232.661 96.154C235.716 93.0993 240.549 91.572 247.161 91.572H264.213C270.825 91.572 275.639 93.08 278.655 96.096C281.71 99.112 283.237 103.907 283.237 110.48C283.237 111.176 283.005 111.756 282.541 112.22C282.077 112.684 281.497 112.916 280.801 112.916C280.105 112.916 279.525 112.684 279.061 112.22C278.597 111.756 278.365 111.176 278.365 110.48C278.365 105.299 277.302 101.664 275.175 99.576C273.087 97.488 269.433 96.444 264.213 96.444H247.161C241.941 96.444 238.268 97.5073 236.141 99.634C234.053 101.722 233.009 105.376 233.009 110.596C233.009 115.816 234.072 119.489 236.199 121.616C238.326 123.704 242.018 124.748 247.277 124.748H263.633C270.67 124.748 275.794 126.353 279.003 129.562C282.212 132.771 283.817 137.856 283.817 144.816C283.817 151.776 282.212 156.861 279.003 160.07C275.794 163.279 270.67 164.884 263.633 164.884H246.929ZM346.783 111.524C348.407 111.524 349.219 112.336 349.219 113.96V162.564C349.219 164.188 348.407 165 346.783 165C345.159 165 344.347 164.188 344.347 162.564V155.836C340.828 161.945 333.984 165 323.815 165H320.567C313.491 165 308.329 163.395 305.081 160.186C301.872 156.938 300.267 151.776 300.267 144.7V113.96C300.267 112.336 301.079 111.524 302.703 111.524C304.327 111.524 305.139 112.336 305.139 113.96V144.7C305.139 150.384 306.28 154.386 308.561 156.706C310.881 158.987 314.883 160.128 320.567 160.128H323.815C330.234 160.128 335.164 159.026 338.605 156.822C342.046 154.618 343.96 151.235 344.347 146.672V113.96C344.347 112.336 345.159 111.524 346.783 111.524ZM372.509 188.2C370.885 188.2 370.073 187.388 370.073 185.764V113.96C370.073 112.336 370.885 111.524 372.509 111.524C374.133 111.524 374.945 112.336 374.945 113.96V120.34C376.569 117.44 379.024 115.255 382.311 113.786C385.636 112.278 390.025 111.524 395.477 111.524H399.885C406.961 111.524 412.103 113.148 415.313 116.396C418.561 119.605 420.185 124.748 420.185 131.824V144.7C420.185 151.776 418.561 156.938 415.313 160.186C412.103 163.395 406.961 165 399.885 165H374.945V185.764C374.945 187.388 374.133 188.2 372.509 188.2ZM374.945 160.128H399.885C405.569 160.128 409.551 158.987 411.833 156.706C414.153 154.386 415.313 150.384 415.313 144.7V131.824C415.313 126.14 414.153 122.157 411.833 119.876C409.551 117.556 405.569 116.396 399.885 116.396H395.477C388.865 116.396 383.935 117.498 380.687 119.702C377.439 121.867 375.525 125.212 374.945 129.736V160.128ZM442.29 188.2C440.666 188.2 439.854 187.388 439.854 185.764V113.96C439.854 112.336 440.666 111.524 442.29 111.524C443.914 111.524 444.726 112.336 444.726 113.96V120.34C446.35 117.44 448.805 115.255 452.092 113.786C455.417 112.278 459.806 111.524 465.258 111.524H469.666C476.742 111.524 481.885 113.148 485.094 116.396C488.342 119.605 489.966 124.748 489.966 131.824V144.7C489.966 151.776 488.342 156.938 485.094 160.186C481.885 163.395 476.742 165 469.666 165H444.726V185.764C444.726 187.388 443.914 188.2 442.29 188.2ZM444.726 160.128H469.666C475.35 160.128 479.333 158.987 481.614 156.706C483.934 154.386 485.094 150.384 485.094 144.7V131.824C485.094 126.14 483.934 122.157 481.614 119.876C479.333 117.556 475.35 116.396 469.666 116.396H465.258C458.646 116.396 453.716 117.498 450.468 119.702C447.22 121.867 445.306 125.212 444.726 129.736V160.128ZM528.775 165C521.699 165 516.537 163.395 513.289 160.186C510.08 156.938 508.475 151.815 508.475 144.816V131.824C508.475 124.671 510.08 119.489 513.289 116.28C516.537 113.032 521.699 111.447 528.775 111.524H538.287C545.363 111.524 550.506 113.148 553.715 116.396C556.963 119.605 558.587 124.748 558.587 131.824V144.7C558.587 151.776 556.963 156.938 553.715 160.186C550.506 163.395 545.363 165 538.287 165H528.775ZM513.347 144.816C513.347 150.423 514.488 154.386 516.769 156.706C519.089 158.987 523.091 160.128 528.775 160.128H538.287C543.971 160.128 547.954 158.987 550.235 156.706C552.555 154.386 553.715 150.384 553.715 144.7V131.824C553.715 126.14 552.555 122.157 550.235 119.876C547.954 117.556 543.971 116.396 538.287 116.396H528.775C524.986 116.357 521.951 116.841 519.669 117.846C517.427 118.813 515.803 120.437 514.797 122.718C513.831 124.961 513.347 127.996 513.347 131.824V144.816ZM580.72 165C579.096 165 578.284 164.188 578.284 162.564V113.96C578.284 112.336 579.096 111.524 580.72 111.524C582.344 111.524 583.156 112.336 583.156 113.96V124.342C585.089 120.205 587.989 117.034 591.856 114.83C595.761 112.626 600.44 111.524 605.892 111.524C607.516 111.524 608.328 112.336 608.328 113.96C608.328 115.584 607.516 116.396 605.892 116.396C598.932 116.396 593.518 118.059 589.652 121.384C585.785 124.709 583.62 129.543 583.156 135.884V162.564C583.156 164.188 582.344 165 580.72 165ZM641.661 165C634.701 165 629.635 163.415 626.465 160.244C623.294 157.073 621.709 152.047 621.709 145.164V116.396H614.401C612.777 116.396 611.965 115.584 611.965 113.96C611.965 112.336 612.777 111.524 614.401 111.524H621.709V97.72C621.709 96.096 622.521 95.284 624.145 95.284C625.769 95.284 626.581 96.096 626.581 97.72V111.524H641.545C643.169 111.524 643.981 112.336 643.981 113.96C643.981 115.584 643.169 116.396 641.545 116.396H626.581V145.164C626.581 150.732 627.683 154.618 629.887 156.822C632.129 159.026 636.054 160.128 641.661 160.128C642.666 160.128 643.343 160.341 643.691 160.766C644.039 161.191 644.213 161.791 644.213 162.564C644.213 164.188 643.362 165 641.661 165ZM660.498 100.62C658.178 100.62 657.018 99.4213 657.018 97.024V94.646C657.018 92.326 658.178 91.166 660.498 91.166H662.876C665.157 91.166 666.298 92.326 666.298 94.646V97.024C666.298 99.4213 665.157 100.62 662.876 100.62H660.498ZM661.716 165C660.092 165 659.28 164.188 659.28 162.564V113.96C659.28 112.336 660.092 111.524 661.716 111.524C663.34 111.524 664.152 112.336 664.152 113.96V162.564C664.152 164.188 663.34 165 661.716 165ZM687.431 165C685.807 165 684.995 164.188 684.995 162.564V113.96C684.995 112.336 685.807 111.524 687.431 111.524C689.055 111.524 689.867 112.336 689.867 113.96V120.688C693.385 114.579 700.229 111.524 710.399 111.524H713.647C720.723 111.524 725.865 113.148 729.075 116.396C732.323 119.605 733.947 124.748 733.947 131.824V162.564C733.947 164.188 733.135 165 731.511 165C729.887 165 729.075 164.188 729.075 162.564V131.824C729.075 126.14 727.915 122.157 725.595 119.876C723.313 117.556 719.331 116.396 713.647 116.396H710.399C703.98 116.396 699.05 117.498 695.609 119.702C692.167 121.867 690.253 125.251 689.867 129.852V162.564C689.867 164.188 689.055 165 687.431 165ZM766.864 188.2C762.34 188.2 758.938 187.253 756.656 185.358C754.375 183.502 753.06 180.544 752.712 176.484C752.674 175.672 752.867 175.034 753.292 174.57C753.718 174.145 754.298 173.932 755.032 173.932C755.844 173.932 756.463 174.125 756.888 174.512C757.314 174.937 757.546 175.556 757.584 176.368C757.816 179.036 758.628 180.853 760.02 181.82C761.451 182.825 763.732 183.328 766.864 183.328H788.44C792.036 183.328 794.492 182.651 795.806 181.298C797.16 179.983 797.836 177.528 797.836 173.932V156.3C796.174 159.161 793.68 161.327 790.354 162.796C787.068 164.265 782.718 165 777.304 165H772.896C765.82 165 760.658 163.395 757.41 160.186C754.201 156.938 752.596 151.815 752.596 144.816V131.824C752.596 124.671 754.201 119.509 757.41 116.338C760.658 113.129 765.82 111.524 772.896 111.524H782.408C786.546 111.524 789.832 112.065 792.268 113.148C794.704 114.231 796.56 115.913 797.836 118.194V113.96C797.836 112.336 798.648 111.524 800.272 111.524C801.896 111.524 802.708 112.336 802.708 113.96V173.932C802.708 178.843 801.568 182.439 799.286 184.72C797.005 187.04 793.39 188.2 788.44 188.2H766.864ZM772.896 160.128H777.304C783.646 160.128 788.653 159.084 792.326 156.996C796 154.869 797.836 151.699 797.836 147.484V129.388C797.836 124.632 796.58 121.287 794.066 119.354C791.592 117.382 787.706 116.396 782.408 116.396H772.896C767.212 116.396 763.21 117.537 760.89 119.818C758.609 122.061 757.468 126.063 757.468 131.824V144.816C757.468 150.423 758.609 154.386 760.89 156.706C763.21 158.987 767.212 160.128 772.896 160.128ZM842.64 164.768C841.21 164.072 840.785 162.989 841.365 161.52L870.481 93.428C870.945 92.1907 871.873 91.572 873.265 91.572H873.613C874.889 91.572 875.817 92.1907 876.397 93.428L905.397 161.52C906.054 162.989 905.629 164.072 904.121 164.768C902.651 165.387 901.607 164.961 900.989 163.492L892.811 144.236H854.183L845.889 163.492C845.27 164.961 844.187 165.387 842.64 164.768ZM856.271 139.364H890.723L873.613 99.228L856.271 139.364ZM920.903 165C920.207 165 919.627 164.768 919.163 164.304C918.699 163.84 918.467 163.26 918.467 162.564V93.892C918.467 93.196 918.699 92.616 919.163 92.152C919.627 91.688 920.207 91.456 920.903 91.456C921.599 91.456 922.179 91.688 922.643 92.152C923.107 92.616 923.339 93.196 923.339 93.892V162.564C923.339 163.26 923.107 163.84 922.643 164.304C922.179 164.768 921.599 165 920.903 165ZM963.322 165C956.246 165 951.084 163.395 947.836 160.186C944.627 156.938 943.022 151.815 943.022 144.816V131.824C943.022 124.671 944.627 119.489 947.836 116.28C951.084 113.032 956.246 111.447 963.322 111.524H972.834C979.91 111.524 985.053 113.148 988.262 116.396C991.51 119.605 993.134 124.748 993.134 131.824V144.7C993.134 151.776 991.51 156.938 988.262 160.186C985.053 163.395 979.91 165 972.834 165H963.322ZM947.894 144.816C947.894 150.423 949.035 154.386 951.316 156.706C953.636 158.987 957.638 160.128 963.322 160.128H972.834C978.518 160.128 982.501 158.987 984.782 156.706C987.102 154.386 988.262 150.384 988.262 144.7V131.824C988.262 126.14 987.102 122.157 984.782 119.876C982.501 117.556 978.518 116.396 972.834 116.396H963.322C959.533 116.357 956.498 116.841 954.216 117.846C951.974 118.813 950.35 120.437 949.344 122.718C948.378 124.961 947.894 127.996 947.894 131.824V144.816ZM1015.27 165C1013.64 165 1012.83 164.188 1012.83 162.564V94.008C1012.83 92.384 1013.64 91.572 1015.27 91.572H1043.22C1052.7 91.572 1059.56 93.718 1063.81 98.01C1068.1 102.263 1070.25 109.127 1070.25 118.6V137.972C1070.25 147.407 1068.1 154.27 1063.81 158.562C1059.56 162.854 1052.7 165 1043.22 165H1015.27ZM1017.7 160.128H1043.22C1048.6 160.128 1052.91 159.413 1056.16 157.982C1059.4 156.513 1061.74 154.154 1063.17 150.906C1064.64 147.658 1065.38 143.347 1065.38 137.972V118.6C1065.38 113.225 1064.64 108.914 1063.17 105.666C1061.74 102.418 1059.4 100.079 1056.16 98.648C1052.91 97.1787 1048.6 96.444 1043.22 96.444H1017.7V160.128Z" fill="white"/>
<path d="M229.085 62.88C228.345 62.52 228.125 61.96 228.425 61.2L243.485 25.98C243.725 25.34 244.205 25.02 244.925 25.02H245.105C245.765 25.02 246.245 25.34 246.545 25.98L261.545 61.2C261.885 61.96 261.665 62.52 260.885 62.88C260.125 63.2 259.585 62.98 259.265 62.22L255.035 52.26H235.055L230.765 62.22C230.445 62.98 229.885 63.2 229.085 62.88ZM236.135 49.74H253.955L245.105 28.98L236.135 49.74ZM268.936 29.7C267.736 29.7 267.136 29.08 267.136 27.84V26.61C267.136 25.41 267.736 24.81 268.936 24.81H270.166C271.346 24.81 271.936 25.41 271.936 26.61V27.84C271.936 29.08 271.346 29.7 270.166 29.7H268.936ZM269.566 63C268.726 63 268.306 62.58 268.306 61.74V36.6C268.306 35.76 268.726 35.34 269.566 35.34C270.406 35.34 270.826 35.76 270.826 36.6V61.74C270.826 62.58 270.406 63 269.566 63ZM300.087 63C299.247 63 298.827 62.58 298.827 61.74L299.127 28.8L299.607 29.1L281.187 52.74L280.647 52.14H304.227C304.647 52.14 304.957 52.25 305.157 52.47C305.377 52.67 305.487 52.98 305.487 53.4C305.487 54.24 305.067 54.66 304.227 54.66H279.267C278.427 54.66 278.007 54.24 278.007 53.4C278.007 53 278.187 52.56 278.547 52.08L299.007 25.8C299.227 25.52 299.447 25.32 299.667 25.2C299.907 25.08 300.207 25.02 300.567 25.02C301.287 25.02 301.647 25.44 301.647 26.28L301.347 61.74C301.347 62.58 300.927 63 300.087 63ZM314.582 50.1V52.56C314.582 55.46 315.172 57.51 316.352 58.71C317.552 59.89 319.622 60.48 322.562 60.48H327.482C330.182 60.48 332.132 60.11 333.332 59.37C334.532 58.63 335.222 57.36 335.402 55.56C335.442 55.14 335.562 54.83 335.762 54.63C335.982 54.41 336.302 54.3 336.722 54.3C337.122 54.3 337.432 54.42 337.652 54.66C337.872 54.88 337.962 55.2 337.922 55.62C337.722 58.16 336.772 60.03 335.072 61.23C333.372 62.41 330.842 63 327.482 63H322.562C318.902 63 316.232 62.17 314.552 60.51C312.892 58.83 312.062 56.18 312.062 52.56V45.84C312.062 42.14 312.892 39.46 314.552 37.8C316.232 36.12 318.902 35.3 322.562 35.34H327.482C331.142 35.34 333.802 36.18 335.462 37.86C337.142 39.52 337.982 42.18 337.982 45.84V48.84C337.982 49.68 337.562 50.1 336.722 50.1H314.582ZM322.562 37.86C319.622 37.82 317.552 38.4 316.352 39.6C315.172 40.78 314.582 42.86 314.582 45.84V47.58H335.462V45.84C335.462 42.9 334.862 40.84 333.662 39.66C332.482 38.46 330.422 37.86 327.482 37.86H322.562ZM371.69 35.34C372.53 35.34 372.95 35.76 372.95 36.6V61.74C372.95 62.58 372.53 63 371.69 63C370.85 63 370.43 62.58 370.43 61.74V58.26C368.61 61.42 365.07 63 359.81 63H358.13C354.47 63 351.8 62.17 350.12 60.51C348.46 58.83 347.63 56.16 347.63 52.5V36.6C347.63 35.76 348.05 35.34 348.89 35.34C349.73 35.34 350.15 35.76 350.15 36.6V52.5C350.15 55.44 350.74 57.51 351.92 58.71C353.12 59.89 355.19 60.48 358.13 60.48H359.81C363.13 60.48 365.68 59.91 367.46 58.77C369.24 57.63 370.23 55.88 370.43 53.52V36.6C370.43 35.76 370.85 35.34 371.69 35.34ZM384.996 63C384.156 63 383.736 62.58 383.736 61.74V36.6C383.736 35.76 384.156 35.34 384.996 35.34C385.836 35.34 386.256 35.76 386.256 36.6V41.97C387.256 39.83 388.756 38.19 390.756 37.05C392.776 35.91 395.196 35.34 398.016 35.34C398.856 35.34 399.276 35.76 399.276 36.6C399.276 37.44 398.856 37.86 398.016 37.86C394.416 37.86 391.616 38.72 389.616 40.44C387.616 42.16 386.496 44.66 386.256 47.94V61.74C386.256 62.58 385.836 63 384.996 63ZM414.085 63C410.425 63 407.755 62.17 406.075 60.51C404.415 58.83 403.585 56.18 403.585 52.56V45.84C403.585 42.14 404.415 39.46 406.075 37.8C407.755 36.12 410.425 35.3 414.085 35.34H419.005C422.665 35.34 425.325 36.18 426.985 37.86C428.665 39.52 429.505 42.18 429.505 45.84V52.5C429.505 56.16 428.665 58.83 426.985 60.51C425.325 62.17 422.665 63 419.005 63H414.085ZM406.105 52.56C406.105 55.46 406.695 57.51 407.875 58.71C409.075 59.89 411.145 60.48 414.085 60.48H419.005C421.945 60.48 424.005 59.89 425.185 58.71C426.385 57.51 426.985 55.44 426.985 52.5V45.84C426.985 42.9 426.385 40.84 425.185 39.66C424.005 38.46 421.945 37.86 419.005 37.86H414.085C412.125 37.84 410.555 38.09 409.375 38.61C408.215 39.11 407.375 39.95 406.855 41.13C406.355 42.29 406.105 43.86 406.105 45.84V52.56ZM440.953 75C440.113 75 439.693 74.58 439.693 73.74V36.6C439.693 35.76 440.113 35.34 440.953 35.34C441.793 35.34 442.213 35.76 442.213 36.6V39.9C443.053 38.4 444.323 37.27 446.023 36.51C447.743 35.73 450.013 35.34 452.833 35.34H455.113C458.773 35.34 461.433 36.18 463.093 37.86C464.773 39.52 465.613 42.18 465.613 45.84V52.5C465.613 56.16 464.773 58.83 463.093 60.51C461.433 62.17 458.773 63 455.113 63H442.213V73.74C442.213 74.58 441.793 75 440.953 75ZM442.213 60.48H455.113C458.053 60.48 460.113 59.89 461.293 58.71C462.493 57.51 463.093 55.44 463.093 52.5V45.84C463.093 42.9 462.493 40.84 461.293 39.66C460.113 38.46 458.053 37.86 455.113 37.86H452.833C449.413 37.86 446.863 38.43 445.183 39.57C443.503 40.69 442.513 42.42 442.213 44.76V60.48ZM477.707 50.1V52.56C477.707 55.46 478.297 57.51 479.477 58.71C480.677 59.89 482.747 60.48 485.687 60.48H490.607C493.307 60.48 495.257 60.11 496.457 59.37C497.657 58.63 498.347 57.36 498.527 55.56C498.567 55.14 498.687 54.83 498.887 54.63C499.107 54.41 499.427 54.3 499.847 54.3C500.247 54.3 500.557 54.42 500.777 54.66C500.997 54.88 501.087 55.2 501.047 55.62C500.847 58.16 499.897 60.03 498.197 61.23C496.497 62.41 493.967 63 490.607 63H485.687C482.027 63 479.357 62.17 477.677 60.51C476.017 58.83 475.187 56.18 475.187 52.56V45.84C475.187 42.14 476.017 39.46 477.677 37.8C479.357 36.12 482.027 35.3 485.687 35.34H490.607C494.267 35.34 496.927 36.18 498.587 37.86C500.267 39.52 501.107 42.18 501.107 45.84V48.84C501.107 49.68 500.687 50.1 499.847 50.1H477.707ZM485.687 37.86C482.747 37.82 480.677 38.4 479.477 39.6C478.297 40.78 477.707 42.86 477.707 45.84V47.58H498.587V45.84C498.587 42.9 497.987 40.84 496.787 39.66C495.607 38.46 493.547 37.86 490.607 37.86H485.687Z" fill="#FFED00"/>
<g clip-path="url(#clip0_130_7484)">
<path d="M86.4997 51.708C86.1805 51.708 85.8613 51.0696 85.8613 50.7504L101.821 0.63837C101.821 0.319185 102.459 0 102.778 0C103.097 0 103.417 0.63837 103.417 0.957555L87.4573 51.0696C87.4573 51.3888 87.1381 51.708 86.8189 51.708H86.4997Z" fill="#41B6E6"/>
<path d="M94.1593 51.0695C94.1593 51.0695 94.1593 51.0695 93.8401 51.0695C93.5209 51.0695 93.2017 50.4312 93.5209 50.112L118.417 3.51097C118.417 3.19178 119.056 2.8726 119.375 3.19178C119.694 3.19178 120.013 3.83015 119.694 4.14934L95.1168 50.4312C95.1168 50.4312 94.7976 50.7504 94.4784 50.7504L94.1593 51.0695Z" fill="#41B6E6"/>
<path d="M102.139 51.7081C102.139 51.7081 101.82 51.7081 101.501 51.7081C101.182 51.7081 101.182 51.0697 101.501 50.4314L134.058 9.25648C134.058 8.93729 134.696 8.93729 135.335 9.25648C135.654 9.25648 135.654 9.89485 135.335 10.5332L102.778 51.7081C102.778 51.7081 102.459 51.7081 102.139 51.7081Z" fill="#41B6E6"/>
<path d="M109.48 53.9422C109.48 53.9422 109.161 53.9422 108.842 53.9422C108.842 53.623 108.842 52.9846 108.842 52.6654L148.421 17.8743C148.74 17.8743 149.378 17.8743 149.697 17.8743C149.697 18.1935 149.697 18.8318 149.697 19.151L110.119 53.9422C110.119 53.9422 109.799 53.9422 109.48 53.9422Z" fill="#41B6E6"/>
<path d="M116.502 57.4534C116.502 57.4534 115.863 57.4534 115.863 57.1342C115.863 56.815 115.863 56.1766 115.863 56.1766L160.868 29.0459C161.188 29.0459 161.826 29.0459 161.826 29.0459C161.826 29.3651 161.826 30.0035 161.826 30.0035L116.821 57.1342C116.821 57.1342 116.821 57.1342 116.502 57.1342V57.4534Z" fill="#41B6E6"/>
<path d="M122.886 61.922C122.567 61.922 122.248 61.922 122.248 61.2836C122.248 60.9644 122.248 60.3261 122.567 60.3261L171.722 41.4941C172.041 41.4941 172.679 41.4941 172.679 41.8133C172.679 42.1325 172.679 42.7709 172.36 42.7709L123.206 61.6028L122.886 61.922Z" fill="#41B6E6"/>
<path d="M128.312 67.6673C127.993 67.6673 127.674 67.6673 127.674 67.029C127.674 66.7098 127.674 66.0714 128.312 66.0714L180.02 56.4958C180.339 56.4958 180.978 56.4958 180.978 57.1342C180.978 57.4534 180.978 58.0918 180.339 58.0918L128.631 67.6673H128.312Z" fill="#41B6E6"/>
<path d="M132.463 74.051C132.143 74.051 131.824 73.7318 131.824 73.4126C131.824 73.0934 132.143 72.4551 132.463 72.4551H185.128C185.447 72.4551 185.766 72.7743 185.766 73.0934C185.766 73.4126 185.447 74.051 185.128 74.051H132.463Z" fill="#41B6E6"/>
<path d="M187.362 90.6487L135.654 81.3923C135.335 81.3923 135.016 80.7539 135.016 80.4348C135.016 80.1156 135.654 79.7964 135.973 79.7964L187.681 89.0528C188 89.0528 188.32 89.6911 188.32 90.0103C188.32 90.3295 188 90.6487 187.681 90.6487H187.362Z" fill="#41B6E6"/>
<path d="M186.405 107.246L137.25 89.0525C136.931 89.0525 136.612 88.4141 136.931 88.095C137.25 87.7758 137.569 87.4566 137.889 87.7758L187.043 105.969C187.362 105.969 187.681 106.608 187.362 106.927C187.362 107.246 187.043 107.565 186.724 107.565L186.405 107.246Z" fill="#41B6E6"/>
<path d="M182.575 123.525C182.575 123.525 182.575 123.525 182.255 123.525L136.931 96.7131C136.612 96.7131 136.293 96.0747 136.931 95.7555C136.931 95.4363 137.569 95.1172 137.889 95.7555L183.213 122.567C183.532 122.567 183.851 123.205 183.213 123.525C183.213 123.525 182.894 123.844 182.575 123.844V123.525Z" fill="#41B6E6"/>
<path d="M176.191 138.846C176.191 138.846 175.872 138.846 175.553 138.846L135.974 104.374C135.655 104.374 135.655 103.735 135.974 103.097C135.974 102.778 136.612 102.778 137.251 103.097L176.829 137.569C177.149 137.569 177.149 138.207 176.829 138.846C176.829 138.846 176.51 138.846 176.191 138.846Z" fill="#41B6E6"/>
<path d="M166.934 152.89C166.934 152.89 166.615 152.89 166.296 152.89L133.42 112.034C133.42 111.715 133.42 111.076 133.42 110.757C133.42 110.438 134.377 110.757 134.697 110.757L167.573 151.613C167.573 151.932 167.573 152.57 167.573 152.89C167.573 152.89 167.254 152.89 166.934 152.89Z" fill="#41B6E6"/>
<path d="M155.124 165.019C155.124 165.019 154.485 165.019 154.485 164.7L129.27 118.418C129.27 118.099 129.27 117.46 129.589 117.46C129.908 117.46 130.546 117.46 130.546 117.779L155.762 164.061C155.762 164.38 155.762 165.019 155.443 165.019C155.443 165.019 155.443 165.019 155.124 165.019Z" fill="#41B6E6"/>
<path d="M141.718 174.594C141.399 174.594 141.08 174.594 141.08 173.956L124.482 124.163C124.482 123.844 124.482 123.205 125.121 123.205C125.44 123.205 126.078 123.205 126.078 123.844L142.676 173.637C142.676 173.956 142.676 174.594 142.038 174.594H141.718Z" fill="#41B6E6"/>
<path d="M126.716 181.936C126.397 181.936 126.078 181.936 126.078 181.297L118.736 129.27C118.736 128.951 118.736 128.312 119.375 128.312C119.694 128.312 120.332 128.313 120.332 128.951L127.674 180.978C127.674 181.297 127.674 181.936 127.035 181.936H126.716Z" fill="#41B6E6"/>
<path d="M110.437 186.404C110.118 186.404 109.799 186.085 109.799 185.446L112.033 132.781C112.033 132.462 112.352 132.143 112.991 132.143C113.31 132.143 113.629 132.462 113.629 133.1L111.395 185.766C111.395 186.085 111.076 186.404 110.756 186.404H110.437Z" fill="#41B6E6"/>
<path d="M93.8395 188C93.5204 188 93.2012 187.362 93.2012 187.043L104.692 135.654C104.692 135.335 105.33 135.015 105.649 135.015C105.969 135.015 106.288 135.654 106.288 135.973L94.7971 187.362C94.7971 187.681 94.4779 188 94.1587 188H93.8395Z" fill="#41B6E6"/>
<path d="M77.2424 186.404C76.9232 186.404 76.604 185.766 76.9232 185.447L97.3511 136.93C97.3511 136.611 97.9894 136.292 98.3086 136.611C98.6278 136.611 98.947 137.25 98.6278 137.569L78.2 186.085C78.2 186.085 77.8808 186.723 77.5616 186.723L77.2424 186.404Z" fill="#41B6E6"/>
<path d="M60.9648 181.935C60.9648 181.935 60.9648 181.935 60.6456 181.935C60.3265 181.935 60.3265 181.297 60.6456 180.978L89.3723 136.93C89.3723 136.611 90.0107 136.611 90.3298 136.93C90.649 136.93 90.649 137.569 90.3298 137.888L61.6032 181.935C61.6032 181.935 61.284 182.255 60.9648 182.255V181.935Z" fill="#41B6E6"/>
<path d="M45.9617 174.594C45.9617 174.594 45.6426 174.594 45.3234 174.594C45.0042 174.594 45.0042 173.637 45.3234 173.318L81.3913 135.015C81.3913 135.015 82.3488 134.696 82.668 135.015C82.9872 135.015 82.9872 135.973 82.668 136.292L46.6001 174.594C46.6001 174.594 46.2809 174.594 45.9617 174.594Z" fill="#41B6E6"/>
<path d="M32.5563 164.7C32.5563 164.7 31.918 164.7 31.918 164.38C31.918 164.061 31.918 163.423 31.918 163.423L74.3696 132.462C74.6888 132.462 75.3271 132.462 75.3271 132.462C75.3271 132.781 75.3271 133.419 75.3271 133.419L32.8755 164.38C32.8755 164.38 32.8755 164.38 32.5563 164.38V164.7Z" fill="#41B6E6"/>
<path d="M21.0661 152.571C21.0661 152.571 20.4277 152.571 20.4277 152.251C20.4277 151.932 20.4277 151.294 20.7469 151.294L67.9863 128.312C68.3055 128.312 68.9439 128.312 68.9439 128.632C68.9439 128.951 68.9439 129.589 68.6247 129.589L21.3853 152.571C21.3853 152.571 21.3853 152.571 21.0661 152.571Z" fill="#41B6E6"/>
<path d="M11.8102 138.526C11.4911 138.526 11.1719 138.526 11.1719 137.888C11.1719 137.569 11.1719 136.93 11.8102 136.93L62.5607 122.886C62.8799 122.886 63.5182 122.886 63.5182 123.525C63.5182 123.844 63.5182 124.482 62.8799 124.482L12.1294 138.526H11.8102Z" fill="#41B6E6"/>
<path d="M5.10712 123.205C4.78794 123.205 4.46875 123.205 4.46875 122.567C4.46875 122.248 4.46875 121.61 5.10712 121.61L57.4535 116.822C57.7727 116.822 58.411 116.822 58.411 117.46C58.411 117.779 58.411 118.418 57.7727 118.418L5.42631 123.205H5.10712Z" fill="#41B6E6"/>
<path d="M53.9418 111.396L1.5954 106.927C1.27622 106.927 0.957031 106.608 0.957031 105.969C0.957031 105.65 1.27622 105.331 1.91459 105.331L54.2609 109.8C54.5801 109.8 54.8993 110.119 54.8993 110.757C54.8993 111.076 54.5801 111.396 54.2609 111.396H53.9418Z" fill="#41B6E6"/>
<path d="M51.3888 104.054L0.63837 90.0102C0.319185 90.0102 0 89.3719 0 89.0527C0 88.7335 0.63837 88.4143 0.957555 88.4143L51.708 102.139C52.0272 102.139 52.3463 102.778 52.3463 103.097C52.3463 103.416 52.0272 103.735 51.708 103.735L51.3888 104.054Z" fill="#41B6E6"/>
<path d="M50.4318 96.0748C50.4318 96.0748 50.4318 96.0748 50.1127 96.0748L2.87327 73.4126C2.55409 73.4126 2.2349 72.7742 2.55409 72.4551C2.55409 72.1359 3.19246 71.8167 3.51164 72.1359L51.0702 94.798C51.3894 94.798 51.7086 95.4364 51.3894 95.7556C51.3894 95.7556 51.0702 96.0748 50.751 96.0748H50.4318Z" fill="#41B6E6"/>
<path d="M50.7512 88.4142L7.66126 57.4533C7.34208 57.4533 7.34208 56.8149 7.66126 56.4957C7.66126 56.1766 8.29963 56.1766 8.61882 56.4957L51.3896 87.1375C51.7088 87.1375 51.7088 87.7759 51.3896 88.0951C51.3896 88.0951 51.0704 88.4142 50.7512 88.4142Z" fill="#41B6E6"/>
<path d="M52.6661 80.7539C52.6661 80.7539 52.3469 80.7539 52.0277 80.7539L15.6406 42.7709C15.6406 42.7709 15.6406 41.8133 15.6406 41.4941C15.9598 41.4941 16.5982 41.4941 16.9174 41.4941L53.3045 79.4772C53.3045 79.4772 53.3045 80.4347 53.3045 80.7539C53.3045 80.7539 52.9853 80.7539 52.6661 80.7539Z" fill="#41B6E6"/>
<path d="M55.858 73.7317C55.858 73.7317 55.2197 73.7317 55.2197 73.4125L26.1738 29.6841C26.1738 29.3649 26.1738 28.7266 26.1738 28.7266H27.1314L56.1772 72.4549C56.1772 72.7741 56.1772 73.4125 56.1772 73.4125C56.1772 73.4125 56.1772 73.4125 55.858 73.4125V73.7317Z" fill="#41B6E6"/>
<path d="M60.3257 67.0289C60.3257 67.0289 59.6873 67.0289 59.6873 66.3905L38.6211 18.5127C38.6211 18.1935 38.6211 17.5552 38.9403 17.5552C39.2595 17.5552 39.8978 17.5552 39.8978 17.8744L60.6449 66.0713C60.6449 66.3905 60.6449 67.0289 60.3257 67.0289Z" fill="#41B6E6"/>
<path d="M65.7518 61.6028C65.4326 61.6028 65.1134 61.6028 65.1134 60.9644L52.9844 9.89481C52.9844 9.57563 52.9844 8.93726 53.6227 8.93726C53.9419 8.93726 54.5803 8.93726 54.5803 9.57563L66.3901 60.6452C66.3901 60.9644 66.3901 61.6028 65.7518 61.6028Z" fill="#41B6E6"/>
<path d="M71.8169 57.1342C71.4977 57.1342 71.1785 56.815 71.1785 56.4958L68.625 4.14945C68.625 3.83026 68.625 3.19189 69.2634 3.19189C69.9017 3.19189 70.2209 3.19189 70.2209 3.83026L72.7744 56.1766C72.7744 56.4958 72.7744 57.1342 72.136 57.1342H71.8169Z" fill="#41B6E6"/>
<path d="M79.1579 53.6231C78.8387 53.6231 78.5195 53.3039 78.5195 52.6655L84.9032 0.63837C84.9032 0.319185 85.2224 0 85.8608 0C86.18 0 86.4992 0.319185 86.4992 0.957555L79.7963 52.9847C79.7963 53.3039 79.4771 53.6231 79.1579 53.6231Z" fill="#41B6E6"/>
<path d="M86.4997 51.708C86.1805 51.708 85.8613 51.0696 85.8613 50.7504L101.821 0.63837C101.821 0.319185 102.459 0 102.778 0C103.097 0 103.417 0.63837 103.417 0.957555L87.4573 51.0696C87.4573 51.3888 87.1381 51.708 86.8189 51.708H86.4997Z" fill="#41B6E6"/>
</g>
<defs>
<clipPath id="clip0_130_7484">
<rect width="188" height="188" fill="white"/>
</clipPath>
</defs>
</svg>
