<svg width="213" height="285" viewBox="0 0 213 285" fill="none" xmlns="http://www.w3.org/2000/svg">
<g clip-path="url(#clip0_222_12216)">
<path d="M100.353 35.4805C100.134 35.4805 99.915 35.0424 99.915 34.8234L110.866 0.438031C110.866 0.219015 111.304 0 111.523 0C111.742 0 111.961 0.438031 111.961 0.657046L101.01 35.0424C101.01 35.2615 100.791 35.4805 100.572 35.4805H100.353Z" fill="#41B6E6"/>
<path d="M105.61 35.0426C105.61 35.0426 105.61 35.0426 105.391 35.0426C105.172 35.0426 104.953 34.6046 105.172 34.3856L122.255 2.40934C122.255 2.19033 122.693 1.97131 122.912 2.19033C123.131 2.19033 123.35 2.62836 123.131 2.84737L106.267 34.6046C106.267 34.6046 106.048 34.8236 105.829 34.8236L105.61 35.0426Z" fill="#41B6E6"/>
<path d="M111.085 35.4808C111.085 35.4808 110.866 35.4808 110.647 35.4808C110.428 35.4808 110.428 35.0428 110.647 34.6047L132.986 6.35176C132.986 6.13275 133.425 6.13275 133.863 6.35176C134.082 6.35176 134.082 6.78979 133.863 7.22782L111.523 35.4808C111.523 35.4808 111.304 35.4808 111.085 35.4808Z" fill="#41B6E6"/>
<path d="M116.122 37.0144C116.122 37.0144 115.903 37.0144 115.684 37.0144C115.684 36.7953 115.684 36.3573 115.684 36.1383L142.842 12.2656C143.061 12.2656 143.499 12.2656 143.718 12.2656C143.718 12.4846 143.718 12.9227 143.718 13.1417L116.56 37.0144C116.56 37.0144 116.341 37.0144 116.122 37.0144Z" fill="#41B6E6"/>
<path d="M120.94 39.422C120.94 39.422 120.502 39.422 120.502 39.203C120.502 38.984 120.502 38.546 120.502 38.546L151.384 19.9297C151.603 19.9297 152.041 19.9297 152.041 19.9297C152.041 20.1487 152.041 20.5867 152.041 20.5867L121.159 39.203C121.159 39.203 121.159 39.203 120.94 39.203V39.422Z" fill="#41B6E6"/>
<path d="M125.321 42.4896C125.102 42.4896 124.883 42.4896 124.883 42.0516C124.883 41.8326 124.883 41.3946 125.102 41.3946L158.83 28.4727C159.049 28.4727 159.487 28.4727 159.487 28.6917C159.487 28.9107 159.487 29.3487 159.268 29.3487L125.54 42.2706L125.321 42.4896Z" fill="#41B6E6"/>
<path d="M129.044 46.4312C128.825 46.4312 128.606 46.4312 128.606 45.9931C128.606 45.7741 128.606 45.3361 129.044 45.3361L164.525 38.7656C164.744 38.7656 165.182 38.7656 165.182 39.2037C165.182 39.4227 165.182 39.8607 164.744 39.8607L129.263 46.4312H129.044Z" fill="#41B6E6"/>
<path d="M131.891 50.8119C131.672 50.8119 131.453 50.5929 131.453 50.3738C131.453 50.1548 131.672 49.7168 131.891 49.7168H168.029C168.248 49.7168 168.467 49.9358 168.467 50.1548C168.467 50.3738 168.248 50.8119 168.029 50.8119H131.891Z" fill="#41B6E6"/>
<path d="M169.562 62.2004L134.082 55.849C133.863 55.849 133.644 55.411 133.644 55.1919C133.644 54.9729 134.082 54.7539 134.301 54.7539L169.781 61.1053C170 61.1053 170.219 61.5434 170.219 61.7624C170.219 61.9814 170 62.2004 169.781 62.2004H169.562Z" fill="#41B6E6"/>
<path d="M168.905 73.5893L135.177 61.1055C134.958 61.1055 134.739 60.6674 134.958 60.4484C135.177 60.2294 135.396 60.0104 135.615 60.2294L169.343 72.7133C169.562 72.7133 169.781 73.1513 169.562 73.3703C169.562 73.5893 169.343 73.8083 169.124 73.8083L168.905 73.5893Z" fill="#41B6E6"/>
<path d="M166.277 84.7584C166.277 84.7584 166.277 84.7584 166.058 84.7584L134.957 66.3611C134.738 66.3611 134.519 65.9231 134.957 65.7041C134.957 65.4851 135.396 65.266 135.615 65.7041L166.715 84.1014C166.934 84.1014 167.153 84.5394 166.715 84.7584C166.715 84.7584 166.496 84.9774 166.277 84.9774V84.7584Z" fill="#41B6E6"/>
<path d="M161.896 95.2721C161.896 95.2721 161.677 95.2721 161.458 95.2721L134.3 71.6185C134.081 71.6185 134.081 71.1804 134.3 70.7424C134.3 70.5234 134.739 70.5234 135.177 70.7424L162.334 94.396C162.553 94.396 162.553 94.8341 162.334 95.2721C162.334 95.2721 162.115 95.2721 161.896 95.2721Z" fill="#41B6E6"/>
<path d="M155.545 104.908C155.545 104.908 155.326 104.908 155.107 104.908L132.548 76.8738C132.548 76.6548 132.548 76.2167 132.548 75.9977C132.548 75.7787 133.205 75.9977 133.424 75.9977L155.983 104.032C155.983 104.251 155.983 104.689 155.983 104.908C155.983 104.908 155.764 104.908 155.545 104.908Z" fill="#41B6E6"/>
<path d="M147.441 113.231C147.441 113.231 147.003 113.231 147.003 113.012L129.701 81.2547C129.701 81.0357 129.701 80.5977 129.92 80.5977C130.139 80.5977 130.577 80.5977 130.577 80.8167L147.879 112.574C147.879 112.793 147.879 113.231 147.66 113.231C147.66 113.231 147.66 113.231 147.441 113.231Z" fill="#41B6E6"/>
<path d="M138.243 119.801C138.024 119.801 137.805 119.801 137.805 119.362L126.416 85.1961C126.416 84.9771 126.416 84.5391 126.854 84.5391C127.073 84.5391 127.511 84.5391 127.511 84.9771L138.9 119.143C138.9 119.362 138.9 119.801 138.462 119.801H138.243Z" fill="#41B6E6"/>
<path d="M127.949 124.839C127.73 124.839 127.511 124.839 127.511 124.401L122.474 88.702C122.474 88.483 122.474 88.0449 122.912 88.0449C123.131 88.0449 123.569 88.0449 123.569 88.483L128.606 124.182C128.606 124.401 128.606 124.839 128.168 124.839H127.949Z" fill="#41B6E6"/>
<path d="M116.779 127.904C116.56 127.904 116.341 127.685 116.341 127.247L117.874 91.1099C117.874 90.8909 118.093 90.6719 118.531 90.6719C118.75 90.6719 118.969 90.8909 118.969 91.3289L117.436 127.466C117.436 127.685 117.217 127.904 116.998 127.904H116.779Z" fill="#41B6E6"/>
<path d="M105.39 128.999C105.171 128.999 104.952 128.561 104.952 128.342L112.837 93.0806C112.837 92.8616 113.275 92.6426 113.494 92.6426C113.713 92.6426 113.932 93.0806 113.932 93.2996L106.047 128.561C106.047 128.78 105.828 128.999 105.609 128.999H105.39Z" fill="#41B6E6"/>
<path d="M94.0016 127.906C93.7826 127.906 93.5636 127.468 93.7826 127.248L107.8 93.9582C107.8 93.7392 108.238 93.5201 108.457 93.7392C108.676 93.7392 108.895 94.1772 108.676 94.3962L94.6587 127.687C94.6587 127.687 94.4397 128.125 94.2206 128.125L94.0016 127.906Z" fill="#41B6E6"/>
<path d="M82.832 124.838C82.832 124.838 82.832 124.838 82.613 124.838C82.394 124.838 82.394 124.4 82.613 124.181L102.324 93.9572C102.324 93.7382 102.762 93.7382 102.981 93.9572C103.2 93.9572 103.2 94.3953 102.981 94.6143L83.27 124.838C83.27 124.838 83.051 125.057 82.832 125.057V124.838Z" fill="#41B6E6"/>
<path d="M72.5381 119.802C72.5381 119.802 72.3191 119.802 72.1001 119.802C71.881 119.802 71.881 119.145 72.1001 118.926L96.8488 92.6442C96.8488 92.6442 97.5058 92.4252 97.7248 92.6442C97.9439 92.6442 97.9439 93.3013 97.7248 93.5203L72.9761 119.802C72.9761 119.802 72.7571 119.802 72.5381 119.802Z" fill="#41B6E6"/>
<path d="M63.3396 113.011C63.3396 113.011 62.9016 113.011 62.9016 112.792C62.9016 112.573 62.9016 112.135 62.9016 112.135L92.0306 90.8906C92.2497 90.8906 92.6877 90.8906 92.6877 90.8906C92.6877 91.1096 92.6877 91.5477 92.6877 91.5477L63.5587 112.792C63.5587 112.792 63.5587 112.792 63.3396 112.792V113.011Z" fill="#41B6E6"/>
<path d="M55.4551 104.69C55.4551 104.69 55.0171 104.69 55.0171 104.471C55.0171 104.252 55.0171 103.814 55.2361 103.814L87.6504 88.0449C87.8694 88.0449 88.3074 88.0449 88.3074 88.2639C88.3074 88.4829 88.3074 88.921 88.0884 88.921L55.6741 104.69C55.6741 104.69 55.6741 104.69 55.4551 104.69Z" fill="#41B6E6"/>
<path d="M49.1036 95.0521C48.8845 95.0521 48.6655 95.0521 48.6655 94.614C48.6655 94.395 48.6655 93.957 49.1036 93.957L83.927 84.3203C84.146 84.3203 84.584 84.3203 84.584 84.7583C84.584 84.9774 84.584 85.4154 84.146 85.4154L49.3226 95.0521H49.1036Z" fill="#41B6E6"/>
<path d="M44.5042 84.5405C44.2852 84.5405 44.0662 84.5405 44.0662 84.1024C44.0662 83.8834 44.0662 83.4454 44.5042 83.4454L80.4227 80.1602C80.6417 80.1602 81.0797 80.1602 81.0797 80.5982C81.0797 80.8172 81.0797 81.2552 80.6417 81.2552L44.7232 84.5405H44.5042Z" fill="#41B6E6"/>
<path d="M78.0135 76.4367L42.095 73.3705C41.876 73.3705 41.657 73.1515 41.657 72.7134C41.657 72.4944 41.876 72.2754 42.314 72.2754L78.2325 75.3416C78.4515 75.3416 78.6706 75.5606 78.6706 75.9987C78.6706 76.2177 78.4515 76.4367 78.2325 76.4367H78.0135Z" fill="#41B6E6"/>
<path d="M76.2615 71.3997L41.438 61.763C41.219 61.763 41 61.325 41 61.106C41 60.887 41.438 60.668 41.657 60.668L76.4805 70.0856C76.6995 70.0856 76.9185 70.5237 76.9185 70.7427C76.9185 70.9617 76.6995 71.1807 76.4805 71.1807L76.2615 71.3997Z" fill="#41B6E6"/>
<path d="M75.6044 65.9231C75.6044 65.9231 75.6044 65.9231 75.3854 65.9231L42.9711 50.373C42.7521 50.373 42.5331 49.935 42.7521 49.716C42.7521 49.497 43.1901 49.278 43.4091 49.497L76.0424 65.0471C76.2614 65.0471 76.4805 65.4851 76.2614 65.7041C76.2614 65.7041 76.0424 65.9231 75.8234 65.9231H75.6044Z" fill="#41B6E6"/>
<path d="M75.8234 60.6674L46.2563 39.4229C46.0373 39.4229 46.0373 38.9848 46.2563 38.7658C46.2563 38.5468 46.6943 38.5468 46.9133 38.7658L76.2614 59.7913C76.4804 59.7913 76.4804 60.2293 76.2614 60.4483C76.2614 60.4483 76.0424 60.6674 75.8234 60.6674Z" fill="#41B6E6"/>
<path d="M77.1375 55.4115C77.1375 55.4115 76.9184 55.4115 76.6994 55.4115L51.7317 29.3487C51.7317 29.3487 51.7317 28.6917 51.7317 28.4727C51.9507 28.4727 52.3887 28.4727 52.6078 28.4727L77.5755 54.5355C77.5755 54.5355 77.5755 55.1925 77.5755 55.4115C77.5755 55.4115 77.3565 55.4115 77.1375 55.4115Z" fill="#41B6E6"/>
<path d="M79.3276 50.5921C79.3276 50.5921 78.8896 50.5921 78.8896 50.3731L58.9592 20.368C58.9592 20.149 58.9592 19.7109 58.9592 19.7109H59.6163L79.5467 49.716C79.5467 49.935 79.5467 50.3731 79.5467 50.3731C79.5467 50.3731 79.5467 50.3731 79.3276 50.3731V50.5921Z" fill="#41B6E6"/>
<path d="M82.3938 45.9923C82.3938 45.9923 81.9557 45.9923 81.9557 45.5543L67.5007 12.702C67.5007 12.483 67.5007 12.0449 67.7197 12.0449C67.9388 12.0449 68.3768 12.0449 68.3768 12.2639L82.6128 45.3352C82.6128 45.5543 82.6128 45.9923 82.3938 45.9923Z" fill="#41B6E6"/>
<path d="M86.1171 42.2703C85.898 42.2703 85.679 42.2703 85.679 41.8323L77.3564 6.78986C77.3564 6.57084 77.3564 6.13281 77.7945 6.13281C78.0135 6.13281 78.4515 6.13281 78.4515 6.57084L86.5551 41.6133C86.5551 41.8323 86.5551 42.2703 86.1171 42.2703Z" fill="#41B6E6"/>
<path d="M90.2785 39.203C90.0595 39.203 89.8405 38.984 89.8405 38.765L88.0884 2.8465C88.0884 2.62748 88.0884 2.18945 88.5264 2.18945C88.9644 2.18945 89.1835 2.18945 89.1835 2.62748L90.9356 38.546C90.9356 38.765 90.9356 39.203 90.4975 39.203H90.2785Z" fill="#41B6E6"/>
<path d="M95.3157 36.7946C95.0967 36.7946 94.8777 36.5756 94.8777 36.1375L99.258 0.438031C99.258 0.219015 99.477 0 99.915 0C100.134 0 100.353 0.219015 100.353 0.657046L95.7537 36.3565C95.7537 36.5756 95.5347 36.7946 95.3157 36.7946Z" fill="#41B6E6"/>
<path d="M100.353 35.4805C100.134 35.4805 99.915 35.0424 99.915 34.8234L110.866 0.438031C110.866 0.219015 111.304 0 111.523 0C111.742 0 111.961 0.438031 111.961 0.657046L101.01 35.0424C101.01 35.2615 100.791 35.4805 100.572 35.4805H100.353Z" fill="#41B6E6"/>
</g>
<path d="M4.66406 211.203C4.66406 209.227 5.69531 206.133 9.04688 206.133H13.0859C17.8984 206.133 20.1758 206.52 20.1758 211.762C20.1758 212.535 20.5625 212.965 21.0781 212.965C21.6797 212.965 22.0234 212.535 22.0234 211.762C22.0234 205.23 18.4141 204.328 13.0859 204.328H9.82031C4.40625 204.328 2.85938 208.023 2.85938 211.203C2.85938 214.984 4.23438 216.918 8.1875 217.863L17.4688 220.141C18.6289 220.398 20.2188 222.203 20.2188 225.383C20.2188 227.359 19.2305 230.539 15.8359 230.539H11.8398C6.98438 230.539 4.70703 230.066 4.70703 224.824C4.70703 224.051 4.36328 223.621 3.84766 223.621C3.20312 223.621 2.85938 224.051 2.85938 224.824C2.85938 231.355 6.46875 232.344 11.8398 232.344H15.1055C20.5195 232.344 22.0234 228.562 22.0234 225.383C22.0234 222.375 20.8633 219.109 16.7383 218.078L7.41406 215.844C5.91016 215.457 4.66406 213.652 4.66406 211.203ZM37.8789 230.195H36.6328C31.8203 230.195 29.5 229.723 29.5 224.48V213.18C29.5 212.32 29.2422 211.891 28.5547 211.891C27.9102 211.891 27.6953 212.32 27.6953 213.18V224.48C27.6953 230.969 31.2617 232 36.6328 232H37.8789C40.6719 232 43.3789 231.012 44.9688 228.906V230.969C44.9688 231.871 45.2695 232.301 45.957 232.301C46.5586 232.301 46.7734 231.871 46.7734 230.969V213.18C46.7734 212.32 46.5156 211.891 45.8711 211.891C45.2266 211.891 44.9688 212.32 44.9688 213.18V222.203C44.9688 227.359 42.3906 230.195 37.8789 230.195ZM70.4492 219.711V224.48C70.4492 229.723 68.1289 230.195 63.3594 230.195H54.9805V222.031C54.9805 216.832 57.5586 213.996 62.1133 213.996H63.3594C68.1289 213.996 70.4492 214.469 70.4492 219.711ZM72.2539 224.48V219.711C72.2539 213.223 68.6875 212.191 63.3594 212.191H62.1133C59.2773 212.191 56.6133 213.18 54.9805 215.285V213.18C54.9805 212.32 54.7656 211.891 54.0781 211.891C53.4336 211.891 53.1758 212.32 53.1758 213.18V238.531C53.1758 239.391 53.3906 239.82 53.9922 239.82C54.7227 239.82 54.9805 239.391 54.9805 238.531V232H63.3594C68.6875 232 72.2539 230.969 72.2539 224.48ZM95.4141 219.711V224.48C95.4141 229.723 93.0938 230.195 88.3242 230.195H79.9453V222.031C79.9453 216.832 82.5234 213.996 87.0781 213.996H88.3242C93.0938 213.996 95.4141 214.469 95.4141 219.711ZM97.2188 224.48V219.711C97.2188 213.223 93.6523 212.191 88.3242 212.191H87.0781C84.2422 212.191 81.5781 213.18 79.9453 215.285V213.18C79.9453 212.32 79.7305 211.891 79.043 211.891C78.3984 211.891 78.1406 212.32 78.1406 213.18V238.531C78.1406 239.391 78.3555 239.82 78.957 239.82C79.6875 239.82 79.9453 239.391 79.9453 238.531V232H88.3242C93.6523 232 97.2188 230.969 97.2188 224.48ZM112.73 232C118.059 232 121.625 230.969 121.625 224.48V219.711C121.625 213.223 118.059 212.191 112.73 212.191H111.484C106.113 212.191 102.547 213.223 102.547 219.711V224.48C102.547 230.969 106.113 232 111.484 232H112.73ZM111.484 230.195C106.672 230.195 104.352 229.723 104.352 224.48V219.711C104.352 214.469 106.672 213.996 111.484 213.996H112.73C117.5 213.996 119.82 214.469 119.82 219.711V224.48C119.82 229.723 117.5 230.195 112.73 230.195H111.484ZM136.406 213.996H138.383C139.199 213.996 139.672 213.738 139.672 213.094C139.672 212.406 139.199 212.191 138.383 212.191H136.406C133.57 212.191 130.906 213.18 129.273 215.285V213.223C129.273 212.32 129.016 211.891 128.285 211.891C127.684 211.891 127.469 212.32 127.469 213.223V231.012C127.469 231.871 127.727 232.301 128.371 232.301C129.059 232.301 129.273 231.871 129.273 231.012V222.031C129.273 216.832 131.852 213.996 136.406 213.996ZM145.387 224.48V213.996H151.531C152.434 213.996 152.863 213.781 152.863 213.18C152.863 212.449 152.434 212.191 151.531 212.191H145.387V207.508C145.387 206.605 145.129 206.176 144.398 206.176C143.797 206.176 143.582 206.605 143.582 207.508V212.191C142.68 212.191 142.25 212.406 142.25 213.051C142.25 213.738 142.68 213.996 143.582 213.996V224.48C143.582 230.926 147.148 232 152.52 232C153.379 232 153.809 231.742 153.809 231.012C153.809 230.41 153.379 230.195 152.52 230.195C147.707 230.195 145.387 229.723 145.387 224.48ZM156.559 206.176C156.559 206.992 157.676 207.723 158.535 207.723C159.352 207.723 160.512 206.992 160.512 206.176C160.512 205.316 159.352 204.629 158.535 204.629C157.676 204.629 156.559 205.316 156.559 206.176ZM159.438 231.141V213.094C159.438 212.277 159.137 211.891 158.535 211.891C157.934 211.891 157.633 212.277 157.633 213.094V231.141C157.633 231.914 157.934 232.301 158.492 232.301C159.137 232.301 159.438 231.914 159.438 231.141ZM174.734 213.996H175.98C180.75 213.996 183.07 214.469 183.07 219.711V231.012C183.07 231.871 183.371 232.301 184.016 232.301C184.66 232.301 184.875 231.871 184.875 231.012V219.711C184.875 213.223 181.309 212.191 175.98 212.191H174.734C171.898 212.191 169.234 213.18 167.602 215.285V213.223C167.602 212.32 167.344 211.891 166.613 211.891C166.012 211.891 165.797 212.32 165.797 213.223V231.012C165.797 231.871 166.055 232.301 166.699 232.301C167.387 232.301 167.602 231.871 167.602 231.012V222.031C167.602 216.832 170.18 213.996 174.734 213.996ZM190.504 219.711V224.48C190.504 230.969 194.07 232 199.441 232H205.5C206.488 232 207.219 231.871 207.777 231.613V236.641C207.777 238.445 207.391 239.004 205.586 239.004H194.887C192.91 239.004 192.309 238.145 192.309 236.125C192.309 235.309 192.051 234.922 191.406 234.922C190.762 234.922 190.504 235.352 190.504 236.211C190.504 238.359 190.848 240.809 194.586 240.809H205.887C208.766 240.809 209.582 239.562 209.582 235.953V213.18C209.582 212.32 209.324 211.891 208.68 211.891C208.035 211.891 207.777 212.32 207.777 213.18V215.285C206.188 213.18 203.48 212.191 200.688 212.191H199.441C194.07 212.191 190.504 213.223 190.504 219.711ZM192.309 224.48V219.711C192.309 214.469 194.629 213.996 199.441 213.996H200.688C205.199 213.996 207.777 216.832 207.777 222.031V227.445C207.777 229.422 207.176 230.195 205.199 230.195H199.441C194.629 230.195 192.309 229.723 192.309 224.48ZM67.0117 276.688C67.3984 276.688 67.6992 276.387 67.957 275.828L71.0508 267.234H82.7383L85.832 275.828C86.0469 276.387 86.3906 276.688 86.7773 276.688C87.0352 276.688 87.6797 276.516 87.6797 275.828C87.6797 275.656 87.6367 275.441 87.5508 275.227L77.8828 248.672H75.9062L66.2383 275.227C66.1523 275.441 66.1094 275.656 66.1094 275.828C66.1094 276.516 66.7539 276.688 67.0117 276.688ZM71.7383 265.43L76.8516 251.293L82.0508 265.43H71.7383ZM94.082 275.141V249.574C94.082 248.758 93.7812 248.371 93.1797 248.371C92.5781 248.371 92.2773 248.758 92.2773 249.574V275.141C92.2773 275.914 92.5781 276.301 93.1367 276.301C93.7812 276.301 94.082 275.914 94.082 275.141ZM110.539 276C115.867 276 119.434 274.969 119.434 268.48V263.711C119.434 257.223 115.867 256.191 110.539 256.191H109.293C103.922 256.191 100.355 257.223 100.355 263.711V268.48C100.355 274.969 103.922 276 109.293 276H110.539ZM109.293 274.195C104.48 274.195 102.16 273.723 102.16 268.48V263.711C102.16 258.469 104.48 257.996 109.293 257.996H110.539C115.309 257.996 117.629 258.469 117.629 263.711V268.48C117.629 273.723 115.309 274.195 110.539 274.195H109.293ZM144.785 256.191C144.785 249.703 141.219 248.672 135.891 248.672H126.523C125.922 248.672 125.707 249.102 125.707 250.004V274.668C125.707 275.57 125.922 276 126.523 276H135.891C141.219 276 144.785 274.969 144.785 268.48V256.191ZM142.98 268.48C142.98 273.723 140.66 274.195 135.891 274.195H127.512V250.477H135.891C140.66 250.477 142.98 250.949 142.98 256.191V268.48Z" fill="white"/>
<path d="M33.056 186.936C32.6613 186.744 32.544 186.445 32.704 186.04L40.736 167.256C40.864 166.915 41.12 166.744 41.504 166.744H41.6C41.952 166.744 42.208 166.915 42.368 167.256L50.368 186.04C50.5493 186.445 50.432 186.744 50.016 186.936C49.6107 187.107 49.3227 186.989 49.152 186.584L46.896 181.272H36.24L33.952 186.584C33.7813 186.989 33.4827 187.107 33.056 186.936ZM36.816 179.928H46.32L41.6 168.856L36.816 179.928ZM54.3098 169.24C53.6698 169.24 53.3498 168.909 53.3498 168.248V167.592C53.3498 166.952 53.6698 166.632 54.3098 166.632H54.9658C55.5951 166.632 55.9098 166.952 55.9098 167.592V168.248C55.9098 168.909 55.5951 169.24 54.9658 169.24H54.3098ZM54.6458 187C54.1978 187 53.9738 186.776 53.9738 186.328V172.92C53.9738 172.472 54.1978 172.248 54.6458 172.248C55.0938 172.248 55.3177 172.472 55.3177 172.92V186.328C55.3177 186.776 55.0938 187 54.6458 187ZM70.9235 187C70.4755 187 70.2515 186.776 70.2515 186.328L70.4115 168.76L70.6675 168.92L60.8435 181.528L60.5555 181.208H73.1315C73.3555 181.208 73.5208 181.267 73.6275 181.384C73.7448 181.491 73.8035 181.656 73.8035 181.88C73.8035 182.328 73.5795 182.552 73.1315 182.552H59.8195C59.3715 182.552 59.1475 182.328 59.1475 181.88C59.1475 181.667 59.2435 181.432 59.4355 181.176L70.3475 167.16C70.4648 167.011 70.5822 166.904 70.6995 166.84C70.8275 166.776 70.9875 166.744 71.1795 166.744C71.5635 166.744 71.7555 166.968 71.7555 167.416L71.5955 186.328C71.5955 186.776 71.3715 187 70.9235 187ZM78.654 180.12V181.432C78.654 182.979 78.9687 184.072 79.598 184.712C80.238 185.341 81.342 185.656 82.91 185.656H85.534C86.974 185.656 88.014 185.459 88.654 185.064C89.294 184.669 89.662 183.992 89.758 183.032C89.7793 182.808 89.8433 182.643 89.95 182.536C90.0673 182.419 90.238 182.36 90.462 182.36C90.6753 182.36 90.8407 182.424 90.958 182.552C91.0753 182.669 91.1233 182.84 91.102 183.064C90.9953 184.419 90.4887 185.416 89.582 186.056C88.6753 186.685 87.326 187 85.534 187H82.91C80.958 187 79.534 186.557 78.638 185.672C77.7527 184.776 77.31 183.363 77.31 181.432V177.848C77.31 175.875 77.7527 174.445 78.638 173.56C79.534 172.664 80.958 172.227 82.91 172.248H85.534C87.486 172.248 88.9047 172.696 89.79 173.592C90.686 174.477 91.134 175.896 91.134 177.848V179.448C91.134 179.896 90.91 180.12 90.462 180.12H78.654ZM82.91 173.592C81.342 173.571 80.238 173.88 79.598 174.52C78.9687 175.149 78.654 176.259 78.654 177.848V178.776H89.79V177.848C89.79 176.28 89.47 175.181 88.83 174.552C88.2007 173.912 87.102 173.592 85.534 173.592H82.91ZM109.112 172.248C109.56 172.248 109.784 172.472 109.784 172.92V186.328C109.784 186.776 109.56 187 109.112 187C108.664 187 108.44 186.776 108.44 186.328V184.472C107.469 186.157 105.581 187 102.776 187H101.88C99.9275 187 98.5035 186.557 97.6075 185.672C96.7222 184.776 96.2795 183.352 96.2795 181.4V172.92C96.2795 172.472 96.5035 172.248 96.9515 172.248C97.3995 172.248 97.6235 172.472 97.6235 172.92V181.4C97.6235 182.968 97.9382 184.072 98.5675 184.712C99.2075 185.341 100.312 185.656 101.88 185.656H102.776C104.546 185.656 105.906 185.352 106.856 184.744C107.805 184.136 108.333 183.203 108.44 181.944V172.92C108.44 172.472 108.664 172.248 109.112 172.248ZM116.208 187C115.76 187 115.536 186.776 115.536 186.328V172.92C115.536 172.472 115.76 172.248 116.208 172.248C116.656 172.248 116.88 172.472 116.88 172.92V175.784C117.414 174.643 118.214 173.768 119.28 173.16C120.358 172.552 121.648 172.248 123.152 172.248C123.6 172.248 123.824 172.472 123.824 172.92C123.824 173.368 123.6 173.592 123.152 173.592C121.232 173.592 119.739 174.051 118.672 174.968C117.606 175.885 117.008 177.219 116.88 178.968V186.328C116.88 186.776 116.656 187 116.208 187ZM131.723 187C129.771 187 128.347 186.557 127.451 185.672C126.565 184.776 126.123 183.363 126.123 181.432V177.848C126.123 175.875 126.565 174.445 127.451 173.56C128.347 172.664 129.771 172.227 131.723 172.248H134.347C136.299 172.248 137.717 172.696 138.603 173.592C139.499 174.477 139.947 175.896 139.947 177.848V181.4C139.947 183.352 139.499 184.776 138.603 185.672C137.717 186.557 136.299 187 134.347 187H131.723ZM127.467 181.432C127.467 182.979 127.781 184.072 128.411 184.712C129.051 185.341 130.155 185.656 131.723 185.656H134.347C135.915 185.656 137.013 185.341 137.643 184.712C138.283 184.072 138.603 182.968 138.603 181.4V177.848C138.603 176.28 138.283 175.181 137.643 174.552C137.013 173.912 135.915 173.592 134.347 173.592H131.723C130.677 173.581 129.84 173.715 129.211 173.992C128.592 174.259 128.144 174.707 127.867 175.336C127.6 175.955 127.467 176.792 127.467 177.848V181.432ZM146.052 193.4C145.604 193.4 145.38 193.176 145.38 192.728V172.92C145.38 172.472 145.604 172.248 146.052 172.248C146.5 172.248 146.724 172.472 146.724 172.92V174.68C147.172 173.88 147.849 173.277 148.756 172.872C149.673 172.456 150.884 172.248 152.388 172.248H153.604C155.556 172.248 156.975 172.696 157.86 173.592C158.756 174.477 159.204 175.896 159.204 177.848V181.4C159.204 183.352 158.756 184.776 157.86 185.672C156.975 186.557 155.556 187 153.604 187H146.724V192.728C146.724 193.176 146.5 193.4 146.052 193.4ZM146.724 185.656H153.604C155.172 185.656 156.271 185.341 156.9 184.712C157.54 184.072 157.86 182.968 157.86 181.4V177.848C157.86 176.28 157.54 175.181 156.9 174.552C156.271 173.912 155.172 173.592 153.604 173.592H152.388C150.564 173.592 149.204 173.896 148.308 174.504C147.412 175.101 146.884 176.024 146.724 177.272V185.656ZM165.654 180.12V181.432C165.654 182.979 165.969 184.072 166.598 184.712C167.238 185.341 168.342 185.656 169.91 185.656H172.534C173.974 185.656 175.014 185.459 175.654 185.064C176.294 184.669 176.662 183.992 176.758 183.032C176.779 182.808 176.843 182.643 176.95 182.536C177.067 182.419 177.238 182.36 177.462 182.36C177.675 182.36 177.841 182.424 177.958 182.552C178.075 182.669 178.123 182.84 178.102 183.064C177.995 184.419 177.489 185.416 176.582 186.056C175.675 186.685 174.326 187 172.534 187H169.91C167.958 187 166.534 186.557 165.638 185.672C164.753 184.776 164.31 183.363 164.31 181.432V177.848C164.31 175.875 164.753 174.445 165.638 173.56C166.534 172.664 167.958 172.227 169.91 172.248H172.534C174.486 172.248 175.905 172.696 176.79 173.592C177.686 174.477 178.134 175.896 178.134 177.848V179.448C178.134 179.896 177.91 180.12 177.462 180.12H165.654ZM169.91 173.592C168.342 173.571 167.238 173.88 166.598 174.52C165.969 175.149 165.654 176.259 165.654 177.848V178.776H176.79V177.848C176.79 176.28 176.47 175.181 175.83 174.552C175.201 173.912 174.102 173.592 172.534 173.592H169.91Z" fill="#FFED00"/>
<defs>
<clipPath id="clip0_222_12216">
<rect width="129" height="129" fill="white" transform="translate(41)"/>
</clipPath>
</defs>
</svg>
