<svg width="63" height="88" viewBox="0 0 63 88" fill="none" xmlns="http://www.w3.org/2000/svg">
<g filter="url(#filter0_b_223_27151)">
<circle cx="31.5" cy="31.5" r="31" stroke="#FFED00"/>
</g>
<path d="M14.5935 34.994C14.0895 34.994 13.6955 34.89 13.4115 34.682C13.1275 34.47 12.9495 34.152 12.8775 33.728C12.8535 33.584 12.8815 33.47 12.9615 33.386C13.0455 33.302 13.1615 33.26 13.3095 33.26C13.4495 33.26 13.5515 33.296 13.6155 33.368C13.6835 33.44 13.7375 33.548 13.7775 33.692C13.8215 33.856 13.9055 33.968 14.0295 34.028C14.1535 34.084 14.3415 34.112 14.5935 34.112H16.5615C16.8935 34.112 17.1175 34.056 17.2335 33.944C17.3535 33.828 17.4135 33.6 17.4135 33.26C17.4135 32.92 17.3535 32.692 17.2335 32.576C17.1175 32.46 16.8935 32.402 16.5615 32.402H14.6235C14.0675 32.402 13.6495 32.264 13.3695 31.988C13.0895 31.708 12.9495 31.29 12.9495 30.734C12.9495 30.166 13.0855 29.744 13.3575 29.468C13.6335 29.188 14.0555 29.048 14.6235 29.048H16.5015C17.4295 29.048 17.9675 29.446 18.1155 30.242C18.1395 30.39 18.1095 30.504 18.0255 30.584C17.9455 30.664 17.8315 30.704 17.6835 30.704C17.5475 30.704 17.4455 30.668 17.3775 30.596C17.3095 30.524 17.2575 30.422 17.2215 30.29C17.1815 30.15 17.1055 30.056 16.9935 30.008C16.8855 29.956 16.7215 29.93 16.5015 29.93H14.6235C14.3035 29.93 14.0915 29.982 13.9875 30.086C13.8835 30.19 13.8315 30.406 13.8315 30.734C13.8315 31.038 13.8855 31.246 13.9935 31.358C14.1055 31.466 14.3155 31.52 14.6235 31.52H16.5615C17.1455 31.52 17.5795 31.664 17.8635 31.952C18.1515 32.24 18.2955 32.676 18.2955 33.26C18.2955 33.844 18.1515 34.28 17.8635 34.568C17.5795 34.852 17.1455 34.994 16.5615 34.994H14.5935ZM23.1473 35C22.3673 35 21.7893 34.814 21.4133 34.442C21.0413 34.066 20.8553 33.488 20.8553 32.708V31.328C20.8553 30.548 21.0393 29.972 21.4073 29.6C21.7793 29.228 22.3593 29.046 23.1473 29.054H24.1313C24.7233 29.054 25.1853 29.154 25.5173 29.354C25.8493 29.554 26.0573 29.862 26.1413 30.278C26.1693 30.426 26.1413 30.54 26.0573 30.62C25.9773 30.7 25.8613 30.74 25.7093 30.74C25.5733 30.74 25.4733 30.706 25.4093 30.638C25.3453 30.566 25.2893 30.466 25.2413 30.338C25.1853 30.19 25.0713 30.086 24.8993 30.026C24.7313 29.966 24.4753 29.936 24.1313 29.936H23.1473C22.6113 29.928 22.2413 30.024 22.0373 30.224C21.8373 30.42 21.7373 30.788 21.7373 31.328V32.708C21.7373 33.248 21.8373 33.618 22.0373 33.818C22.2413 34.018 22.6113 34.118 23.1473 34.118H24.1313C24.4753 34.118 24.7313 34.088 24.8993 34.028C25.0713 33.968 25.1853 33.862 25.2413 33.71C25.2893 33.578 25.3453 33.478 25.4093 33.41C25.4733 33.342 25.5753 33.308 25.7153 33.308C25.8633 33.308 25.9773 33.35 26.0573 33.434C26.1413 33.514 26.1693 33.626 26.1413 33.77C26.0573 34.186 25.8493 34.496 25.5173 34.7C25.1853 34.9 24.7233 35 24.1313 35H23.1473ZM29.3859 35C29.0899 35 28.9419 34.852 28.9419 34.556V29.492C28.9419 29.2 29.0899 29.054 29.3859 29.054C29.6779 29.054 29.8239 29.2 29.8239 29.492V30.116C30.0519 29.768 30.3519 29.504 30.7239 29.324C31.0999 29.144 31.5359 29.054 32.0319 29.054C32.3279 29.054 32.4759 29.2 32.4759 29.492C32.4759 29.788 32.3279 29.936 32.0319 29.936C31.3319 29.936 30.7959 30.076 30.4239 30.356C30.0519 30.632 29.8519 31.01 29.8239 31.49V34.556C29.8239 34.852 29.6779 35 29.3859 35ZM36.4262 35C35.6462 35 35.0682 34.814 34.6922 34.442C34.3202 34.07 34.1342 33.496 34.1342 32.72V31.34C34.1342 30.552 34.3202 29.974 34.6922 29.606C35.0682 29.234 35.6462 29.05 36.4262 29.054H37.4102C38.1902 29.054 38.7662 29.24 39.1382 29.612C39.5102 29.984 39.6962 30.56 39.6962 31.34V32.708C39.6962 33.488 39.5102 34.066 39.1382 34.442C38.7662 34.814 38.1902 35 37.4102 35H36.4262ZM35.0162 32.72C35.0162 33.252 35.1162 33.618 35.3162 33.818C35.5162 34.018 35.8862 34.118 36.4262 34.118H37.4102C37.9502 34.118 38.3182 34.018 38.5142 33.818C38.7142 33.618 38.8142 33.248 38.8142 32.708V31.34C38.8142 30.8 38.7142 30.432 38.5142 30.236C38.3182 30.036 37.9502 29.936 37.4102 29.936H36.4262C36.0662 29.936 35.7842 29.978 35.5802 30.062C35.3762 30.146 35.2302 30.29 35.1422 30.494C35.0582 30.698 35.0162 30.98 35.0162 31.34V32.72ZM44.3656 35C43.7696 35 43.3276 34.856 43.0396 34.568C42.7516 34.276 42.6076 33.832 42.6076 33.236V27.032C42.6076 26.74 42.7556 26.594 43.0516 26.594C43.3436 26.594 43.4896 26.74 43.4896 27.032V33.236C43.4896 33.584 43.5476 33.818 43.6636 33.938C43.7836 34.058 44.0176 34.118 44.3656 34.118C44.6656 34.118 44.8156 34.264 44.8156 34.556C44.8236 34.852 44.6736 35 44.3656 35ZM49.0305 35C48.4345 35 47.9925 34.856 47.7045 34.568C47.4165 34.276 47.2725 33.832 47.2725 33.236V27.032C47.2725 26.74 47.4205 26.594 47.7165 26.594C48.0085 26.594 48.1545 26.74 48.1545 27.032V33.236C48.1545 33.584 48.2125 33.818 48.3285 33.938C48.4485 34.058 48.6825 34.118 49.0305 34.118C49.3305 34.118 49.4805 34.264 49.4805 34.556C49.4885 34.852 49.3385 35 49.0305 35Z" fill="#7AD8FF"/>
<path d="M22 78.4174C21.9996 78.1873 22.1842 78.0004 22.4123 78C22.5223 77.9998 22.6278 78.0439 22.7055 78.1224L31.4998 86.9939L40.294 78.1224C40.4555 77.9595 40.7174 77.9595 40.8789 78.1224C41.0404 78.2853 41.0404 78.5494 40.8789 78.7123L31.7921 87.878C31.6309 88.0407 31.3694 88.0407 31.2081 87.878L22.1214 78.7123C22.0437 78.6342 22 78.5281 22 78.4174Z" fill="#FFED00"/>
<defs>
<filter id="filter0_b_223_27151" x="-27.1828" y="-27.1828" width="117.366" height="117.366" filterUnits="userSpaceOnUse" color-interpolation-filters="sRGB">
<feFlood flood-opacity="0" result="BackgroundImageFix"/>
<feGaussianBlur in="BackgroundImageFix" stdDeviation="13.5914"/>
<feComposite in2="SourceAlpha" operator="in" result="effect1_backgroundBlur_223_27151"/>
<feBlend mode="normal" in="SourceGraphic" in2="effect1_backgroundBlur_223_27151" result="shape"/>
</filter>
</defs>
</svg>
