<svg xmlns="http://www.w3.org/2000/svg" width="62" height="42" viewBox="0 0 62 42">
    <g fill="none" fill-rule="evenodd">
        <g>
            <g>
                <g>
                    <g>
                        <path fill="#0052A2" d="M0 42L62 42 62 0 0 0z" transform="translate(-163.000000, -5381.000000) translate(0.000000, 5078.000000) translate(163.000000, 302.497275) translate(0.000000, 0.502725)"/>
                        <path fill="#0052A2" d="M1.107 42L60.893 42 60.893 1.105 1.107 1.105z" transform="translate(-163.000000, -5381.000000) translate(0.000000, 5078.000000) translate(163.000000, 302.497275) translate(0.000000, 0.502725)"/>
                        <path fill="#FFE800" d="M29.642 9.947L31.001 8.905 32.352 9.947 31.836 8.267 33.214 7.228 31.519 7.228 31.001 5.526 30.481 7.23 28.786 7.228 30.159 8.267zM23.003 12.158L24.359 11.116 25.71 12.158 25.194 10.478 26.571 9.439 24.877 9.439 24.357 7.737 23.839 9.439 22.143 9.439 23.517 10.478zM19.928 12.158L19.409 13.86 17.714 13.86 19.089 14.903 18.572 16.579 19.928 15.544 21.286 16.579 20.77 14.903 22.143 13.86 20.448 13.86zM17.714 22.17L19.069 23.211 18.554 21.529 19.929 20.494 18.232 20.494 17.714 18.789 17.194 20.496 15.5 20.494 16.874 21.529 16.358 23.211zM20.447 26.019L19.927 24.316 19.407 26.021 17.714 26.019 19.086 27.06 18.571 28.737 19.927 27.696 21.286 28.737 20.77 27.06 22.143 26.019zM24.874 31.543L24.356 29.842 23.836 31.546 22.143 31.543 23.516 32.585 22.999 34.263 24.356 33.224 25.713 34.263 25.198 32.585 26.571 31.543zM31.518 32.651L30.998 30.947 30.48 32.651 28.786 32.651 30.157 33.691 29.643 35.368 30.998 34.328 32.357 35.368 31.841 33.691 33.214 32.651zM38.159 31.543L37.641 29.842 37.121 31.546 35.429 31.543 36.8 32.585 36.285 34.263 37.641 33.224 38.998 34.263 38.482 32.585 39.857 31.543zM42.592 26.019L42.072 24.316 41.55 26.021 39.857 26.019 41.232 27.06 40.715 28.737 42.072 27.696 43.429 28.737 42.913 27.06 44.286 26.019zM46.5 20.491L44.804 20.491 44.284 18.789 43.768 20.493 42.071 20.491 43.446 21.533 42.929 23.211 44.284 22.168 45.64 23.211 45.126 21.533zM40.714 16.579L42.073 15.537 43.425 16.579 42.909 14.898 44.286 13.861 42.594 13.861 42.073 12.158 41.553 13.861 39.857 13.861 41.231 14.898zM37.64 7.737L37.122 9.441 35.429 9.439 36.8 10.482 36.285 12.158 37.642 11.121 38.999 12.158 38.484 10.482 39.857 9.439 38.16 9.439z" transform="translate(-163.000000, -5381.000000) translate(0.000000, 5078.000000) translate(163.000000, 302.497275) translate(0.000000, 0.502725)"/>
                    </g>
                </g>
            </g>
        </g>
    </g>
</svg>
